{
copyright = "Copyright (c) 2011-12 vernon adams.";
customParameters = (
{
name = glyphOrder;
value = (
    space,
    exclam,
    quotedbl,
    numbersign,
    dollar,
    percent,
    ampersand,
    parenleft,
    parenright,
    asterisk,
    plus,
    comma,
    hyphen,
    period,
    slash,
    zero,
    one,
    two,
    three,
    four,
    five,
    six,
    seven,
    eight,
    nine,
    colon,
    semicolon,
    less,
    equal,
    greater,
    question,
    at,
    A,
    B,
    C,
    D,
    E,
    F,
    G,
    H,
    I,
    J,
    K,
    L,
    M,
    N,
    O,
    P,
    Q,
    R,
    S,
    T,
    U,
    V,
    W,
    X,
    Y,
    Z,
    bracketleft,
    backslash,
    bracketright,
    asciicircum,
    underscore,
    grave,
    a,
    b,
    c,
    d,
    e,
    f,
    g,
    h,
    i,
    j,
    k,
    l,
    m,
    n,
    o,
    p,
    q,
    r,
    s,
    t,
    u,
    v,
    w,
    x,
    y,
    z,
    braceleft,
    bar,
    braceright,
    asciitilde,
    exclamdown,
    cent,
    sterling,
    currency,
    yen,
    brokenbar,
    section,
    dieresis,
    copyright,
    ordfeminine,
    guillemotleft,
    logicalnot,
    registered,
    macron,
    degree,
    plusminus,
    twosuperior,
    threesuperior,
    acute,
    mu,
    paragraph,
    periodcentered,
    cedilla,
    onesuperior,
    ordmasculine,
    guillemotright,
    onequarter,
    onehalf,
    threequarters,
    questiondown,
    Agrave,
    Aacute,
    Acircumflex,
    Atilde,
    Adieresis,
    Aring,
    AE,
    Ccedilla,
    Egrave,
    Eacute,
    Ecircumflex,
    Edieresis,
    Igrave,
    Iacute,
    Icircumflex,
    Idieresis,
    Eth,
    Ntilde,
    Ograve,
    Oacute,
    Ocircumflex,
    Otilde,
    Odieresis,
    multiply,
    Oslash,
    Ugrave,
    Uacute,
    Ucircumflex,
    Udieresis,
    Yacute,
    Thorn,
    germandbls,
    agrave,
    aacute,
    acircumflex,
    atilde,
    adieresis,
    aring,
    ae,
    ccedilla,
    egrave,
    eacute,

glyphs = (
{
glyphname = exclam;
lastChange = "2014-01-01 23:19:49 -0800";
layers = (
{
layerId = "4D3A9D47-CC41-4843-AE67-D0D92AD22A81";
name = Regular;
paths = (
{
closed = 1;
nodes = (
"177 1556 OFFCURVE",
"152 1510 OFFCURVE",
"152 1418 CURVE SMOOTH",
"152 1386 OFFCURVE",
"193 917 OFFCURVE",
"231 534 CURVE SMOOTH",
"234 503 OFFCURVE",
"248 498 OFFCURVE",
"260 498 CURVE SMOOTH",
"272 498 OFFCURVE",
"286 503 OFFCURVE",
"289 534 CURVE SMOOTH",
"324 917 OFFCURVE",
"368 1386 OFFCURVE",
"368 1418 CURVE SMOOTH",
"368 1510 OFFCURVE",
"343 1556 OFFCURVE",
"260 1556 CURVE SMOOTH"
);
},
{
closed = 1;
nodes = (
"195 274 OFFCURVE",
"127 226 OFFCURVE",
"127 127 CURVE SMOOTH",
"127 30 OFFCURVE",
"199 -21 OFFCURVE",
"270 -21 CURVE SMOOTH",
"340 -21 OFFCURVE",
"408 27 OFFCURVE",
"408 127 CURVE SMOOTH",
"408 223 OFFCURVE",
"335 274 OFFCURVE",
"264 274 CURVE SMOOTH"
);
}
);
width = 519;
},
{
layerId = "24819F8C-2CC6-4723-AD58-E43FF506A0F9";
name = Bold;
paths = (
{
closed = 1;
nodes = (
"524 539 CURVE SMOOTH",
"549 539 OFFCURVE",
"573 562 OFFCURVE",
"584 607 CURVE SMOOTH",
"647 874 OFFCURVE",
"782 1253 OFFCURVE",
"782 1411 CURVE SMOOTH",
"782 1556 OFFCURVE",
"651 1631 OFFCURVE",
"522 1631 CURVE SMOOTH",
"396 1631 OFFCURVE",
"271 1560 OFFCURVE",
"271 1413 CURVE SMOOTH",
"271 1259 OFFCURVE",
"399 880 OFFCURVE",
"463 607 CURVE SMOOTH",
"474 561 OFFCURVE",
"499 539 OFFCURVE"
);
},
{
closed = 1;
nodes = (
"524 -39 CURVE SMOOTH",
"626 -39 OFFCURVE",
"728 31 OFFCURVE",
"728 171 CURVE SMOOTH",
"728 311 OFFCURVE",
"626 381 OFFCURVE",
"524 381 CURVE SMOOTH",
"422 381 OFFCURVE",
"320 311 OFFCURVE",
"320 171 CURVE SMOOTH",
"320 31 OFFCURVE",
"422 -39 OFFCURVE"
);
}
);
width = 1063;
}
);
unicode = 0021;
userData = {
com.typemytype.robofont.layerData = {
};
};
},
{
glyphname = quotedbl;
lastChange = "2014-01-01 23:46:18 -0800";
layers = (
{
layerId = "4D3A9D47-CC41-4843-AE67-D0D92AD22A81";
name = Regular;
paths = (
{
closed = 1;
nodes = (
"449 1500 OFFCURVE",
"435 1460 OFFCURVE",
"435 1363 CURVE SMOOTH",
"435 1284 OFFCURVE",
"510 929 OFFCURVE",
"510 929 CURVE",
"523 926 LINE",
"535 923 LINE",
"535 923 OFFCURVE",
"608 1295 OFFCURVE",
"608 1378 CURVE SMOOTH",
"608 1460 OFFCURVE",
"578 1500 OFFCURVE",
"522 1500 CURVE SMOOTH"
);
},
{
closed = 1;
nodes = (
"140 1500 OFFCURVE",
"126 1460 OFFCURVE",
"126 1363 CURVE SMOOTH",
"126 1284 OFFCURVE",
"201 929 OFFCURVE",
"201 929 CURVE",
"214 926 LINE",
"226 923 LINE",
"226 923 OFFCURVE",
"299 1295 OFFCURVE",
"299 1378 CURVE SMOOTH",
"299 1460 OFFCURVE",
"269 1500 OFFCURVE",
"213 1500 CURVE SMOOTH"
);
}
);
width = 721;
},
{
layerId = "24819F8C-2CC6-4723-AD58-E43FF506A0F9";
name = Bold;
paths = (
{
closed = 1;
nodes = (
"777 1629 OFFCURVE",
"685 1572 OFFCURVE",
"685 1454 CURVE SMOOTH",
"685 1349 OFFCURVE",
"773 1090 OFFCURVE",
"818 896 CURVE",
"829 856 OFFCURVE",
"851 837 OFFCURVE",
"873 837 CURVE SMOOTH",
"895 837 OFFCURVE",
"919 857 OFFCURVE",
"928 896 CURVE SMOOTH",
"973 1086 OFFCURVE",
"1066 1344 OFFCURVE",
"1066 1452 CURVE SMOOTH",
"1066 1568 OFFCURVE",
"968 1629 OFFCURVE",
"871 1629 CURVE SMOOTH"
);
},
{
closed = 1;
nodes = (
"280 1629 OFFCURVE",
"188 1572 OFFCURVE",
"188 1454 CURVE SMOOTH",
"188 1349 OFFCURVE",
"276 1090 OFFCURVE",
"321 896 CURVE",
"332 856 OFFCURVE",
"354 837 OFFCURVE",
"376 837 CURVE SMOOTH",
"398 837 OFFCURVE",
"422 857 OFFCURVE",
"431 896 CURVE SMOOTH",
"476 1086 OFFCURVE",
"569 1344 OFFCURVE",
"569 1452 CURVE SMOOTH",
"569 1568 OFFCURVE",
"471 1629 OFFCURVE",
"374 1629 CURVE SMOOTH"
);
}
);
width = 1257;
}
);
unicode = 0022;
},
{
glyphname = numbersign;
lastChange = "2014-01-01 23:19:49 -0800";
layers = (
{
layerId = "4D3A9D47-CC41-4843-AE67-D0D92AD22A81";
name = Regular;
paths = (
{
closed = 1;
nodes = (
"1093 1490 LINE",
"1031 1131 LINE",
"709 1131 LINE",
"772 1490 LINE",
"590 1490 LINE",
"526 1131 LINE",
"254 1131 LINE",
"227 963 LINE",
"497 963 LINE",
"430 561 LINE",
"156 561 LINE",
"129 406 LINE",
"404 406 LINE",
"335 0 LINE",
"512 0 LINE",
"584 406 LINE",
"912 406 LINE",
"842 0 LINE",
"1018 0 LINE",
"1088 406 LINE",
"1367 406 LINE",
"1390 561 LINE",
"1113 561 LINE",
"1180 963 LINE",
"1458 963 LINE",
"1481 1131 LINE",
"1208 1131 LINE",
"1269 1490 LINE"
);
},
{
closed = 1;
nodes = (
"936 561 LINE",
"611 561 LINE",
"680 963 LINE",
"1004 963 LINE"
);
}
);
width = 1614;
},
{
layerId = "24819F8C-2CC6-4723-AD58-E43FF506A0F9";
name = Bold;
paths = (
{
closed = 1;
nodes = (
"160 0 LINE",
"662 0 LINE",
"722 429 LINE",
"919 429 LINE",
"858 0 LINE",
"1359 0 LINE",
"1419 430 LINE",
"1584 430 LINE",
"1611 621 LINE",
"1448 621 LINE",
"1500 994 LINE",
"1651 994 LINE",
"1681 1200 LINE",
"1533 1200 LINE",
"1586 1595 LINE",
"1088 1595 LINE",
"1033 1200 LINE",
"836 1200 LINE",
"889 1595 LINE",
"390 1595 LINE",
"336 1200 LINE",
"183 1200 LINE",
"154 993 LINE",
"302 993 LINE",
"251 621 LINE",
"113 621 LINE",
"87 429 LINE",
"221 429 LINE"
);
},
{
closed = 1;
nodes = (
"751 621 LINE",
"803 993 LINE",
"1000 993 LINE",
"948 621 LINE"
);
}
);
width = 1743;
}
);
unicode = 0023;
},
{
glyphname = dollar;
lastChange = "2014-01-01 23:19:49 -0800";
layers = (
{
components = (
{
name = S;
transform = "{1, 0, 0, 1, 0, 0}";
}
);
layerId = "4D3A9D47-CC41-4843-AE67-D0D92AD22A81";
name = Regular;
paths = (
{
closed = 1;
nodes = (
"619 1745 LINE",
"619 -274 LINE",
"713 -274 LINE",
"713 1745 LINE"
);
}
);
width = 1313;
},
{
layerId = "24819F8C-2CC6-4723-AD58-E43FF506A0F9";
name = Bold;
paths = (
{
closed = 1;
nodes = (
"771 -168 LINE",
"850 -168 LINE",
"850 23 LINE",
"1233 30 OFFCURVE",
"1464 122 OFFCURVE",
"1464 510 CURVE SMOOTH",
"1464 873 OFFCURVE",
"1134 942 OFFCURVE",
"850 997 CURVE",
"850 1283 LINE",
"933 1283 LINE",
"933 1122 LINE",
"1432 1092 LINE",
"1443 1282 OFFCURVE",
"1430 1435 OFFCURVE",
"1231 1500 CURVE",
"1126 1533 OFFCURVE",
"1000 1544 OFFCURVE",
"850 1545 CURVE",
"850 1730 LINE",
"771 1730 LINE",
"771 1544 LINE",
"424 1538 OFFCURVE",
"156 1462 OFFCURVE",
"156 1080 CURVE SMOOTH",
"156 711 OFFCURVE",
"478 639 OFFCURVE",
"771 586 CURVE",
"771 283 LINE",
"686 283 LINE",
"686 450 LINE",
"187 482 LINE",
"175 239 OFFCURVE",
"235 125 OFFCURVE",
"387 71 CURVE SMOOTH",
"492 34 OFFCURVE",
"619 23 OFFCURVE",
"771 22 CURVE"
);
},
{
closed = 1;
nodes = (
"771 1012 LINE",
"741 1018 OFFCURVE",
"713 1025 OFFCURVE",
"686 1031 CURVE",
"686 1283 LINE",
"771 1283 LINE"
);
},
{
closed = 1;
nodes = (
"850 283 LINE",
"850 572 LINE",
"933 556 LINE",
"933 283 LINE"
);
}
);
width = 1628;
}
);
unicode = 0024;
},
{
glyphname = percent;
lastChange = "2014-01-01 23:19:49 -0800";
layers = (
{
layerId = "4D3A9D47-CC41-4843-AE67-D0D92AD22A81";
name = Regular;
paths = (
{
closed = 1;
nodes = (
"1236 1573 LINE",
"857 1 LINE",
"1025 1 LINE",
"1407 1573 LINE"
);
},
{
closed = 1;
nodes = (
"683 1307 OFFCURVE",
"687 1304 OFFCURVE",
"687 1075 CURVE SMOOTH",
"687 930 LINE SMOOTH",
"687 731 OFFCURVE",
"673 716 OFFCURVE",
"474 716 CURVE SMOOTH",
"305 716 OFFCURVE",
"291 730 OFFCURVE",
"291 934 CURVE SMOOTH",
"291 974 OFFCURVE",
"292 1022 OFFCURVE",
"292 1079 CURVE SMOOTH",
"292 1306 OFFCURVE",
"308 1307 OFFCURVE",
"491 1307 CURVE SMOOTH"
);
},
{
closed = 1;
nodes = (
"236 1438 OFFCURVE",
"144 1376 OFFCURVE",
"144 1124 CURVE SMOOTH",
"144 683 OFFCURVE",
"148 584 OFFCURVE",
"491 584 CURVE SMOOTH",
"751 584 OFFCURVE",
"842 652 OFFCURVE",
"842 898 CURVE SMOOTH",
"842 1336 OFFCURVE",
"834 1438 OFFCURVE",
"491 1438 CURVE SMOOTH"
);
},
{
closed = 1;
nodes = (
"1966 889 OFFCURVE",
"1970 886 OFFCURVE",
"1970 657 CURVE SMOOTH",
"1970 512 LINE SMOOTH",
"1970 313 OFFCURVE",
"1956 298 OFFCURVE",
"1757 298 CURVE SMOOTH",
"1588 298 OFFCURVE",
"1574 312 OFFCURVE",
"1574 516 CURVE SMOOTH",
"1574 556 OFFCURVE",
"1575 604 OFFCURVE",
"1575 661 CURVE SMOOTH",
"1575 888 OFFCURVE",
"1591 889 OFFCURVE",
"1774 889 CURVE SMOOTH"
);
},
{
closed = 1;
nodes = (
"1519 1020 OFFCURVE",
"1427 958 OFFCURVE",
"1427 706 CURVE SMOOTH",
"1427 265 OFFCURVE",
"1431 166 OFFCURVE",
"1774 166 CURVE SMOOTH",
"2034 166 OFFCURVE",
"2125 234 OFFCURVE",
"2125 480 CURVE SMOOTH",
"2125 918 OFFCURVE",
"2117 1020 OFFCURVE",
"1774 1020 CURVE SMOOTH"
);
}
);
width = 2264;
},
{
layerId = "24819F8C-2CC6-4723-AD58-E43FF506A0F9";
name = Bold;
paths = (
{
closed = 1;
nodes = (
"476 618 CURVE SMOOTH",
"250 618 OFFCURVE",
"26 623 OFFCURVE",
"26 927 CURVE SMOOTH",
"26 1286 LINE SMOOTH",
"26 1577 OFFCURVE",
"253 1595 OFFCURVE",
"475 1595 CURVE SMOOTH",
"696 1595 OFFCURVE",
"926 1578 OFFCURVE",
"926 1288 CURVE SMOOTH",
"926 929 LINE SMOOTH",
"926 630 OFFCURVE",
"699 618 OFFCURVE"
);
},
{
closed = 1;
nodes = (
"2116 129 CURVE SMOOTH",
"1891 129 OFFCURVE",
"1666 146 OFFCURVE",
"1666 441 CURVE SMOOTH",
"1666 798 LINE SMOOTH",
"1666 1091 OFFCURVE",
"1891 1109 OFFCURVE",
"2115 1109 CURVE SMOOTH",
"2338 1109 OFFCURVE",
"2566 1092 OFFCURVE",
"2566 799 CURVE SMOOTH",
"2566 442 LINE SMOOTH",
"2566 153 OFFCURVE",
"2337 129 OFFCURVE"
);
},
{
closed = 1;
nodes = (
"524 833 LINE",
"524 1378 LINE",
"433 1378 LINE",
"433 833 LINE"
);
},
{
closed = 1;
nodes = (
"916 -39 LINE",
"1304 -39 LINE",
"1680 1632 LINE",
"1296 1632 LINE"
);
},
{
closed = 1;
nodes = (
"2073 347 LINE",
"2163 347 LINE",
"2163 892 LINE",
"2073 892 LINE"
);
}
);
width = 2592;
}
);
unicode = 0025;
},
{
glyphname = ampersand;
lastChange = "2014-01-01 23:19:52 -0800";
layers = (
{
layerId = "4D3A9D47-CC41-4843-AE67-D0D92AD22A81";
name = Regular;
paths = (
{
closed = 1;
nodes = (
"331 1522 OFFCURVE",
"209 1431 OFFCURVE",
"209 1146 CURVE SMOOTH",
"209 1029 OFFCURVE",
"234 932 OFFCURVE",
"285 875 CURVE SMOOTH",
"301 856 OFFCURVE",
"320 842 OFFCURVE",
"341 832 CURVE SMOOTH",
"347 830 OFFCURVE",
"353 827 OFFCURVE",
"360 825 CURVE",
"332 819 OFFCURVE",
"306 808 OFFCURVE",
"283 792 CURVE SMOOTH",
"194 730 OFFCURVE",
"146 590 OFFCURVE",
"146 382 CURVE SMOOTH",
"146 104 OFFCURVE",
"307 -23 OFFCURVE",
"658 -23 CURVE SMOOTH",
"999 -23 OFFCURVE",
"1213 117 OFFCURVE",
"1213 371 CURVE",
"1212 727 LINE",
"1346 728 LINE",
"1346 853 LINE",
"1213 853 LINE",
"1213 962 LINE",
"1030 962 LINE",
"1030 853 LINE",
"549 853 LINE SMOOTH",
"462 853 OFFCURVE",
"410 895 OFFCURVE",
"406 1120 CURVE SMOOTH",
"406 1146 LINE SMOOTH",
"406 1306 OFFCURVE",
"480 1357 OFFCURVE",
"712 1357 CURVE SMOOTH",
"858 1357 OFFCURVE",
"938 1353 OFFCURVE",
"983 1329 CURVE SMOOTH",
"1028 1305 OFFCURVE",
"1038 1262 OFFCURVE",
"1043 1183 CURVE",
"1195 1208 LINE",
"1195 1246 OFFCURVE",
"1191 1284 OFFCURVE",
"1188 1322 CURVE SMOOTH",
"1171 1508 OFFCURVE",
"1016 1522 OFFCURVE",
"712 1522 CURVE SMOOTH"
);
},
{
closed = 1;
nodes = (
"1030 357 LINE SMOOTH",
"1030 211 OFFCURVE",
"887 138 OFFCURVE",
"658 138 CURVE SMOOTH",
"441 138 OFFCURVE",
"342 215 OFFCURVE",
"342 382 CURVE SMOOTH",
"342 607 OFFCURVE",
"345 728 OFFCURVE",
"493 728 CURVE SMOOTH",
"1030 728 LINE"
);
}
);
width = 1480;
},
{
layerId = "24819F8C-2CC6-4723-AD58-E43FF506A0F9";
name = Bold;
paths = (
{
closed = 1;
nodes = (
"815 -40 CURVE SMOOTH",
"1361 -40 OFFCURVE",
"1491 75 OFFCURVE",
"1491 513 CURVE SMOOTH",
"1491 736 LINE",
"1642 736 LINE",
"1642 929 LINE",
"1491 929 LINE",
"1491 1068 LINE",
"945 1068 LINE",
"945 929 LINE",
"840.5 929 LINE",
"736 929 LINE",
"736 1392 LINE",
"839 1392 LINE",
"942 1392 LINE",
"942 1184 LINE",
"1487 1184 LINE",
"1490 1203 OFFCURVE",
"1491 1221 OFFCURVE",
"1491 1238 CURVE SMOOTH",
"1491 1522 OFFCURVE",
"1269 1632 OFFCURVE",
"855 1632 CURVE SMOOTH",
"502 1632 OFFCURVE",
"133 1594 OFFCURVE",
"133 1198 CURVE SMOOTH",
"133 958 OFFCURVE",
"229 880 OFFCURVE",
"296 873 CURVE SMOOTH",
"408 861 LINE",
"408 822 LINE",
"296 809 LINE SMOOTH",
"175 795 OFFCURVE",
"134 569 OFFCURVE",
"134 456 CURVE SMOOTH",
"134 16 OFFCURVE",
"410 -40 OFFCURVE"
);
},
{
closed = 1;
nodes = (
"840.5 224 LINE",
"736 224 LINE",
"736 736 LINE",
"945 736 LINE",
"945 224 LINE"
);
}
);
width = 1743;
}
);
unicode = 0026;
},
{
glyphname = parenleft;
lastChange = "2014-01-01 23:19:49 -0800";
layers = (
{
layerId = "4D3A9D47-CC41-4843-AE67-D0D92AD22A81";
name = Regular;
paths = (
{
closed = 1;
nodes = (
"279 1651 OFFCURVE",
"146 1239 OFFCURVE",
"146 729 CURVE SMOOTH",
"146 217 OFFCURVE",
"279 -195 OFFCURVE",
"678 -229 CURVE",
"693 -92 LINE",
"425 -51 OFFCURVE",
"337 261 OFFCURVE",
"337 728 CURVE SMOOTH",
"337 1195 OFFCURVE",
"425 1507 OFFCURVE",
"693 1548 CURVE",
"678 1685 LINE"
);
}
);
width = 804;
},
{
layerId = "24819F8C-2CC6-4723-AD58-E43FF506A0F9";
name = Bold;
paths = (
{
closed = 1;
nodes = (
"975 -169 CURVE",
"975 110 LINE",
"749 110 OFFCURVE",
"657 466 OFFCURVE",
"657 827 CURVE SMOOTH",
"657 1188 OFFCURVE",
"749 1562 OFFCURVE",
"975 1562 CURVE",
"975 1841 LINE",
"457 1841 OFFCURVE",
"255 1328 OFFCURVE",
"255 827 CURVE SMOOTH",
"255 326 OFFCURVE",
"457 -169 OFFCURVE"
);
}
);
width = 1231;
}
);
unicode = 0028;
},
{
glyphname = parenright;
lastChange = "2014-01-01 23:19:49 -0800";
layers = (
{
layerId = "4D3A9D47-CC41-4843-AE67-D0D92AD22A81";
name = Regular;
paths = (
{
closed = 1;
nodes = (
"111 1548 LINE",
"379 1507 OFFCURVE",
"467 1195 OFFCURVE",
"467 728 CURVE SMOOTH",
"467 261 OFFCURVE",
"379 -51 OFFCURVE",
"111 -92 CURVE",
"126 -229 LINE",
"525 -195 OFFCURVE",
"658 217 OFFCURVE",
"658 727 CURVE SMOOTH",
"658 729 LINE SMOOTH",
"658 1239 OFFCURVE",
"525 1651 OFFCURVE",
"126 1685 CURVE"
);
}
);
width = 804;
},
{
layerId = "24819F8C-2CC6-4723-AD58-E43FF506A0F9";
name = Bold;
paths = (
{
closed = 1;
nodes = (
"255 -169 LINE",
"348 -169 LINE SMOOTH",
"773 -169 OFFCURVE",
"975 326 OFFCURVE",
"975 827 CURVE SMOOTH",
"975 1328 OFFCURVE",
"773 1841 OFFCURVE",
"348 1841 CURVE SMOOTH",
"255 1841 LINE",
"255 1562 LINE",
"320 1562 LINE SMOOTH",
"481 1562 OFFCURVE",
"573 1188 OFFCURVE",
"573 827 CURVE SMOOTH",
"573 466 OFFCURVE",
"481 110 OFFCURVE",
"320 110 CURVE SMOOTH",
"255 110 LINE"
);
}
);
width = 1246;
}
);
unicode = 0029;
},
{
glyphname = asterisk;
lastChange = "2014-01-01 23:19:49 -0800";
layers = (
{
layerId = "4D3A9D47-CC41-4843-AE67-D0D92AD22A81";
name = Regular;
paths = (
{
closed = 1;
nodes = (
"637 1436 OFFCURVE",
"599 1066 OFFCURVE",
"587 1022 CURVE",
"544 1213 OFFCURVE",
"496 1436 OFFCURVE",
"402 1436 CURVE SMOOTH",
"348 1436 OFFCURVE",
"315 1397 OFFCURVE",
"315 1344 CURVE SMOOTH",
"315 1307 OFFCURVE",
"400 1197 OFFCURVE",
"571 1012 CURVE",
"496 1032 OFFCURVE",
"315 1096 OFFCURVE",
"236 1096 CURVE SMOOTH",
"170 1096 OFFCURVE",
"137 1066 OFFCURVE",
"137 1006 CURVE SMOOTH",
"137 945 OFFCURVE",
"171 915 OFFCURVE",
"238 915 CURVE SMOOTH",
"313 915 OFFCURVE",
"444 959 OFFCURVE",
"571 997 CURVE",
"432 843 OFFCURVE",
"325 734 OFFCURVE",
"325 648 CURVE SMOOTH",
"325 612 OFFCURVE",
"368 574 OFFCURVE",
"404 574 CURVE SMOOTH",
"495 574 OFFCURVE",
"512 713 OFFCURVE",
"587 988 CURVE",
"628 813 OFFCURVE",
"678 574 OFFCURVE",
"768 574 CURVE SMOOTH",
"822 574 OFFCURVE",
"860 611 OFFCURVE",
"860 664 CURVE SMOOTH",
"860 701 OFFCURVE",
"772 812 OFFCURVE",
"604 997 CURVE",
"685 973 OFFCURVE",
"851 915 OFFCURVE",
"931 915 CURVE SMOOTH",
"1000 915 OFFCURVE",
"1034 945 OFFCURVE",
"1034 1006 CURVE SMOOTH",
"1034 1066 OFFCURVE",
"1001 1096 OFFCURVE",
"935 1096 CURVE SMOOTH",
"856 1096 OFFCURVE",
"787 1067 OFFCURVE",
"604 1012 CURVE",
"810 1231 OFFCURVE",
"846 1298 OFFCURVE",
"846 1353 CURVE SMOOTH",
"846 1401 OFFCURVE",
"806 1436 OFFCURVE",
"766 1436 CURVE SMOOTH"
);
}
);
width = 1169;
},
{
layerId = "24819F8C-2CC6-4723-AD58-E43FF506A0F9";
name = Bold;
paths = (
{
closed = 1;
nodes = (
"489 430 CURVE SMOOTH",
"611 430 OFFCURVE",
"635 599 OFFCURVE",
"702 840 CURVE",
"740 703 OFFCURVE",
"778 549 OFFCURVE",
"814 489 CURVE SMOOTH",
"839 447 OFFCURVE",
"877 430 OFFCURVE",
"916 430 CURVE SMOOTH",
"996 430 OFFCURVE",
"1083 500 OFFCURVE",
"1083 581 CURVE SMOOTH",
"1083 657 OFFCURVE",
"956 765 OFFCURVE",
"814 899 CURVE",
"950 862 OFFCURVE",
"1098 817 OFFCURVE",
"1167 817 CURVE SMOOTH",
"1253 817 OFFCURVE",
"1293 889 OFFCURVE",
"1293 962 CURVE SMOOTH",
"1293 1037 OFFCURVE",
"1250 1112 OFFCURVE",
"1167 1112 CURVE SMOOTH",
"1096 1112 OFFCURVE",
"948 1065 OFFCURVE",
"814 1027 CURVE",
"960 1169 OFFCURVE",
"1084 1275 OFFCURVE",
"1084 1351 CURVE SMOOTH",
"1084 1430 OFFCURVE",
"996 1497 OFFCURVE",
"916 1497 CURVE SMOOTH",
"875 1497 OFFCURVE",
"837 1480 OFFCURVE",
"813 1440 CURVE SMOOTH",
"775 1376 OFFCURVE",
"739 1219 OFFCURVE",
"702 1080 CURVE",
"666 1219 OFFCURVE",
"630 1376 OFFCURVE",
"592 1440 CURVE SMOOTH",
"568 1480 OFFCURVE",
"529 1497 OFFCURVE",
"489 1497 CURVE SMOOTH",
"408 1497 OFFCURVE",
"321 1431 OFFCURVE",
"321 1351 CURVE SMOOTH",
"321 1275 OFFCURVE",
"442 1170 OFFCURVE",
"590 1027 CURVE",
"456 1065 OFFCURVE",
"309 1112 OFFCURVE",
"238 1112 CURVE SMOOTH",
"155 1112 OFFCURVE",
"112 1037 OFFCURVE",
"112 962 CURVE SMOOTH",
"112 889 OFFCURVE",
"152 817 OFFCURVE",
"237 817 CURVE SMOOTH",
"306 817 OFFCURVE",
"454 861 OFFCURVE",
"590 899 CURVE",
"447 765 OFFCURVE",
"321 658 OFFCURVE",
"321 581 CURVE SMOOTH",
"321 502 OFFCURVE",
"407 430 OFFCURVE"
);
}
);
width = 1417;
}
);
unicode = 002A;
},
{
glyphname = plus;
lastChange = "2014-01-01 23:19:49 -0800";
layers = (
{
layerId = "4D3A9D47-CC41-4843-AE67-D0D92AD22A81";
name = Regular;
paths = (
{
closed = 1;
nodes = (
"431 1117 LINE",
"431 754 LINE",
"124 754 LINE",
"124 585 LINE",
"431 585 LINE",
"431 223 LINE",
"597 223 LINE",
"597 585 LINE",
"905 585 LINE",
"905 754 LINE",
"597 754 LINE",
"597 1117 LINE"
);
}
);
width = 1030;
},
{
layerId = "24819F8C-2CC6-4723-AD58-E43FF506A0F9";
name = Bold;
paths = (
{
closed = 1;
nodes = (
"561 100 LINE",
"953 100 LINE",
"953 478 LINE",
"1317 478 LINE",
"1317 811 LINE",
"953 811 LINE",
"953 1192 LINE",
"561 1192 LINE",
"561 811 LINE",
"196 811 LINE",
"196 478 LINE",
"561 478 LINE"
);
}
);
width = 1517;
}
);
unicode = 002B;
},
{
glyphname = comma;
lastChange = "2014-01-01 23:19:49 -0800";
layers = (
{
layerId = "4D3A9D47-CC41-4843-AE67-D0D92AD22A81";
name = Regular;
paths = (
{
closed = 1;
nodes = (
"200 309 OFFCURVE",
"146 240 OFFCURVE",
"146 154 CURVE SMOOTH",
"146 70 OFFCURVE",
"205 0 OFFCURVE",
"290 0 CURVE",
"290 -89 OFFCURVE",
"206 -159 OFFCURVE",
"118 -159 CURVE",
"118 -227 LINE",
"129 -230 OFFCURVE",
"149 -231 OFFCURVE",
"178 -231 CURVE SMOOTH",
"318 -231 OFFCURVE",
"434 -39 OFFCURVE",
"434 130 CURVE SMOOTH",
"434 225 OFFCURVE",
"381 309 OFFCURVE",
"293 309 CURVE SMOOTH"
);
}
);
width = 562;
},
{
anchors = (
{
name = _bot;
position = "{495, 0}";
}
);
layerId = "24819F8C-2CC6-4723-AD58-E43FF506A0F9";
name = Bold;
paths = (
{
closed = 1;
nodes = (
"347 -234 CURVE SMOOTH",
"568 -234 OFFCURVE",
"694 -15 OFFCURVE",
"694 169 CURVE SMOOTH",
"694 298 OFFCURVE",
"628 409 OFFCURVE",
"484 409 CURVE SMOOTH",
"382 409 OFFCURVE",
"280 342 OFFCURVE",
"280 209 CURVE SMOOTH",
"280 80 OFFCURVE",
"366 10 OFFCURVE",
"459 0 CURVE",
"453 -77 OFFCURVE",
"383 -121 OFFCURVE",
"303 -122 CURVE",
"303 -231 LINE",
"318 -233 OFFCURVE",
"333 -234 OFFCURVE"
);
}
);
width = 989;
}
);
unicode = 002C;
},
{
glyphname = hyphen;
lastChange = "2014-01-01 23:19:49 -0800";
layers = (
{
anchors = (
{
name = _mid;
position = "{425, 606}";
}
);
layerId = "4D3A9D47-CC41-4843-AE67-D0D92AD22A81";
name = Regular;
paths = (
{
closed = 1;
nodes = (
"131 677 LINE",
"131 538 LINE",
"718 538 LINE",
"718 677 LINE"
);
}
);
width = 851;
},
{
anchors = (
{
name = _mid;
position = "{694, 652}";
}
);
layerId = "24819F8C-2CC6-4723-AD58-E43FF506A0F9";
name = Bold;
paths = (
{
closed = 1;
nodes = (
"234 506 LINE",
"1095 506 LINE",
"1095 799 LINE",
"234 799 LINE"
);
}
);
width = 1333;
}
);
unicode = 002D;
},
{
glyphname = period;
lastChange = "2014-01-01 23:19:49 -0800";
layers = (
{
layerId = "4D3A9D47-CC41-4843-AE67-D0D92AD22A81";
name = Regular;
paths = (
{
closed = 1;
nodes = (
"195 264 OFFCURVE",
"127 216 OFFCURVE",
"127 117 CURVE SMOOTH",
"127 20 OFFCURVE",
"199 -31 OFFCURVE",
"270 -31 CURVE SMOOTH",
"340 -31 OFFCURVE",
"408 17 OFFCURVE",
"408 117 CURVE SMOOTH",
"408 213 OFFCURVE",
"335 264 OFFCURVE",
"264 264 CURVE SMOOTH"
);
}
);
width = 536;
},
{
layerId = "24819F8C-2CC6-4723-AD58-E43FF506A0F9";
name = Bold;
paths = (
{
closed = 1;
nodes = (
"484 -39 CURVE SMOOTH",
"586 -39 OFFCURVE",
"688 31 OFFCURVE",
"688 171 CURVE SMOOTH",
"688 311 OFFCURVE",
"586 381 OFFCURVE",
"484 381 CURVE SMOOTH",
"382 381 OFFCURVE",
"280 311 OFFCURVE",
"280 171 CURVE SMOOTH",
"280 31 OFFCURVE",
"382 -39 OFFCURVE"
);
}
);
width = 981;
}
);
unicode = 002E;
},
{
glyphname = slash;
lastChange = "2014-01-01 23:19:49 -0800";
layers = (
{
layerId = "4D3A9D47-CC41-4843-AE67-D0D92AD22A81";
name = Regular;
paths = (
{
closed = 1;
nodes = (
"480 1516 LINE",
"113 -26 LINE",
"282 -26 LINE",
"658 1516 LINE"
);
}
);
width = 770;
},
{
layerId = "24819F8C-2CC6-4723-AD58-E43FF506A0F9";
name = Bold;
paths = (
{
closed = 1;
nodes = (
"225 0 LINE",
"660 0 LINE",
"1011 1595 LINE",
"577 1595 LINE"
);
}
);
width = 1215;
}
);
unicode = 002F;
},
{
glyphname = zero;
lastChange = "2014-01-01 23:19:52 -0800";
layers = (
{
layerId = "4D3A9D47-CC41-4843-AE67-D0D92AD22A81";
name = Regular;
paths = (
{
closed = 1;
nodes = (
"192 1506 OFFCURVE",
"150 1289 OFFCURVE",
"150 776 CURVE SMOOTH",
"150 709 LINE SMOOTH",
"151 206 OFFCURVE",
"177 -16 OFFCURVE",
"652 -16 CURVE SMOOTH",
"1146 -16 OFFCURVE",
"1154 225 OFFCURVE",
"1154 776 CURVE SMOOTH",
"1154 829 LINE SMOOTH",
"1154 1304 OFFCURVE",
"1093 1506 OFFCURVE",
"652 1506 CURVE SMOOTH"
);
},
{
closed = 1;
nodes = (
"849 1357 OFFCURVE",
"949 1305 OFFCURVE",
"957 1179 CURVE SMOOTH",
"965 1037 OFFCURVE",
"969 890 OFFCURVE",
"969 740 CURVE SMOOTH",
"969 590 OFFCURVE",
"967 442 OFFCURVE",
"958 301 CURVE SMOOTH",
"951 187 OFFCURVE",
"859 138 OFFCURVE",
"652 138 CURVE SMOOTH",
"445 138 OFFCURVE",
"353 187 OFFCURVE",
"346 301 CURVE SMOOTH",
"337 442 OFFCURVE",
"335 590 OFFCURVE",
"335 740 CURVE SMOOTH",
"335 890 OFFCURVE",
"338 1037 OFFCURVE",
"347 1179 CURVE SMOOTH",
"354 1305 OFFCURVE",
"454 1357 OFFCURVE",
"652 1357 CURVE SMOOTH"
);
}
);
width = 1304;
},
{
layerId = "24819F8C-2CC6-4723-AD58-E43FF506A0F9";
name = Bold;
paths = (
{
closed = 1;
nodes = (
"834 233 LINE",
"751 233 LINE",
"751 796 LINE",
"751 1359 LINE",
"834 1359 LINE",
"917 1359 LINE",
"917 796 LINE",
"917 233 LINE"
);
},
{
closed = 1;
nodes = (
"837 -39 CURVE SMOOTH",
"1149 -39 OFFCURVE",
"1481 -25 OFFCURVE",
"1481 352 CURVE SMOOTH",
"1481 1242 LINE SMOOTH",
"1481 1603 OFFCURVE",
"1154 1633 OFFCURVE",
"836 1633 CURVE SMOOTH",
"527 1633 OFFCURVE",
"187 1610 OFFCURVE",
"187 1242 CURVE SMOOTH",
"187 352 LINE SMOOTH",
"187 -14 OFFCURVE",
"520 -39 OFFCURVE"
);
}
);
width = 1674;
}
);
unicode = 0030;
},
{
glyphname = one;
lastChange = "2014-01-01 23:19:49 -0800";
layers = (
{
layerId = "4D3A9D47-CC41-4843-AE67-D0D92AD22A81";
name = Regular;
paths = (
{
closed = 1;
nodes = (
"342 1490 LINE",
"303 1394 OFFCURVE",
"227 1348 OFFCURVE",
"125 1344 CURVE",
"125 1252 LINE",
"310 1252 LINE",
"310 0 LINE",
"497 0 LINE",
"497 1490 LINE"
);
}
);
width = 658;
},
{
layerId = "24819F8C-2CC6-4723-AD58-E43FF506A0F9";
name = Bold;
paths = (
{
closed = 1;
nodes = (
"377 0 LINE",
"981 0 LINE",
"981 1595 LINE",
"503 1595 LINE",
"415 1542 OFFCURVE",
"293 1511 OFFCURVE",
"156 1511 CURVE",
"156 1291 LINE",
"377 1291 LINE"
);
}
);
width = 1254;
}
);
unicode = 0031;
},
{
glyphname = two;
lastChange = "2014-01-01 23:19:49 -0800";
layers = (
{
layerId = "4D3A9D47-CC41-4843-AE67-D0D92AD22A81";
name = Regular;
paths = (
{
closed = 1;
nodes = (
"314 1506 OFFCURVE",
"159 1423 OFFCURVE",
"159 1187 CURVE SMOOTH",
"159 1178 OFFCURVE",
"159 1169 OFFCURVE",
"160 1160 CURVE",
"308 1125 LINE",
"317 1232 OFFCURVE",
"321 1293 OFFCURVE",
"365 1327 CURVE SMOOTH",
"410 1361 OFFCURVE",
"497 1368 OFFCURVE",
"599 1368 CURVE SMOOTH",
"717 1368 OFFCURVE",
"782 1349 OFFCURVE",
"813 1305 CURVE SMOOTH",
"844 1261 OFFCURVE",
"859 1193 OFFCURVE",
"859 1098 CURVE SMOOTH",
"859 812 OFFCURVE",
"756 791 OFFCURVE",
"498 633 CURVE SMOOTH",
"334 532 OFFCURVE",
"148 428 OFFCURVE",
"146 131 CURVE SMOOTH",
"145 9 LINE",
"1008 9 LINE",
"1008 146 LINE",
"326 146 LINE",
"326 356 OFFCURVE",
"388 394 OFFCURVE",
"581 513 CURVE SMOOTH",
"810 655 OFFCURVE",
"1026 746 OFFCURVE",
"1026 1098 CURVE SMOOTH",
"1026 1423 OFFCURVE",
"895 1506 OFFCURVE",
"584 1506 CURVE SMOOTH"
);
}
);
width = 1176;
},
{
layerId = "24819F8C-2CC6-4723-AD58-E43FF506A0F9";
name = Bold;
paths = (
{
closed = 1;
nodes = (
"173 1 LINE",
"1372 1 LINE",
"1372 301 LINE",
"725 301 LINE",
"725 423 OFFCURVE",
"847 494 OFFCURVE",
"953 545 CURVE SMOOTH",
"1171 650 OFFCURVE",
"1444 776 OFFCURVE",
"1444 1125 CURVE SMOOTH",
"1444 1500 OFFCURVE",
"1234 1633 OFFCURVE",
"813 1633 CURVE SMOOTH",
"442 1633 OFFCURVE",
"171 1536 OFFCURVE",
"171 1124 CURVE SMOOTH",
"171 1106 OFFCURVE",
"172 1087 OFFCURVE",
"173 1064 CURVE",
"725 1064 LINE",
"725 1358 LINE",
"801 1358 LINE",
"877 1358 LINE",
"877 1086 LINE SMOOTH",
"877 989 OFFCURVE",
"762 936 OFFCURVE",
"668 890 CURVE",
"384 758 OFFCURVE",
"173 599 OFFCURVE",
"173 201 CURVE SMOOTH"
);
}
);
width = 1613;
}
);
unicode = 0032;
userData = {
com.typemytype.robofont.layerData = {
};
};
},
{
glyphname = three;
lastChange = "2014-01-01 23:19:49 -0800";
layers = (
{
layerId = "4D3A9D47-CC41-4843-AE67-D0D92AD22A81";
name = Regular;
paths = (
{
closed = 1;
nodes = (
"226 1506 OFFCURVE",
"162 1425 OFFCURVE",
"162 1202 CURVE SMOOTH",
"162 1155 LINE",
"316 1144 LINE",
"316 1265 OFFCURVE",
"319 1307 OFFCURVE",
"335 1324 CURVE SMOOTH",
"370 1360 OFFCURVE",
"460 1368 OFFCURVE",
"599 1368 CURVE SMOOTH",
"863 1368 OFFCURVE",
"878 1321 OFFCURVE",
"878 1139 CURVE SMOOTH",
"878 932 OFFCURVE",
"874 840 OFFCURVE",
"821 840 CURVE SMOOTH",
"492 840 LINE",
"500 698 LINE",
"828 696 LINE SMOOTH",
"874 696 OFFCURVE",
"885 641 OFFCURVE",
"885 419 CURVE SMOOTH",
"885 180 OFFCURVE",
"877 122 OFFCURVE",
"591 122 CURVE SMOOTH",
"446 122 OFFCURVE",
"365 128 OFFCURVE",
"331 172 CURVE SMOOTH",
"304 207 OFFCURVE",
"305 257 OFFCURVE",
"305 351 CURVE",
"145 336 LINE",
"144 265 LINE SMOOTH",
"141 34 OFFCURVE",
"299 -16 OFFCURVE",
"567 -16 CURVE SMOOTH",
"888 -16 OFFCURVE",
"1067 63 OFFCURVE",
"1067 420 CURVE SMOOTH",
"1067 728 OFFCURVE",
"940 761 OFFCURVE",
"896 769 CURVE",
"931 777 OFFCURVE",
"1058 793 OFFCURVE",
"1058 1134 CURVE SMOOTH",
"1058 1394 OFFCURVE",
"921 1506 OFFCURVE",
"611 1506 CURVE SMOOTH"
);
}
);
width = 1217;
},
{
layerId = "24819F8C-2CC6-4723-AD58-E43FF506A0F9";
name = Bold;
paths = (
{
closed = 1;
nodes = (
"816 -39 CURVE SMOOTH",
"1211 -39 OFFCURVE",
"1466 79 OFFCURVE",
"1466 522 CURVE SMOOTH",
"1466 661 OFFCURVE",
"1399 770 OFFCURVE",
"1263 820 CURVE",
"1384 869 OFFCURVE",
"1464 965 OFFCURVE",
"1464 1113 CURVE SMOOTH",
"1464 1506 OFFCURVE",
"1247 1632 OFFCURVE",
"814 1632 CURVE SMOOTH",
"393 1632 OFFCURVE",
"172 1503 OFFCURVE",
"172 1108 CURVE SMOOTH",
"172 1081 OFFCURVE",
"173 1053 OFFCURVE",
"175 1024 CURVE",
"727 1024 LINE",
"727 1361 LINE",
"813 1361 LINE",
"899 1361 LINE",
"899 931 LINE",
"640 931 LINE",
"640 707 LINE",
"899 707 LINE",
"899 235 LINE",
"813 235 LINE",
"727 235 LINE",
"727 613 LINE",
"175 613 LINE",
"172 580 OFFCURVE",
"171 548 OFFCURVE",
"171 517 CURVE SMOOTH",
"171 142 OFFCURVE",
"370 -39 OFFCURVE"
);
}
);
width = 1644;
}
);
unicode = 0033;
userData = {
com.typemytype.robofont.layerData = {
};
};
},
{
glyphname = four;
lastChange = "2014-01-01 23:19:52 -0800";
layers = (
{
layerId = "4D3A9D47-CC41-4843-AE67-D0D92AD22A81";
name = Regular;
paths = (
{
closed = 1;
nodes = (
"614 1490 LINE",
"123 539 LINE",
"123 389 LINE",
"775 389 LINE",
"775 0 LINE",
"960 0 LINE",
"960 1017 LINE",
"775 1017 LINE",
"775 521 LINE",
"316 521 LINE",
"413 713 LINE",
"809 1490 LINE"
);
}
);
width = 1204;
},
{
layerId = "24819F8C-2CC6-4723-AD58-E43FF506A0F9";
name = Bold;
paths = (
{
closed = 1;
nodes = (
"418 1595 LINE",
"164 657 LINE",
"164 240 LINE",
"956 240 LINE",
"956 0 LINE",
"1468 0 LINE",
"1468 938 LINE",
"956 938 LINE",
"956 603 LINE",
"740 603 LINE",
"740 657 LINE",
"991 1595 LINE"
);
}
);
width = 1667;
}
);
unicode = 0034;
userData = {
com.typemytype.robofont.layerData = {
};
};
},
{
glyphname = five;
lastChange = "2014-01-01 23:19:49 -0800";
layers = (
{
layerId = "4D3A9D47-CC41-4843-AE67-D0D92AD22A81";
name = Regular;
paths = (
{
closed = 1;
nodes = (
"170 1490 LINE",
"170 662 LINE",
"344 649 LINE",
"370 794 OFFCURVE",
"470 800 OFFCURVE",
"619 800 CURVE SMOOTH",
"913 800 OFFCURVE",
"919 758 OFFCURVE",
"919 526 CURVE SMOOTH",
"919 474 OFFCURVE",
"922 425 OFFCURVE",
"922 381 CURVE SMOOTH",
"922 231 OFFCURVE",
"888 133 OFFCURVE",
"595 133 CURVE SMOOTH",
"344 133 OFFCURVE",
"326 167 OFFCURVE",
"308 375 CURVE",
"157 354 LINE",
"157 331 OFFCURVE",
"155 310 OFFCURVE",
"155 289 CURVE SMOOTH",
"155 21 OFFCURVE",
"335 -16 OFFCURVE",
"594 -16 CURVE SMOOTH",
"976 -16 OFFCURVE",
"1099 63 OFFCURVE",
"1099 460 CURVE SMOOTH",
"1099 808 OFFCURVE",
"1036 951 OFFCURVE",
"659 951 CURVE SMOOTH",
"431 951 OFFCURVE",
"378 867 OFFCURVE",
"335 761 CURVE",
"367 1336 LINE",
"1012 1336 LINE",
"1012 1490 LINE"
);
}
);
width = 1244;
},
{
layerId = "24819F8C-2CC6-4723-AD58-E43FF506A0F9";
name = Bold;
paths = (
{
closed = 1;
nodes = (
"819 -39 CURVE SMOOTH",
"1292 -39 OFFCURVE",
"1469 87 OFFCURVE",
"1469 553 CURVE SMOOTH",
"1469 881 OFFCURVE",
"1386 1105 OFFCURVE",
"1060 1105 CURVE SMOOTH",
"901 1105 OFFCURVE",
"777 1077 OFFCURVE",
"709 998 CURVE",
"743 1299 LINE",
"1334 1299 LINE",
"1334 1596 LINE",
"241 1596 LINE",
"188 655 LINE",
"721 655 LINE",
"721 838 LINE",
"902 838 LINE",
"902 236 LINE",
"721 236 LINE",
"721 474 LINE",
"171 474 LINE",
"171 424 OFFCURVE",
"174 376 OFFCURVE",
"180 331 CURVE SMOOTH",
"218 30 OFFCURVE",
"474 -39 OFFCURVE"
);
}
);
width = 1644;
}
);
unicode = 0035;
},
{
glyphname = six;
lastChange = "2014-01-01 23:19:49 -0800";
layers = (
{
layerId = "4D3A9D47-CC41-4843-AE67-D0D92AD22A81";
name = Regular;
paths = (
{
closed = 1;
nodes = (
"167 1500 OFFCURVE",
"152 1286 OFFCURVE",
"152 761 CURVE SMOOTH",
"152 655 LINE SMOOTH",
"152 110 OFFCURVE",
"195 -16 OFFCURVE",
"685 -16 CURVE SMOOTH",
"1067 -16 OFFCURVE",
"1156 95 OFFCURVE",
"1156 488 CURVE SMOOTH",
"1156 880 OFFCURVE",
"1035 948 OFFCURVE",
"675 948 CURVE SMOOTH",
"484 948 OFFCURVE",
"396 882 OFFCURVE",
"341 782 CURVE",
"342 1147 LINE SMOOTH",
"342 1313 OFFCURVE",
"434 1364 OFFCURVE",
"672 1364 CURVE SMOOTH",
"790 1364 OFFCURVE",
"849 1360 OFFCURVE",
"879 1332 CURVE SMOOTH",
"909 1303 OFFCURVE",
"910 1250 OFFCURVE",
"910 1152 CURVE",
"1070 1173 LINE",
"1075 1223 OFFCURVE",
"1078 1256 OFFCURVE",
"1078 1272 CURVE SMOOTH",
"1078 1479 OFFCURVE",
"900 1500 OFFCURVE",
"662 1500 CURVE SMOOTH"
);
},
{
closed = 1;
nodes = (
"971 794 OFFCURVE",
"975 749 OFFCURVE",
"975 530 CURVE SMOOTH",
"975 333 LINE SMOOTH",
"975 177 OFFCURVE",
"962 121 OFFCURVE",
"666 121 CURVE SMOOTH",
"372 121 OFFCURVE",
"342 201 OFFCURVE",
"340 370 CURVE SMOOTH",
"338 524 LINE SMOOTH",
"336 705 OFFCURVE",
"348 794 OFFCURVE",
"667 794 CURVE SMOOTH"
);
}
);
width = 1301;
},
{
layerId = "24819F8C-2CC6-4723-AD58-E43FF506A0F9";
name = Bold;
paths = (
{
closed = 1;
nodes = (
"812 -39 CURVE",
"1274 -36 OFFCURVE",
"1476 62 OFFCURVE",
"1476 523 CURVE SMOOTH",
"1476 941 OFFCURVE",
"1317 1068 OFFCURVE",
"855 1068 CURVE SMOOTH",
"731 1068 LINE",
"731 1369 LINE",
"812.5 1369 LINE",
"894 1369 LINE",
"894 1158 LINE",
"1425 1158 LINE",
"1425 1183 OFFCURVE",
"1423 1208 OFFCURVE",
"1423 1237 CURVE SMOOTH",
"1423 1608 OFFCURVE",
"1130 1632 OFFCURVE",
"811 1632 CURVE SMOOTH",
"356 1632 OFFCURVE",
"179 1496 OFFCURVE",
"179 1056 CURVE SMOOTH",
"179 476 LINE SMOOTH",
"179 93 OFFCURVE",
"376 -39 OFFCURVE"
);
},
{
closed = 1;
nodes = (
"820 236 LINE",
"730 236 LINE",
"730 798 LINE",
"820 798 LINE",
"910 798 LINE",
"910 236 LINE"
);
}
);
width = 1644;
}
);
unicode = 0036;
userData = {
com.typemytype.robofont.layerData = {
};
};
},
{
glyphname = seven;
lastChange = "2014-01-01 23:19:49 -0800";
layers = (
{
layerId = "4D3A9D47-CC41-4843-AE67-D0D92AD22A81";
name = Regular;
paths = (
{
closed = 1;
nodes = (
"118 1490 LINE",
"118 1338 LINE",
"693 1338 LINE",
"522 905 OFFCURVE",
"365 455 OFFCURVE",
"231 0 CURVE",
"415 0 LINE",
"540 457 OFFCURVE",
"700 901 OFFCURVE",
"862 1320 CURVE",
"862 1490 LINE"
);
}
);
width = 981;
},
{
layerId = "24819F8C-2CC6-4723-AD58-E43FF506A0F9";
name = Bold;
paths = (
{
closed = 1;
nodes = (
"243 0 LINE",
"847 0 LINE",
"1073 1351 LINE",
"1073 1595 LINE",
"171 1595 LINE",
"171 1354 LINE",
"465 1354 LINE"
);
}
);
width = 1277;
}
);
unicode = 0037;
},
{
glyphname = eight;
lastChange = "2014-01-01 23:19:49 -0800";
layers = (
{
layerId = "4D3A9D47-CC41-4843-AE67-D0D92AD22A81";
name = Regular;
paths = (
{
closed = 1;
nodes = (
"347 1506 OFFCURVE",
"217 1419 OFFCURVE",
"217 1132 CURVE SMOOTH",
"217 962 OFFCURVE",
"250 854 OFFCURVE",
"326 798 CURVE",
"215 722 OFFCURVE",
"144 620 OFFCURVE",
"144 383 CURVE SMOOTH",
"144 53 OFFCURVE",
"282 -16 OFFCURVE",
"635 -16 CURVE SMOOTH",
"987 -16 OFFCURVE",
"1124 54 OFFCURVE",
"1124 383 CURVE SMOOTH",
"1124 620 OFFCURVE",
"1053 722 OFFCURVE",
"942 798 CURVE",
"1018 854 OFFCURVE",
"1051 962 OFFCURVE",
"1051 1132 CURVE SMOOTH",
"1051 1419 OFFCURVE",
"921 1506 OFFCURVE",
"634 1506 CURVE SMOOTH"
);
},
{
closed = 1;
nodes = (
"872 711 OFFCURVE",
"945 708 OFFCURVE",
"945 493 CURVE SMOOTH",
"945 428 OFFCURVE",
"948 372 OFFCURVE",
"948 320 CURVE SMOOTH",
"948 198 OFFCURVE",
"912 127 OFFCURVE",
"634 127 CURVE SMOOTH",
"356 127 OFFCURVE",
"320 198 OFFCURVE",
"320 320 CURVE SMOOTH",
"320 372 OFFCURVE",
"323 428 OFFCURVE",
"323 493 CURVE SMOOTH",
"323 709 OFFCURVE",
"396 711 OFFCURVE",
"635 711 CURVE SMOOTH"
);
},
{
closed = 1;
nodes = (
"871 1358 OFFCURVE",
"882 1336 OFFCURVE",
"882 1141 CURVE SMOOTH",
"882 1012 OFFCURVE",
"868 895 OFFCURVE",
"805 855 CURVE",
"463 855 LINE",
"400 895 OFFCURVE",
"386 1012 OFFCURVE",
"386 1141 CURVE SMOOTH",
"386 1337 OFFCURVE",
"397 1358 OFFCURVE",
"635 1358 CURVE SMOOTH"
);
}
);
width = 1267;
},
{
layerId = "24819F8C-2CC6-4723-AD58-E43FF506A0F9";
name = Bold;
paths = (
{
closed = 1;
nodes = (
"813 -40 CURVE SMOOTH",
"1192 -40 OFFCURVE",
"1460 34 OFFCURVE",
"1460 470 CURVE SMOOTH",
"1460 671 OFFCURVE",
"1397 830 OFFCURVE",
"1241 864 CURVE",
"1357 898 OFFCURVE",
"1402 1022 OFFCURVE",
"1402 1180 CURVE SMOOTH",
"1402 1528 OFFCURVE",
"1163 1631 OFFCURVE",
"811 1631 CURVE SMOOTH",
"458 1631 OFFCURVE",
"211 1529 OFFCURVE",
"211 1181 CURVE SMOOTH",
"211 1035 OFFCURVE",
"241 900 OFFCURVE",
"343 864 CURVE",
"180 818 OFFCURVE",
"156 608 OFFCURVE",
"156 470 CURVE SMOOTH",
"156 75 OFFCURVE",
"379 -40 OFFCURVE"
);
},
{
closed = 1;
nodes = (
"803 235 LINE",
"720 235 LINE",
"720 720 LINE",
"803 720 LINE",
"886 720 LINE",
"886 235 LINE"
);
},
{
closed = 1;
nodes = (
"732 960 LINE",
"732 1355 LINE",
"809 1355 LINE",
"886 1355 LINE",
"886 960 LINE"
);
}
);
width = 1628;
}
);
unicode = 0038;
},
{
glyphname = nine;
lastChange = "2014-01-01 23:19:49 -0800";
layers = (
{
layerId = "4D3A9D47-CC41-4843-AE67-D0D92AD22A81";
name = Regular;
paths = (
{
closed = 1;
nodes = (
"241 1503 OFFCURVE",
"152 1392 OFFCURVE",
"152 999 CURVE SMOOTH",
"152 607 OFFCURVE",
"286 539 OFFCURVE",
"646 539 CURVE SMOOTH",
"837 539 OFFCURVE",
"912 575 OFFCURVE",
"967 645 CURVE",
"966 340 LINE SMOOTH",
"965 174 OFFCURVE",
"874 123 OFFCURVE",
"636 123 CURVE SMOOTH",
"518 123 OFFCURVE",
"459 127 OFFCURVE",
"429 155 CURVE SMOOTH",
"399 184 OFFCURVE",
"398 237 OFFCURVE",
"398 335 CURVE",
"238 314 LINE",
"233 264 OFFCURVE",
"230 231 OFFCURVE",
"230 215 CURVE SMOOTH",
"230 8 OFFCURVE",
"408 -13 OFFCURVE",
"646 -13 CURVE SMOOTH",
"1141 -13 OFFCURVE",
"1156 201 OFFCURVE",
"1156 726 CURVE SMOOTH",
"1156 832 LINE SMOOTH",
"1156 1377 OFFCURVE",
"1113 1503 OFFCURVE",
"623 1503 CURVE SMOOTH"
);
},
{
closed = 1;
nodes = (
"936 1366 OFFCURVE",
"966 1286 OFFCURVE",
"968 1117 CURVE SMOOTH",
"970 963 LINE SMOOTH",
"972 782 OFFCURVE",
"960 693 OFFCURVE",
"641 693 CURVE SMOOTH",
"337 693 OFFCURVE",
"333 738 OFFCURVE",
"333 957 CURVE SMOOTH",
"333 1154 LINE SMOOTH",
"333 1310 OFFCURVE",
"346 1366 OFFCURVE",
"642 1366 CURVE SMOOTH"
);
}
);
width = 1295;
},
{
layerId = "24819F8C-2CC6-4723-AD58-E43FF506A0F9";
name = Bold;
paths = (
{
closed = 1;
nodes = (
"818 1629 CURVE SMOOTH",
"421 1629 OFFCURVE",
"164 1551 OFFCURVE",
"164 1071 CURVE SMOOTH",
"164 688 OFFCURVE",
"274 508 OFFCURVE",
"672 508 CURVE SMOOTH",
"899 508 LINE",
"899 225 LINE",
"820 225 LINE",
"741 225 LINE",
"741 424 LINE",
"210 424 LINE",
"210 394 OFFCURVE",
"210 362 OFFCURVE",
"211 328 CURVE SMOOTH",
"220 0 OFFCURVE",
"526 -40 OFFCURVE",
"829 -40 CURVE SMOOTH",
"1257 -40 OFFCURVE",
"1461 84 OFFCURVE",
"1461 520 CURVE SMOOTH",
"1461 1116 LINE SMOOTH",
"1461 1508 OFFCURVE",
"1306 1629 OFFCURVE"
);
},
{
closed = 1;
nodes = (
"809.5 1358 LINE",
"895 1358 LINE",
"895 779 LINE",
"809.5 779 LINE",
"724 779 LINE",
"724 1358 LINE"
);
}
);
width = 1651;
}
);
unicode = 0039;
userData = {
com.typemytype.robofont.layerData = {
};
};
},
{
glyphname = colon;
lastChange = "2014-01-01 23:19:49 -0800";
layers = (
{
layerId = "4D3A9D47-CC41-4843-AE67-D0D92AD22A81";
name = Regular;
paths = (
{
closed = 1;
nodes = (
"216 1232 OFFCURVE",
"147 1182 OFFCURVE",
"147 1079 CURVE SMOOTH",
"147 977 OFFCURVE",
"218 925 OFFCURVE",
"288 925 CURVE SMOOTH",
"358 925 OFFCURVE",
"427 976 OFFCURVE",
"427 1079 CURVE SMOOTH",
"427 1180 OFFCURVE",
"356 1232 OFFCURVE",
"286 1232 CURVE SMOOTH"
);
},
{
closed = 1;
nodes = (
"216 441 OFFCURVE",
"147 391 OFFCURVE",
"147 288 CURVE SMOOTH",
"147 186 OFFCURVE",
"216 136 OFFCURVE",
"286 136 CURVE SMOOTH",
"356 136 OFFCURVE",
"427 187 OFFCURVE",
"427 288 CURVE SMOOTH",
"427 389 OFFCURVE",
"356 441 OFFCURVE",
"285 441 CURVE SMOOTH"
);
}
);
width = 572;
},
{
layerId = "24819F8C-2CC6-4723-AD58-E43FF506A0F9";
name = Bold;
paths = (
{
closed = 1;
nodes = (
"484 113 CURVE SMOOTH",
"586 113 OFFCURVE",
"688 183 OFFCURVE",
"688 323 CURVE SMOOTH",
"688 463 OFFCURVE",
"586 533 OFFCURVE",
"484 533 CURVE SMOOTH",
"382 533 OFFCURVE",
"280 463 OFFCURVE",
"280 323 CURVE SMOOTH",
"280 183 OFFCURVE",
"382 113 OFFCURVE"
);
},
{
closed = 1;
nodes = (
"484 923 CURVE SMOOTH",
"586 923 OFFCURVE",
"688 993 OFFCURVE",
"688 1133 CURVE SMOOTH",
"688 1273 OFFCURVE",
"586 1343 OFFCURVE",
"484 1343 CURVE SMOOTH",
"382 1343 OFFCURVE",
"280 1273 OFFCURVE",
"280 1133 CURVE SMOOTH",
"280 993 OFFCURVE",
"382 923 OFFCURVE"
);
}
);
width = 981;
}
);
unicode = 003A;
},
{
glyphname = semicolon;
lastChange = "2014-01-01 23:19:49 -0800";
layers = (
{
layerId = "4D3A9D47-CC41-4843-AE67-D0D92AD22A81";
name = Regular;
paths = (
{
closed = 1;
nodes = (
"222 439 OFFCURVE",
"167 369 OFFCURVE",
"167 285 CURVE SMOOTH",
"167 199 OFFCURVE",
"229 130 OFFCURVE",
"312 130 CURVE",
"312 41 OFFCURVE",
"228 -29 OFFCURVE",
"140 -29 CURVE",
"140 -97 LINE",
"151 -100 OFFCURVE",
"170 -101 OFFCURVE",
"199 -101 CURVE SMOOTH",
"338 -101 OFFCURVE",
"456 90 OFFCURVE",
"456 260 CURVE SMOOTH",
"456 354 OFFCURVE",
"401 439 OFFCURVE",
"314 439 CURVE SMOOTH"
);
},
{
closed = 1;
nodes = (
"223 1233 OFFCURVE",
"172 1165 OFFCURVE",
"172 1079 CURVE SMOOTH",
"172 995 OFFCURVE",
"228 925 OFFCURVE",
"312 925 CURVE SMOOTH",
"400 925 OFFCURVE",
"452 991 OFFCURVE",
"452 1079 CURVE SMOOTH",
"452 1163 OFFCURVE",
"394 1233 OFFCURVE",
"312 1233 CURVE SMOOTH"
);
}
);
width = 601;
},
{
layerId = "24819F8C-2CC6-4723-AD58-E43FF506A0F9";
name = Bold;
paths = (
{
closed = 1;
nodes = (
"376 -120 CURVE SMOOTH",
"597 -120 OFFCURVE",
"723 99 OFFCURVE",
"723 283 CURVE SMOOTH",
"723 412 OFFCURVE",
"657 523 OFFCURVE",
"513 523 CURVE SMOOTH",
"411 523 OFFCURVE",
"309 456 OFFCURVE",
"309 323 CURVE SMOOTH",
"309 194 OFFCURVE",
"395 124 OFFCURVE",
"488 114 CURVE",
"482 37 OFFCURVE",
"412 -7 OFFCURVE",
"332 -8 CURVE",
"332 -117 LINE",
"347 -119 OFFCURVE",
"362 -120 OFFCURVE"
);
},
{
closed = 1;
nodes = (
"513 923 CURVE SMOOTH",
"615 923 OFFCURVE",
"717 993 OFFCURVE",
"717 1133 CURVE SMOOTH",
"717 1273 OFFCURVE",
"615 1343 OFFCURVE",
"513 1343 CURVE SMOOTH",
"411 1343 OFFCURVE",
"309 1273 OFFCURVE",
"309 1133 CURVE SMOOTH",
"309 993 OFFCURVE",
"411 923 OFFCURVE"
);
}
);
width = 1040;
}
);
unicode = 003B;
},
{
glyphname = less;
lastChange = "2014-01-01 23:19:49 -0800";
layers = (
{
layerId = "4D3A9D47-CC41-4843-AE67-D0D92AD22A81";
name = Regular;
paths = (
{
closed = 1;
nodes = (
"127 832 LINE",
"127 667 LINE",
"823 234 LINE",
"823 462 LINE",
"304 758 LINE",
"823 1045 LINE",
"823 1281 LINE"
);
}
);
width = 974;
},
{
layerId = "24819F8C-2CC6-4723-AD58-E43FF506A0F9";
name = Bold;
paths = (
{
closed = 1;
nodes = (
"1116 0 LINE",
"1116 504 LINE",
"515 727 LINE",
"1116 942 LINE",
"1116 1447 LINE",
"240 1028 LINE",
"240 419 LINE"
);
}
);
width = 1376;
}
);
unicode = 003C;
},
{
glyphname = equal;
lastChange = "2014-01-01 23:19:49 -0800";
layers = (
{
layerId = "4D3A9D47-CC41-4843-AE67-D0D92AD22A81";
name = Regular;
paths = (
{
closed = 1;
nodes = (
"144 881 LINE",
"144 692 LINE",
"979 692 LINE",
"979 881 LINE"
);
},
{
closed = 1;
nodes = (
"144 503 LINE",
"144 314 LINE",
"979 314 LINE",
"979 503 LINE"
);
}
);
width = 1124;
},
{
layerId = "24819F8C-2CC6-4723-AD58-E43FF506A0F9";
name = Bold;
paths = (
{
closed = 1;
nodes = (
"234 0 LINE",
"1128 0 LINE",
"1128 336 LINE",
"234 336 LINE"
);
},
{
closed = 1;
nodes = (
"234 561 LINE",
"1128 561 LINE",
"1128 897 LINE",
"234 897 LINE"
);
}
);
width = 1310;
}
);
unicode = 003D;
},
{
glyphname = greater;
lastChange = "2014-01-01 23:19:49 -0800";
layers = (
{
layerId = "4D3A9D47-CC41-4843-AE67-D0D92AD22A81";
name = Regular;
paths = (
{
closed = 1;
nodes = (
"152 1045 LINE",
"672 757 LINE",
"152 461 LINE",
"152 234 LINE",
"850 667 LINE",
"850 832 LINE",
"152 1281 LINE"
);
}
);
width = 977;
},
{
layerId = "24819F8C-2CC6-4723-AD58-E43FF506A0F9";
name = Bold;
paths = (
{
closed = 1;
nodes = (
"270 0 LINE",
"1146 419 LINE",
"1146 1028 LINE",
"270 1447 LINE",
"270 942 LINE",
"871 727 LINE",
"270 504 LINE"
);
}
);
width = 1376;
}
);
unicode = 003E;
},
{
glyphname = question;
lastChange = "2014-01-01 23:19:49 -0800";
layers = (
{
layerId = "4D3A9D47-CC41-4843-AE67-D0D92AD22A81";
name = Regular;
paths = (
{
closed = 1;
nodes = (
"302 1522 OFFCURVE",
"220 1500 OFFCURVE",
"126 1457 CURVE",
"147 1293 LINE",
"260 1321 OFFCURVE",
"327 1333 OFFCURVE",
"374 1333 CURVE SMOOTH",
"493 1333 OFFCURVE",
"554 1259 OFFCURVE",
"554 1149 CURVE SMOOTH",
"554 1054 OFFCURVE",
"529 1003 OFFCURVE",
"471 926 CURVE SMOOTH",
"360 778 OFFCURVE",
"304 679 OFFCURVE",
"304 483 CURVE",
"407 483 LINE",
"415 593 OFFCURVE",
"476 697 OFFCURVE",
"581 803 CURVE SMOOTH",
"695 918 OFFCURVE",
"751 1030 OFFCURVE",
"751 1161 CURVE SMOOTH",
"751 1395 OFFCURVE",
"621 1522 OFFCURVE",
"381 1522 CURVE SMOOTH"
);
},
{
closed = 1;
nodes = (
"274 264 OFFCURVE",
"206 216 OFFCURVE",
"206 117 CURVE SMOOTH",
"206 20 OFFCURVE",
"278 -31 OFFCURVE",
"349 -31 CURVE SMOOTH",
"419 -31 OFFCURVE",
"487 17 OFFCURVE",
"487 117 CURVE SMOOTH",
"487 213 OFFCURVE",
"414 264 OFFCURVE",
"343 264 CURVE SMOOTH"
);
}
);
width = 883;
},
{
layerId = "24819F8C-2CC6-4723-AD58-E43FF506A0F9";
name = Bold;
paths = (
{
closed = 1;
nodes = (
"503 510 CURVE SMOOTH",
"530 510 OFFCURVE",
"560 524 OFFCURVE",
"565 567 CURVE SMOOTH",
"605 912 OFFCURVE",
"1021 1009 OFFCURVE",
"1021 1313 CURVE SMOOTH",
"1021 1473 OFFCURVE",
"923 1632 OFFCURVE",
"588 1632 CURVE SMOOTH",
"492 1632 OFFCURVE",
"370 1611 OFFCURVE",
"217 1562 CURVE",
"253 1215 LINE",
"336 1250 OFFCURVE",
"399 1264 OFFCURVE",
"447 1264 CURVE SMOOTH",
"550 1264 OFFCURVE",
"589 1212 OFFCURVE",
"589 1150 CURVE SMOOTH",
"589 1141 OFFCURVE",
"588 1132 OFFCURVE",
"587 1123 CURVE SMOOTH",
"560 979 OFFCURVE",
"442 814 OFFCURVE",
"442 582 CURVE SMOOTH",
"442 536 OFFCURVE",
"462 510 OFFCURVE"
);
},
{
closed = 1;
nodes = (
"505 -39 CURVE SMOOTH",
"607 -39 OFFCURVE",
"709 31 OFFCURVE",
"709 171 CURVE SMOOTH",
"709 311 OFFCURVE",
"607 381 OFFCURVE",
"505 381 CURVE SMOOTH",
"403 381 OFFCURVE",
"301 311 OFFCURVE",
"301 171 CURVE SMOOTH",
"301 31 OFFCURVE",
"403 -39 OFFCURVE"
);
}
);
width = 1261;
}
);
unicode = 003F;
},
{
glyphname = at;
lastChange = "2014-01-01 23:19:49 -0800";
layers = (
{
layerId = "4D3A9D47-CC41-4843-AE67-D0D92AD22A81";
name = Regular;
paths = (
{
closed = 1;
nodes = (
"400 1623 OFFCURVE",
"163 1317 OFFCURVE",
"163 627 CURVE SMOOTH",
"163 -84 OFFCURVE",
"413 -332 OFFCURVE",
"1038 -332 CURVE SMOOTH",
"1287 -332 OFFCURVE",
"1461 -294 OFFCURVE",
"1641 -218 CURVE",
"1600 -93 LINE",
"1400 -172 OFFCURVE",
"1161 -196 OFFCURVE",
"1038 -196 CURVE SMOOTH",
"476 -196 OFFCURVE",
"321 72 OFFCURVE",
"321 659 CURVE SMOOTH",
"321 1233 OFFCURVE",
"496 1484 OFFCURVE",
"1059 1484 CURVE SMOOTH",
"1642 1484 OFFCURVE",
"1731 1254 OFFCURVE",
"1731 670 CURVE SMOOTH",
"1731 313 OFFCURVE",
"1729 279 OFFCURVE",
"1665 231 CURVE",
"1626 204 OFFCURVE",
"1558 203 OFFCURVE",
"1460 203 CURVE",
"1460 944 LINE SMOOTH",
"1460 1153 OFFCURVE",
"1338 1254 OFFCURVE",
"1088 1254 CURVE SMOOTH",
"826 1254 OFFCURVE",
"670 1229 OFFCURVE",
"670 1014 CURVE SMOOTH",
"670 983 OFFCURVE",
"673 950 OFFCURVE",
"680 915 CURVE",
"812 915 LINE",
"810 939 OFFCURVE",
"809 965 OFFCURVE",
"809 992 CURVE SMOOTH",
"809 1093 OFFCURVE",
"867 1117 OFFCURVE",
"931 1117 CURVE SMOOTH",
"1140 1117 LINE SMOOTH",
"1242 1117 OFFCURVE",
"1295 1099 OFFCURVE",
"1295 959 CURVE SMOOTH",
"1295 717 LINE",
"1136 746 OFFCURVE",
"1004 760 OFFCURVE",
"898 760 CURVE SMOOTH",
"678 760 OFFCURVE",
"607 650 OFFCURVE",
"607 410 CURVE SMOOTH",
"607 146 OFFCURVE",
"723 73 OFFCURVE",
"974 73 CURVE SMOOTH",
"1212 73 OFFCURVE",
"1314 154 OFFCURVE",
"1350 258 CURVE",
"1366 167 OFFCURVE",
"1425 99 OFFCURVE",
"1516 99 CURVE SMOOTH",
"1860 99 OFFCURVE",
"1887 255 OFFCURVE",
"1887 662 CURVE SMOOTH",
"1887 1369 OFFCURVE",
"1725 1623 OFFCURVE",
"1040 1623 CURVE SMOOTH"
);
},
{
closed = 1;
nodes = (
"966 637 OFFCURVE",
"1014 636 OFFCURVE",
"1295 636 CURVE",
"1294 554 OFFCURVE",
"1305 446 OFFCURVE",
"1305 376 CURVE SMOOTH",
"1305 251 OFFCURVE",
"1262 188 OFFCURVE",
"1025 188 CURVE SMOOTH",
"784 188 OFFCURVE",
"756 236 OFFCURVE",
"756 366 CURVE SMOOTH",
"756 601 OFFCURVE",
"760 637 OFFCURVE",
"928 637 CURVE SMOOTH"
);
}
);
width = 2050;
},
{
layerId = "24819F8C-2CC6-4723-AD58-E43FF506A0F9";
name = Bold;
paths = (
{
closed = 1;
nodes = (
"1322 -393 CURVE SMOOTH",
"1528 -393 OFFCURVE",
"1712 -320 OFFCURVE",
"1844 -233 CURVE",
"1786 22 LINE",
"1525 -40 OFFCURVE",
"1404 -58 OFFCURVE",
"1304 -58 CURVE SMOOTH",
"671 -58 OFFCURVE",
"510 59 OFFCURVE",
"510 692 CURVE SMOOTH",
"510 1204 OFFCURVE",
"647 1424 OFFCURVE",
"1234 1424 CURVE SMOOTH",
"1669 1424 OFFCURVE",
"1859 1339 OFFCURVE",
"1859 832 CURVE SMOOTH",
"1859 330 LINE",
"1774 330 LINE",
"1689 330 LINE",
"1689 837 LINE SMOOTH",
"1689 1146 OFFCURVE",
"1578 1248 OFFCURVE",
"1220 1248 CURVE SMOOTH",
"940 1248 OFFCURVE",
"745 1204 OFFCURVE",
"745 956 CURVE SMOOTH",
"745 933 OFFCURVE",
"746 910 OFFCURVE",
"746 887 CURVE",
"1198 887 LINE",
"1198 1022 LINE",
"1227.5 1022 LINE",
"1257 1022 LINE",
"1257 788 LINE",
"1204 822 OFFCURVE",
"1131 836 OFFCURVE",
"1032 836 CURVE SMOOTH",
"747.294 836 OFFCURVE",
"688.333 605 OFFCURVE",
"695 405 CURVE SMOOTH",
"702 199 OFFCURVE",
"815 113 OFFCURVE",
"1032 113 CURVE SMOOTH",
"1151 113 OFFCURVE",
"1231 173 OFFCURVE",
"1284 239 CURVE",
"1345 139 OFFCURVE",
"1470 91 OFFCURVE",
"1635 88 CURVE",
"2128 88 OFFCURVE",
"2215 409 OFFCURVE",
"2215 878 CURVE SMOOTH",
"2215 1508 OFFCURVE",
"1922 1741 OFFCURVE",
"1230 1741 CURVE SMOOTH",
"522 1741 OFFCURVE",
"156 1495 OFFCURVE",
"156 687 CURVE SMOOTH",
"156 -177 OFFCURVE",
"507 -393 OFFCURVE"
);
},
{
closed = 1;
nodes = (
"1209.5 336 LINE",
"1163 336 LINE",
"1163 641 LINE",
"1256 641 LINE",
"1256 336 LINE"
);
}
);
width = 2347;
}
);
unicode = 0040;
},
{
glyphname = A;
lastChange = "2014-01-01 23:40:52 -0800";
layers = (
{
anchors = (
{
name = bot;
position = "{691, 0}";
},
{
name = ogonek;
position = "{1181, 0}";
},
{
name = top;
position = "{691, 1490}";
}
);
layerId = "4D3A9D47-CC41-4843-AE67-D0D92AD22A81";
name = Regular;
paths = (
{
closed = 1;
nodes = (
"561 1490 LINE",
"98 0 LINE",
"293 0 LINE",
"406 381 LINE",
"963 381 LINE",
"1080 0 LINE",
"1286 0 LINE",
"832 1490 LINE"
);
},
{
closed = 1;
nodes = (
"921 525 LINE",
"449 525 LINE",
"686 1342 LINE",
"687 1347 LINE"
);
}
);
width = 1382;
},
{
anchors = (
{
name = bot;
position = "{838, 0}";
},
{
name = ogonek;
position = "{1258, 0}";
},
{
name = top;
position = "{838, 1595}";
}
);
layerId = "24819F8C-2CC6-4723-AD58-E43FF506A0F9";
name = Bold;
paths = (
{
closed = 1;
nodes = (
"382 1595 LINE",
"90 0 LINE",
"676 0 LINE",
"731 366 LINE",
"945 366 LINE",
"999 0 LINE",
"1586 0 LINE",
"1289 1595 LINE"
);
},
{
closed = 1;
nodes = (
"927 576 LINE",
"749 576 LINE",
"826 1283 LINE",
"845 1283 LINE"
);
}
);
width = 1676;
}
);
leftKerningGroup = A_Right;
rightKerningGroup = A_Left;
unicode = 0041;
userData = {
com.typemytype.robofont.layerData = {
};
};
},
{
glyphname = B;
lastChange = "2014-01-01 23:42:00 -0800";
layers = (
{
anchors = (
{
name = top;
position = "{702, 1490}";
}
);
layerId = "4D3A9D47-CC41-4843-AE67-D0D92AD22A81";
name = Regular;
paths = (
{
closed = 1;
nodes = (
"192 1490 LINE",
"192 0 LINE",
"726 0 LINE SMOOTH",
"1158 0 OFFCURVE",
"1242 25 OFFCURVE",
"1242 429 CURVE SMOOTH",
"1242 624 OFFCURVE",
"1211 779 OFFCURVE",
"977 803 CURVE",
"984 804 OFFCURVE",
"990 805 OFFCURVE",
"996 807 CURVE",
"1159 838 OFFCURVE",
"1189 898 OFFCURVE",
"1189 1104 CURVE",
"1188 1212 LINE SMOOTH",
"1186 1442 OFFCURVE",
"1041 1490 OFFCURVE",
"758 1490 CURVE SMOOTH"
);
},
{
closed = 1;
nodes = (
"393 729 LINE",
"627 729 LINE SMOOTH",
"1057 729 OFFCURVE",
"1041 701 OFFCURVE",
"1044 477 CURVE SMOOTH",
"1046 344 LINE SMOOTH",
"1046 198 OFFCURVE",
"1003 151 OFFCURVE",
"775 151 CURVE SMOOTH",
"393 151 LINE"
);
},
{
closed = 1;
nodes = (
"393 1338 LINE",
"662 1338 LINE SMOOTH",
"987 1338 OFFCURVE",
"991 1328 OFFCURVE",
"991 1159 CURVE SMOOTH",
"991 989 LINE SMOOTH",
"991 905 OFFCURVE",
"950 860 OFFCURVE",
"594 860 CURVE SMOOTH",
"393 860 LINE"
);
}
);
width = 1372;
},
{
anchors = (
{
name = top;
position = "{844, 1595}";
}
);
layerId = "24819F8C-2CC6-4723-AD58-E43FF506A0F9";
name = Bold;
paths = (
{
closed = 1;
nodes = (
"179 1595 LINE",
"179 0 LINE",
"1022 0 LINE SMOOTH",
"1411 0 OFFCURVE",
"1565 91 OFFCURVE",
"1565 460 CURVE SMOOTH",
"1565 647 OFFCURVE",
"1495 824 OFFCURVE",
"1185 860 CURVE",
"1185 873 LINE",
"1450 901 OFFCURVE",
"1524 1019 OFFCURVE",
"1524 1219 CURVE SMOOTH",
"1524 1244 LINE",
"1512 1553 OFFCURVE",
"1279 1595 OFFCURVE",
"1026 1595 CURVE SMOOTH"
);
},
{
closed = 1;
nodes = (
"783 770 LINE",
"863 770 LINE",
"956 770 LINE",
"956 235 LINE",
"863 235 LINE",
"783 235 LINE"
);
},
{
closed = 1;
nodes = (
"783 1358 LINE",
"867 1358 LINE",
"956 1358 LINE",
"956 951 LINE",
"867 951 LINE",
"783 951 LINE"
);
}
);
width = 1672;
}
);
rightKerningGroup = B_Left;
unicode = 0042;
userData = {
com.typemytype.robofont.layerData = {
};
};
},
{
glyphname = C;
lastChange = "2014-01-01 23:42:08 -0800";
layers = (
{
anchors = (
{
name = bot;
position = "{729, 0}";
},
{
name = top;
position = "{729, 1490}";
}
);
layerId = "4D3A9D47-CC41-4843-AE67-D0D92AD22A81";
name = Regular;
paths = (
{
closed = 1;
nodes = (
"297 1513 OFFCURVE",
"180 1438 OFFCURVE",
"152 1068 CURVE SMOOTH",
"146 979 OFFCURVE",
"144 874 OFFCURVE",
"144 748 CURVE SMOOTH",
"144 627.004 OFFCURVE",
"145 523 OFFCURVE",
"153 435 CURVE SMOOTH",
"182 91 OFFCURVE",
"301 -24 OFFCURVE",
"772 -24 CURVE SMOOTH",
"1099 -24 OFFCURVE",
"1214 48 OFFCURVE",
"1249 331 CURVE SMOOTH",
"1253 363 OFFCURVE",
"1256 398 OFFCURVE",
"1258 436 CURVE",
"1084 462 LINE",
"1074 335 OFFCURVE",
"1074 252 OFFCURVE",
"1034 201 CURVE SMOOTH",
"995 150 OFFCURVE",
"915 130 OFFCURVE",
"743 130 CURVE SMOOTH",
"444 130 OFFCURVE",
"363 184 OFFCURVE",
"356 289 CURVE SMOOTH",
"348 411 OFFCURVE",
"347 536 OFFCURVE",
"347 664 CURVE SMOOTH",
"347 847 OFFCURVE",
"348 1027 OFFCURVE",
"356 1203 CURVE SMOOTH",
"363 1347 OFFCURVE",
"490 1360 OFFCURVE",
"742 1360 CURVE SMOOTH",
"881 1360 OFFCURVE",
"958 1359 OFFCURVE",
"1004 1319 CURVE SMOOTH",
"1051 1279 OFFCURVE",
"1067 1200 OFFCURVE",
"1082 1044 CURVE",
"1257 1078 LINE",
"1255 1105 OFFCURVE",
"1252 1130 OFFCURVE",
"1249 1154 CURVE SMOOTH",
"1209 1454 OFFCURVE",
"1073 1513 OFFCURVE",
"754 1513 CURVE SMOOTH"
);
}
);
width = 1357;
},
{
anchors = (
{
name = bot;
position = "{851, 0}";
},
{
name = bottom;
position = "{851, 0}";
},
{
name = top;
position = "{851, 1595}";
}
);
layerId = "24819F8C-2CC6-4723-AD58-E43FF506A0F9";
name = Bold;
paths = (
{
closed = 1;
nodes = (
"564 1636 OFFCURVE",
"171 1598 OFFCURVE",
"171 1226 CURVE SMOOTH",
"171 798 LINE",
"171 370 LINE SMOOTH",
"171 -9 OFFCURVE",
"592 -40 OFFCURVE",
"867 -40 CURVE SMOOTH",
"1171 -40 OFFCURVE",
"1553 -6 OFFCURVE",
"1553 369 CURVE SMOOTH",
"1553 614 LINE",
"949 614 LINE",
"949 233 LINE",
"862.5 233 LINE",
"776 233 LINE",
"776 794.5 LINE",
"776 1356 LINE",
"862.5 1356 LINE",
"949 1356 LINE",
"949 979 LINE",
"1553 979 LINE",
"1553 1227 LINE SMOOTH",
"1553 1606 OFFCURVE",
"1179 1636 OFFCURVE",
"864 1636 CURVE SMOOTH"
);
}
);
width = 1706;
}
);
leftKerningGroup = O_Right;
unicode = 0043;
userData = {
com.typemytype.robofont.layerData = {
};
};
},
{
glyphname = D;
lastChange = "2014-01-01 23:42:33 -0800";
layers = (
{
anchors = (
{
name = bot;
position = "{737, 0}";
},
{
name = mid;
position = "{336, 767}";
},
{
name = top;
position = "{737, 1490}";
}
);
layerId = "4D3A9D47-CC41-4843-AE67-D0D92AD22A81";
name = Regular;
paths = (
{
closed = 1;
nodes = (
"192 1490 LINE",
"192 0 LINE",
"554 0 LINE SMOOTH",
"1203 0 OFFCURVE",
"1289 25 OFFCURVE",
"1298 687 CURVE",
"1299 855 LINE",
"1299 1350 OFFCURVE",
"1194 1490 OFFCURVE",
"708 1490 CURVE SMOOTH"
);
},
{
closed = 1;
nodes = (
"1098 1336 OFFCURVE",
"1098 1259 OFFCURVE",
"1098 873 CURVE SMOOTH",
"1098 620 LINE SMOOTH",
"1098 168 OFFCURVE",
"1029 153 OFFCURVE",
"635 153 CURVE SMOOTH",
"395 153 LINE",
"395 1336 LINE",
"605 1336 LINE SMOOTH"
);
}
);
width = 1434;
},
{
anchors = (
{
name = bot;
position = "{864, 0}";
},
{
name = mid;
position = "{486, 805}";
},
{
name = top;
position = "{864, 1595}";
}
);
layerId = "24819F8C-2CC6-4723-AD58-E43FF506A0F9";
name = Bold;
paths = (
{
closed = 1;
nodes = (
"179 1595 LINE",
"179 0 LINE",
"935 0 LINE SMOOTH",
"1246 0 OFFCURVE",
"1561 26 OFFCURVE",
"1561 393 CURVE SMOOTH",
"1561 1204 LINE SMOOTH",
"1561 1559 OFFCURVE",
"1251 1595 OFFCURVE",
"935 1595 CURVE SMOOTH"
);
},
{
closed = 1;
nodes = (
"957 948.821 LINE",
"957 539.641 LINE",
"957 235 LINE",
"784 235 LINE",
"784 1358 LINE",
"957 1358 LINE"
);
}
);
width = 1732;
}
);
leftKerningGroup = H_Right;
rightKerningGroup = O_Left;
unicode = 0044;
userData = {
com.typemytype.robofont.layerData = {
};
};
},
{
glyphname = E;
lastChange = "2014-01-01 23:42:51 -0800";
layers = (
{
anchors = (
{
name = bot;
position = "{587, 0}";
},
{
name = bottom;
position = "{589, 0}";
},
{
name = ogonek;
position = "{662, 0}";
},
{
name = top;
position = "{587, 1490}";
}
);
layerId = "4D3A9D47-CC41-4843-AE67-D0D92AD22A81";
name = Regular;
paths = (
{
closed = 1;
nodes = (
"192 1490 LINE",
"192 0 LINE",
"1036 0 LINE",
"1056 153 LINE",
"395 153 LINE",
"395 695 LINE",
"952 695 LINE",
"952 857 LINE",
"395 857 LINE",
"395 1336 LINE",
"1047 1336 LINE",
"1027 1490 LINE"
);
}
);
width = 1142;
},
{
anchors = (
{
name = bot;
position = "{635, 0}";
},
{
name = bottom;
position = "{635, 0}";
},
{
name = ogonek;
position = "{683, 0}";
},
{
name = top;
position = "{635, 1595}";
}
);
layerId = "24819F8C-2CC6-4723-AD58-E43FF506A0F9";
name = Bold;
paths = (
{
closed = 1;
nodes = (
"179 1595 LINE",
"179 0 LINE",
"1124 0 LINE",
"1124 251 LINE",
"783 251 LINE",
"783 711 LINE",
"1101 711 LINE",
"1101 961 LINE",
"783 961 LINE",
"783 1346 LINE",
"1136 1346 LINE",
"1124 1595 LINE"
);
}
);
width = 1274;
}
);
leftKerningGroup = H_Right;
unicode = 0045;
userData = {
com.typemytype.robofont.layerData = {
};
};
},
{
glyphname = F;
lastChange = "2014-01-01 23:42:57 -0800";
layers = (
{
anchors = (
{
name = bot;
position = "{548, 0}";
},
{
name = top;
position = "{598, 1490}";
}
);
layerId = "4D3A9D47-CC41-4843-AE67-D0D92AD22A81";
name = Regular;
paths = (
{
closed = 1;
nodes = (
"192 1490 LINE",
"192 0 LINE",
"395 0 LINE",
"395 688 LINE",
"919 688 LINE",
"919 850 LINE",
"395 850 LINE",
"395 1336 LINE",
"1010 1336 LINE",
"990 1490 LINE"
);
}
);
width = 1065;
},
{
anchors = (
{
name = bot;
position = "{627, 0}";
},
{
name = top;
position = "{627, 1595}";
}
);
layerId = "24819F8C-2CC6-4723-AD58-E43FF506A0F9";
name = Bold;
paths = (
{
closed = 1;
nodes = (
"179 1595 LINE",
"179 0 LINE",
"783 0 LINE",
"783 705 LINE",
"1101 705 LINE",
"1101 954 LINE",
"783 954 LINE",
"783 1346 LINE",
"1134 1346 LINE",
"1124 1595 LINE"
);
}
);
width = 1234;
}
);
leftKerningGroup = H_Right;
unicode = 0046;
userData = {
com.typemytype.robofont.layerData = {
};
};
},
{
glyphname = G;
lastChange = "2014-01-01 23:42:59 -0800";
layers = (
{
anchors = (
{
name = bot;
position = "{689, 0}";
},
{
name = bottom;
position = "{677, 0}";
},
{
name = top;
position = "{689, 1490}";
}
);
layerId = "4D3A9D47-CC41-4843-AE67-D0D92AD22A81";
name = Regular;
paths = (
{
closed = 1;
nodes = (
"364 1513 OFFCURVE",
"227 1440 OFFCURVE",
"175 1211 CURVE SMOOTH",
"149 1097 OFFCURVE",
"144 945 OFFCURVE",
"144 744 CURVE SMOOTH",
"144 557 OFFCURVE",
"147 414 OFFCURVE",
"164 303 CURVE SMOOTH",
"205 50 OFFCURVE",
"325 -24 OFFCURVE",
"673 -24 CURVE SMOOTH",
"960 -24 OFFCURVE",
"1156 22 OFFCURVE",
"1248 106 CURVE",
"1248 745 LINE",
"733 745 LINE",
"750 594 LINE",
"1063 594 LINE",
"1063 176 LINE",
"1038 145 OFFCURVE",
"909 130 OFFCURVE",
"684 130 CURVE SMOOTH",
"362 130 OFFCURVE",
"365 167 OFFCURVE",
"357 352 CURVE SMOOTH",
"351 488 OFFCURVE",
"348 628 OFFCURVE",
"348 772 CURVE SMOOTH",
"348 914 OFFCURVE",
"348 1055 OFFCURVE",
"357 1192 CURVE SMOOTH",
"365 1319 OFFCURVE",
"422 1360 OFFCURVE",
"690 1360 CURVE SMOOTH",
"939 1360 OFFCURVE",
"1029 1348 OFFCURVE",
"1032 1259 CURVE SMOOTH",
"1043 1062 LINE",
"1222 1096 LINE",
"1223 1112 OFFCURVE",
"1224 1129 OFFCURVE",
"1224 1146 CURVE SMOOTH",
"1224 1506 OFFCURVE",
"989 1513 OFFCURVE",
"718 1513 CURVE SMOOTH"
);
}
);
width = 1378;
},
{
anchors = (
{
name = bot;
position = "{861, 0}";
},
{
name = bottom;
position = "{861, 0}";
},
{
name = top;
position = "{861, 1595}";
}
);
layerId = "24819F8C-2CC6-4723-AD58-E43FF506A0F9";
name = Bold;
paths = (
{
closed = 1;
nodes = (
"560 1637 OFFCURVE",
"171 1602 OFFCURVE",
"171 1228 CURVE SMOOTH",
"171 794 LINE",
"171 359 LINE SMOOTH",
"171 7.53125 OFFCURVE",
"394.057 -29 OFFCURVE",
"911 -29 CURVE SMOOTH",
"1073 -29 OFFCURVE",
"1433 -4 OFFCURVE",
"1553 100 CURVE",
"1553 769 LINE",
"913 769 LINE",
"913 600 LINE",
"1061 600 LINE",
"1061 235 LINE",
"918 235 LINE",
"775 235 LINE",
"775 797 LINE",
"775 1358 LINE",
"862 1358 LINE",
"948 1358 LINE",
"948 979 LINE",
"1553 999 LINE",
"1553 1227 LINE SMOOTH",
"1553 1593 OFFCURVE",
"1127 1637 OFFCURVE",
"863 1637 CURVE SMOOTH"
);
}
);
width = 1699;
}
);
leftKerningGroup = O_Right;
unicode = 0047;
userData = {
com.typemytype.robofont.layerData = {
};
};
},
{
glyphname = H;
lastChange = "2014-01-01 23:43:12 -0800";
layers = (
{
anchors = (
{
name = bot;
position = "{728, 0}";
},
{
name = center;
position = "{733, 745}";
},
{
name = top;
position = "{728, 1490}";
}
);
layerId = "4D3A9D47-CC41-4843-AE67-D0D92AD22A81";
name = Regular;
paths = (
{
closed = 1;
nodes = (
"1061 1490 LINE",
"1061 842 LINE",
"395 842 LINE",
"395 1490 LINE",
"192 1490 LINE",
"192 0 LINE",
"395 0 LINE",
"395 684 LINE",
"1061 684 LINE",
"1061 0 LINE",
"1264 0 LINE",
"1264 1490 LINE"
);
}
);
width = 1456;
},
{
anchors = (
{
name = bot;
position = "{880, 0}";
},
{
name = center;
position = "{880, 798}";
},
{
name = top;
position = "{880, 1595}";
}
);
layerId = "24819F8C-2CC6-4723-AD58-E43FF506A0F9";
name = Bold;
paths = (
{
closed = 1;
nodes = (
"976 1595 LINE",
"976 908 LINE",
"783 908 LINE",
"783 1595 LINE",
"179 1595 LINE",
"179 0 LINE",
"783 0 LINE",
"783 688 LINE",
"976 688 LINE",
"976 0 LINE",
"1580 0 LINE",
"1580 1595 LINE"
);
}
);
width = 1766;
}
);
leftKerningGroup = H_Right;
rightKerningGroup = H_Left;
unicode = 0048;
userData = {
com.typemytype.robofont.layerData = {
};
};
},
{
glyphname = I;
lastChange = "2014-01-01 23:43:14 -0800";
layers = (
{
anchors = (
{
name = bot;
position = "{263, 0}";
},
{
name = ogonek;
position = "{269, 0}";
},
{
name = top;
position = "{263, 1490}";
}
);
layerId = "4D3A9D47-CC41-4843-AE67-D0D92AD22A81";
name = Regular;
paths = (
{
closed = 1;
nodes = (
"161 1490 LINE",
"161 0 LINE",
"364 0 LINE",
"364 1490 LINE"
);
}
);
width = 525;
},
{
anchors = (
{
name = bot;
position = "{488, 0}";
},
{
name = ogonek;
position = "{500, 0}";
},
{
name = top;
position = "{488, 1595}";
}
);
layerId = "24819F8C-2CC6-4723-AD58-E43FF506A0F9";
name = Bold;
paths = (
{
closed = 1;
nodes = (
"186 1595 LINE",
"186 0 LINE",
"790 0 LINE",
"790 1595 LINE"
);
}
);
width = 976;
}
);
unicode = 0049;
userData = {
com.typemytype.robofont.layerData = {
};
};
},
{
glyphname = J;
lastChange = "2014-01-01 23:43:16 -0800";
layers = (
{
anchors = (
{
name = bot;
position = "{379, 0}";
},
{
name = top;
position = "{496, 1490}";
}
);
layerId = "4D3A9D47-CC41-4843-AE67-D0D92AD22A81";
name = Regular;
paths = (
{
closed = 1;
nodes = (
"396 1490 LINE",
"396 337 LINE SMOOTH",
"396 204 OFFCURVE",
"366 146 OFFCURVE",
"226 146 CURVE SMOOTH",
"179 146 OFFCURVE",
"120 153 OFFCURVE",
"46 165 CURVE",
"32 14 LINE",
"127 -5 OFFCURVE",
"209 -16 OFFCURVE",
"279 -16 CURVE SMOOTH",
"502 -16 OFFCURVE",
"599 98 OFFCURVE",
"599 432 CURVE SMOOTH",
"599 1490 LINE"
);
}
);
width = 757;
},
{
anchors = (
{
name = bot;
position = "{546, 0}";
},
{
name = top;
position = "{609, 1595}";
}
);
layerId = "24819F8C-2CC6-4723-AD58-E43FF506A0F9";
name = Bold;
paths = (
{
closed = 1;
nodes = (
"311 1594 LINE",
"311 259.576 LINE",
"311 138 LINE",
"138 138 LINE",
"138 -134 LINE",
"226 -150 OFFCURVE",
"313 -159 OFFCURVE",
"394 -159 CURVE SMOOTH",
"688 -159 OFFCURVE",
"915 -44 OFFCURVE",
"915 274 CURVE SMOOTH",
"915 1594 LINE"
);
}
);
width = 1101;
}
);
unicode = 004A;
userData = {
com.typemytype.robofont.layerData = {
};
};
},
{
glyphname = K;
lastChange = "2014-01-01 23:43:18 -0800";
layers = (
{
anchors = (
{
name = bot;
position = "{641, 0}";
},
{
name = bottom;
position = "{646, 0}";
},
{
name = top;
position = "{641, 1490}";
}
);
layerId = "4D3A9D47-CC41-4843-AE67-D0D92AD22A81";
name = Regular;
paths = (
{
closed = 1;
nodes = (
"973 1490 LINE",
"508 901 LINE",
"393 754 LINE",
"394 935 LINE",
"394 1490 LINE",
"192 1490 LINE",
"192 0 LINE",
"394 0 LINE",
"394 591 LINE",
"472 684 LINE",
"1035 0 LINE",
"1280 0 LINE",
"640 780 LINE",
"1214 1490 LINE"
);
}
);
width = 1284;
},
{
anchors = (
{
name = bot;
position = "{898, 0}";
},
{
name = bottom;
position = "{898, 0}";
},
{
name = top;
position = "{898, 1595}";
}
);
layerId = "24819F8C-2CC6-4723-AD58-E43FF506A0F9";
name = Bold;
paths = (
{
closed = 1;
nodes = (
"1054 1595 LINE",
"822.765 994.572 LINE",
"759 829 LINE",
"761 1013 LINE",
"761 1595 LINE",
"156 1595 LINE",
"156 0 LINE",
"761 0 LINE",
"761 564 LINE",
"820 695 LINE",
"1072 0 LINE",
"1721 0 LINE",
"1348 840 LINE",
"1673 1595 LINE"
);
}
);
width = 1774;
}
);
leftKerningGroup = H_Right;
unicode = 004B;
userData = {
com.typemytype.robofont.layerData = {
};
};
},
{
glyphname = L;
lastChange = "2014-01-01 23:43:20 -0800";
layers = (
{
anchors = (
{
name = bot;
position = "{548, 0}";
},
{
name = bottom;
position = "{531, 0}";
},
{
name = caron.alt;
position = "{345, 1098}";
},
{
name = top;
position = "{309, 1490}";
}
);
layerId = "4D3A9D47-CC41-4843-AE67-D0D92AD22A81";
name = Regular;
paths = (
{
closed = 1;
nodes = (
"192 1490 LINE",
"192 0 LINE",
"949 0 LINE",
"969 153 LINE",
"395 153 LINE",
"395 1490 LINE"
);
}
);
width = 1011;
},
{
anchors = (
{
name = bot;
position = "{623, 0}";
},
{
name = bottom;
position = "{623, 0}";
},
{
name = caron.alt;
position = "{557, 1300}";
},
{
name = mid;
position = "{512, 857}";
},
{
name = top;
position = "{623, 1595}";
}
);
layerId = "24819F8C-2CC6-4723-AD58-E43FF506A0F9";
name = Bold;
paths = (
{
closed = 1;
nodes = (
"179 1595 LINE",
"179 0 LINE",
"1124 0 LINE",
"1124 241 LINE",
"783 241 LINE",
"783 1595 LINE"
);
}
);
width = 1248;
}
);
leftKerningGroup = H_Right;
unicode = 004C;
userData = {
com.typemytype.robofont.layerData = {
};
};
},
{
glyphname = M;
lastChange = "2014-01-01 23:43:21 -0800";
layers = (
{
anchors = (
{
name = bot;
position = "{886, 0}";
},
{
name = top;
position = "{886, 1490}";
}
);
layerId = "4D3A9D47-CC41-4843-AE67-D0D92AD22A81";
name = Regular;
paths = (
{
closed = 1;
nodes = (
"1310 1499 LINE",
"889 329 LINE",
"887 329 LINE",
"458 1499 LINE",
"238 1499 LINE",
"140 0 LINE",
"327 0 LINE",
"395 1190 LINE",
"397 1190 LINE",
"829 0 LINE",
"945 0 LINE",
"1355 1190 LINE",
"1360 1190 LINE",
"1431 0 LINE",
"1629 0 LINE",
"1530 1499 LINE"
);
}
);
width = 1769;
},
{
anchors = (
{
name = bot;
position = "{1006, 0}";
},
{
name = top;
position = "{1006, 1595}";
}
);
layerId = "24819F8C-2CC6-4723-AD58-E43FF506A0F9";
name = Bold;
paths = (
{
closed = 1;
nodes = (
"1139 1595 LINE",
"1012 671 LINE",
"999 671 LINE",
"872 1595 LINE",
"202 1595 LINE",
"118 0 LINE",
"579 0 LINE",
"635 958 LINE",
"649 958 LINE",
"794 -1 LINE",
"1221 -1 LINE",
"1378 958 LINE",
"1392 958 LINE",
"1448 0 LINE",
"1894 0 LINE",
"1810 1595 LINE"
);
}
);
width = 2026;
}
);
leftKerningGroup = H_Right;
rightKerningGroup = H_Left;
unicode = 004D;
userData = {
com.typemytype.robofont.guides = (
{
angle = 0;
isGlobal = 0;
magnetic = 5;
x = 396;
y = 1190;
}
);
com.typemytype.robofont.layerData = {
};
};
},
{
glyphname = N;
lastChange = "2014-01-01 23:43:23 -0800";
layers = (
{
anchors = (
{
name = bot;
position = "{742, 0}";
},
{
name = bottom;
position = "{747, 0}";
},
{
name = top;
position = "{762, 1490}";
}
);
layerId = "4D3A9D47-CC41-4843-AE67-D0D92AD22A81";
name = Regular;
paths = (
{
closed = 1;
nodes = (
"1113 1490 LINE",
"1113 297 LINE",
"397 1490 LINE",
"192 1490 LINE",
"192 0 LINE",
"370 0 LINE",
"370 1177 LINE",
"1080 0 LINE",
"1291 0 LINE",
"1291 1490 LINE"
);
}
);
width = 1483;
},
{
anchors = (
{
name = bot;
position = "{875, 0}";
},
{
name = bottom;
position = "{875, 0}";
},
{
name = top;
position = "{875, 1595}";
}
);
layerId = "24819F8C-2CC6-4723-AD58-E43FF506A0F9";
name = Bold;
paths = (
{
closed = 1;
nodes = (
"1127 1595 LINE",
"1127 834 LINE",
"696 1595 LINE",
"179 1595 LINE",
"179 0 LINE",
"627 0 LINE",
"627 711 LINE",
"1032 0 LINE",
"1571 0 LINE",
"1571 1595 LINE"
);
}
);
width = 1758;
}
);
leftKerningGroup = H_Right;
rightKerningGroup = H_Left;
unicode = 004E;
userData = {
com.typemytype.robofont.layerData = {
};
};
},
{
glyphname = O;
lastChange = "2014-01-01 23:43:25 -0800";
layers = (
{
anchors = (
{
name = bot;
position = "{722, 0}";
},
{
name = ogonek;
position = "{819, 0}";
},
{
name = top;
position = "{722, 1490}";
}
);
layerId = "4D3A9D47-CC41-4843-AE67-D0D92AD22A81";
name = Regular;
paths = (
{
closed = 1;
nodes = (
"223 1514 OFFCURVE",
"144 1367 OFFCURVE",
"144 812 CURVE SMOOTH",
"144 673 LINE SMOOTH",
"144 118 OFFCURVE",
"223 -29 OFFCURVE",
"722 -29 CURVE SMOOTH",
"1221 -29 OFFCURVE",
"1300 118 OFFCURVE",
"1300 673 CURVE SMOOTH",
"1300 812 LINE SMOOTH",
"1300 1367 OFFCURVE",
"1221 1514 OFFCURVE",
"722 1514 CURVE SMOOTH"
);
},
{
closed = 1;
nodes = (
"1056 1360 OFFCURVE",
"1087 1313 OFFCURVE",
"1093 1097 CURVE SMOOTH",
"1096 1006 OFFCURVE",
"1096 914 OFFCURVE",
"1096 743 CURVE SMOOTH",
"1096 571 OFFCURVE",
"1096 479 OFFCURVE",
"1093 388 CURVE SMOOTH",
"1087 172 OFFCURVE",
"1056 125 OFFCURVE",
"722 125 CURVE SMOOTH",
"388 125 OFFCURVE",
"357 172 OFFCURVE",
"351 388 CURVE SMOOTH",
"348 479 OFFCURVE",
"348 571 OFFCURVE",
"348 743 CURVE SMOOTH",
"348 914 OFFCURVE",
"348 1006 OFFCURVE",
"351 1097 CURVE SMOOTH",
"357 1313 OFFCURVE",
"388 1360 OFFCURVE",
"722 1360 CURVE SMOOTH"
);
}
);
width = 1444;
},
{
anchors = (
{
name = bot;
position = "{862, 0}";
},
{
name = ogonek;
position = "{991, 0}";
},
{
name = top;
position = "{862, 1595}";
}
);
layerId = "24819F8C-2CC6-4723-AD58-E43FF506A0F9";
name = Bold;
paths = (
{
closed = 1;
nodes = (
"558 1635 OFFCURVE",
"171 1598 OFFCURVE",
"171 1226 CURVE SMOOTH",
"171 370 LINE SMOOTH",
"171 -11 OFFCURVE",
"539 -39 OFFCURVE",
"859 -39 CURVE",
"1161 -38 OFFCURVE",
"1553 -9 OFFCURVE",
"1553 370 CURVE SMOOTH",
"1553 1226 LINE SMOOTH",
"1553 1603 OFFCURVE",
"1131 1635 OFFCURVE",
"859 1635 CURVE SMOOTH"
);
},
{
closed = 1;
nodes = (
"949 798.5 LINE",
"949 235 LINE",
"862.5 235 LINE",
"776 235 LINE",
"776 798.5 LINE",
"776 1362 LINE",
"862.5 1362 LINE",
"949 1362 LINE"
);
}
);
width = 1724;
}
);
leftKerningGroup = O_Right;
rightKerningGroup = O_Left;
unicode = 004F;
userData = {
com.typemytype.robofont.layerData = {
};
};
},
{
glyphname = P;
lastChange = "2014-01-01 23:43:30 -0800";
layers = (
{
anchors = (
{
name = bot;
position = "{658, 0}";
},
{
name = top;
position = "{658, 1490}";
}
);
layerId = "4D3A9D47-CC41-4843-AE67-D0D92AD22A81";
name = Regular;
paths = (
{
closed = 1;
nodes = (
"192 1490 LINE",
"192 0 LINE",
"394 0 LINE",
"394 521 LINE",
"791 521 LINE SMOOTH",
"1036 521 OFFCURVE",
"1191 573 OFFCURVE",
"1198 978 CURVE SMOOTH",
"1198 1004 LINE SMOOTH",
"1198 1414 OFFCURVE",
"1085 1490 OFFCURVE",
"732 1490 CURVE SMOOTH"
);
},
{
closed = 1;
nodes = (
"970 1340 OFFCURVE",
"991 1281 OFFCURVE",
"996 1015 CURVE SMOOTH",
"996 777 OFFCURVE",
"998 672 OFFCURVE",
"747 672 CURVE SMOOTH",
"394 672 LINE",
"394 1340 LINE",
"788 1340 LINE SMOOTH"
);
}
);
width = 1304;
},
{
anchors = (
{
name = bot;
position = "{852, 0}";
},
{
name = top;
position = "{852, 1595}";
}
);
layerId = "24819F8C-2CC6-4723-AD58-E43FF506A0F9";
name = Bold;
paths = (
{
closed = 1;
nodes = (
"179 1595 LINE",
"179 0 LINE",
"783 0 LINE",
"783 402 LINE",
"935 402 LINE SMOOTH",
"1245 402 OFFCURVE",
"1560 428 OFFCURVE",
"1560 793 CURVE SMOOTH",
"1560 1204 LINE SMOOTH",
"1560 1559 OFFCURVE",
"1250 1595 OFFCURVE",
"934 1595 CURVE SMOOTH"
);
},
{
closed = 1;
nodes = (
"955 995 LINE",
"955 628 LINE",
"782 628 LINE",
"782 1362 LINE",
"955 1362 LINE"
);
}
);
width = 1681;
}
);
leftKerningGroup = H_Right;
rightKerningGroup = P_Left;
unicode = 0050;
userData = {
com.typemytype.robofont.layerData = {
};
};
},
{
glyphname = Q;
lastChange = "2014-01-01 23:44:24 -0800";
layers = (
{
components = (
{
name = O;
transform = "{1, 0, 0, 1, 0, 0}";
}
);
layerId = "4D3A9D47-CC41-4843-AE67-D0D92AD22A81";
name = Regular;
paths = (
{
closed = 1;
nodes = (
"846 31 LINE",
"1099 -358 LINE",
"1251 -271 LINE",
"1041 68 LINE"
);
}
);
width = 1444;
},
{
components = (
{
name = O;
transform = "{1, 0, 0, 1, 0, 0}";
}
);
layerId = "24819F8C-2CC6-4723-AD58-E43FF506A0F9";
name = Bold;
paths = (
{
closed = 1;
nodes = (
"703 84 LINE",
"1051 -429 LINE",
"1366 -252 LINE",
"1120 128 LINE"
);
}
);
width = 1724;
}
);
leftKerningGroup = O_Right;
rightKerningGroup = O_Left;
unicode = 0051;
userData = {
com.typemytype.robofont.layerData = {
};
};
},
{
glyphname = R;
lastChange = "2014-01-01 23:44:28 -0800";
layers = (
{
anchors = (
{
name = bot;
position = "{701, 0}";
},
{
name = bottom;
position = "{694, 0}";
},
{
name = top;
position = "{701, 1490}";
}
);
layerId = "4D3A9D47-CC41-4843-AE67-D0D92AD22A81";
name = Regular;
paths = (
{
closed = 1;
nodes = (
"192 1490 LINE",
"192 0 LINE",
"394 0 LINE",
"394 641 LINE",
"703 641 LINE SMOOTH",
"853 641 OFFCURVE",
"954 599 OFFCURVE",
"978 434 CURVE SMOOTH",
"1040 0 LINE",
"1257 0 LINE",
"1180 465 LINE SMOOTH",
"1156 602 OFFCURVE",
"1103 687 OFFCURVE",
"975 713 CURVE",
"1132 740 OFFCURVE",
"1225 819 OFFCURVE",
"1225 1090 CURVE SMOOTH",
"1225 1469 OFFCURVE",
"1035 1490 OFFCURVE",
"647 1490 CURVE SMOOTH"
);
},
{
closed = 1;
nodes = (
"1011 1337 OFFCURVE",
"1025 1293 OFFCURVE",
"1025 1084 CURVE SMOOTH",
"1025 857 OFFCURVE",
"996 800 OFFCURVE",
"743 800 CURVE SMOOTH",
"394 800 LINE",
"394 1337 LINE",
"731 1337 LINE SMOOTH"
);
}
);
width = 1381;
},
{
anchors = (
{
name = bot;
position = "{851, 0}";
},
{
name = bottom;
position = "{851, 0}";
},
{
name = top;
position = "{851, 1595}";
}
);
layerId = "24819F8C-2CC6-4723-AD58-E43FF506A0F9";
name = Bold;
paths = (
{
closed = 1;
nodes = (
"179 1595 LINE",
"179 0 LINE",
"783 0 LINE",
"783 649 LINE",
"956 649 LINE",
"956 557 LINE",
"956 0 LINE",
"1562 0 LINE",
"1562 437 LINE SMOOTH",
"1562 609 OFFCURVE",
"1469 754 OFFCURVE",
"1186 786 CURVE",
"1186 792 LINE",
"1483 821 OFFCURVE",
"1546 968 OFFCURVE",
"1546 1190 CURVE SMOOTH",
"1546 1502 OFFCURVE",
"1381 1595 OFFCURVE",
"1092 1595 CURVE SMOOTH"
);
},
{
closed = 1;
nodes = (
"956 1119.5 LINE",
"956 881 LINE",
"783 881 LINE",
"783 1358 LINE",
"956 1358 LINE"
);
}
);
width = 1728;
}
);
leftKerningGroup = H_Right;
rightKerningGroup = R_Left;
unicode = 0052;
userData = {
com.typemytype.robofont.layerData = {
};
};
},
{
glyphname = S;
lastChange = "2014-01-01 23:44:29 -0800";
layers = (
{
anchors = (
{
name = bot;
position = "{644, 0}";
},
{
name = bottom;
position = "{614, 0}";
},
{
name = top;
position = "{644, 1490}";
}
);
layerId = "4D3A9D47-CC41-4843-AE67-D0D92AD22A81";
name = Regular;
paths = (
{
closed = 1;
nodes = (
"264 1513 OFFCURVE",
"155 1442 OFFCURVE",
"155 1081 CURVE SMOOTH",
"155 853 OFFCURVE",
"216 763 OFFCURVE",
"390 733 CURVE SMOOTH",
"888 646 LINE SMOOTH",
"949 635 OFFCURVE",
"959 571 OFFCURVE",
"960 404 CURVE SMOOTH",
"960 182 OFFCURVE",
"928 140 OFFCURVE",
"646 140 CURVE SMOOTH",
"480 140 OFFCURVE",
"405 153 OFFCURVE",
"368 193 CURVE SMOOTH",
"332 233 OFFCURVE",
"334 300 OFFCURVE",
"321 410 CURVE",
"136 380 LINE",
"149 69 OFFCURVE",
"174 -24 OFFCURVE",
"642 -24 CURVE SMOOTH",
"1017 -24 OFFCURVE",
"1161 6 OFFCURVE",
"1161 437 CURVE SMOOTH",
"1161 783 OFFCURVE",
"1043 814 OFFCURVE",
"789 857 CURVE SMOOTH",
"431 918 LINE SMOOTH",
"366 929 OFFCURVE",
"349 974 OFFCURVE",
"349 1090 CURVE SMOOTH",
"349 1306 OFFCURVE",
"381 1344 OFFCURVE",
"668 1344 CURVE SMOOTH",
"811 1344 OFFCURVE",
"876 1335 OFFCURVE",
"908 1304 CURVE SMOOTH",
"941 1273 OFFCURVE",
"939 1219 OFFCURVE",
"947 1129 CURVE",
"1125 1170 LINE",
"1125 1469 OFFCURVE",
"986 1513 OFFCURVE",
"636 1513 CURVE SMOOTH"
);
}
);
width = 1302;
},
{
anchors = (
{
name = bot;
position = "{827, 0}";
},
{
name = bottom;
position = "{827, 0}";
},
{
name = top;
position = "{827, 1595}";
}
);
layerId = "24819F8C-2CC6-4723-AD58-E43FF506A0F9";
name = Bold;
paths = (
{
closed = 1;
nodes = (
"438 1635 OFFCURVE",
"156 1550 OFFCURVE",
"156 1111 CURVE SMOOTH",
"156 712 OFFCURVE",
"507 667 OFFCURVE",
"790 575 CURVE SMOOTH",
"839 559 OFFCURVE",
"908 538 OFFCURVE",
"908 485 CURVE SMOOTH",
"908 235 LINE",
"821.5 235 LINE",
"735 235 LINE",
"735 488 LINE",
"162 488 LINE",
"162 62 OFFCURVE",
"390 -39 OFFCURVE",
"836 -39 CURVE SMOOTH",
"1315 -39 OFFCURVE",
"1514 82 OFFCURVE",
"1514 542 CURVE SMOOTH",
"1514 954 OFFCURVE",
"1168 1011 OFFCURVE",
"858 1066 CURVE SMOOTH",
"813 1074 OFFCURVE",
"736 1083 OFFCURVE",
"736 1123 CURVE",
"736 1123 OFFCURVE",
"733 1358 OFFCURVE",
"733 1358 CURVE",
"819.5 1358 LINE",
"906 1358 LINE",
"906 1180 LINE",
"1442 1180 LINE",
"1441 1573 OFFCURVE",
"1190 1635 OFFCURVE",
"806 1635 CURVE SMOOTH"
);
}
);
width = 1674;
}
);
leftKerningGroup = S_Right;
rightKerningGroup = S_Left;
unicode = 0053;
userData = {
com.typemytype.robofont.layerData = {
};
};
},
{
glyphname = T;
lastChange = "2014-01-01 23:44:31 -0800";
layers = (
{
anchors = (
{
name = bot;
position = "{543, 0}";
},
{
name = center;
position = "{442, 745}";
},
{
name = mid;
position = "{541, 897}";
},
{
name = top;
position = "{543, 1490}";
}
);
layerId = "4D3A9D47-CC41-4843-AE67-D0D92AD22A81";
name = Regular;
paths = (
{
closed = 1;
nodes = (
"56 1490 LINE",
"56 1336 LINE",
"437 1336 LINE",
"437 0 LINE",
"640 0 LINE",
"640 1336 LINE",
"1029 1336 LINE",
"1029 1490 LINE"
);
}
);
width = 1085;
},
{
anchors = (
{
name = bot;
position = "{689, 0}";
},
{
name = bottom;
position = "{689, 0}";
},
{
name = mid;
position = "{689, 837}";
},
{
name = top;
position = "{689, 1595}";
}
);
layerId = "24819F8C-2CC6-4723-AD58-E43FF506A0F9";
name = Bold;
paths = (
{
closed = 1;
nodes = (
"32 1595 LINE",
"32 1326 LINE",
"385 1326 LINE",
"385 0 LINE",
"989 0 LINE",
"989 1326 LINE",
"1345 1326 LINE",
"1345 1595 LINE"
);
}
);
width = 1377;
}
);
leftKerningGroup = T_Right;
rightKerningGroup = T_Left;
unicode = 0054;
userData = {
com.typemytype.robofont.layerData = {
};
};
},
{
glyphname = U;
lastChange = "2014-01-01 23:44:32 -0800";
layers = (
{
anchors = (
{
name = bot;
position = "{709, 0}";
},
{
name = ogonek;
position = "{784, 0}";
},
{
name = top;
position = "{709, 1490}";
}
);
layerId = "4D3A9D47-CC41-4843-AE67-D0D92AD22A81";
name = Regular;
paths = (
{
closed = 1;
nodes = (
"1069 1490 LINE",
"1069 435 LINE SMOOTH",
"1069 188 OFFCURVE",
"1035 130 OFFCURVE",
"708 130 CURVE SMOOTH",
"350 130 OFFCURVE",
"349 177 OFFCURVE",
"349 531 CURVE SMOOTH",
"349 1490 LINE",
"146 1490 LINE",
"146 557 LINE SMOOTH",
"146 69 OFFCURVE",
"284 -24 OFFCURVE",
"707 -24 CURVE SMOOTH",
"1150 -24 OFFCURVE",
"1271 88 OFFCURVE",
"1271 557 CURVE SMOOTH",
"1271 1490 LINE"
);
}
);
width = 1417;
},
{
anchors = (
{
name = bot;
position = "{847, 0}";
},
{
name = ogonek;
position = "{968, 0}";
},
{
name = top;
position = "{847, 1595}";
}
);
layerId = "24819F8C-2CC6-4723-AD58-E43FF506A0F9";
name = Bold;
paths = (
{
closed = 1;
nodes = (
"156 1595 LINE",
"156 371 LINE SMOOTH",
"156 -7 OFFCURVE",
"568 -39 OFFCURVE",
"845 -39 CURVE SMOOTH",
"1147 -39 OFFCURVE",
"1538 -4 OFFCURVE",
"1538 370 CURVE SMOOTH",
"1538 1594 LINE",
"933 1594 LINE",
"933 234 LINE",
"846.5 234 LINE",
"760 234 LINE",
"760 1595 LINE"
);
}
);
width = 1694;
}
);
leftKerningGroup = U_Right;
rightKerningGroup = U_Left;
unicode = 0055;
userData = {
com.typemytype.robofont.layerData = {
};
};
},
{
glyphname = V;
lastChange = "2014-01-01 23:44:34 -0800";
layers = (
{
layerId = "4D3A9D47-CC41-4843-AE67-D0D92AD22A81";
name = Regular;
paths = (
{
closed = 1;
nodes = (
"1049 1490 LINE",
"657 261 LINE",
"656 261 LINE",
"257 1490 LINE",
"42 1490 LINE",
"547 0 LINE",
"757 0 LINE",
"1269 1490 LINE"
);
}
);
width = 1317;
},
{
layerId = "24819F8C-2CC6-4723-AD58-E43FF506A0F9";
name = Bold;
paths = (
{
closed = 1;
nodes = (
"958 1595 LINE",
"820 412 LINE",
"809 412 LINE",
"663 1595 LINE",
"72 1595 LINE",
"390 0 LINE",
"1232 0 LINE",
"1550 1595 LINE"
);
}
);
width = 1628;
}
);
leftKerningGroup = V_Right;
rightKerningGroup = V_Left;
unicode = 0056;
userData = {
com.typemytype.robofont.layerData = {
};
};
},
{
glyphname = W;
lastChange = "2014-01-01 23:44:35 -0800";
layers = (
{
anchors = (
{
name = bot;
position = "{955, 0}";
},
{
name = top;
position = "{955, 1490}";
}
);
layerId = "4D3A9D47-CC41-4843-AE67-D0D92AD22A81";
name = Regular;
paths = (
{
closed = 1;
nodes = (
"1617 1490 LINE",
"1392 308 LINE",
"1378 308 LINE",
"1067 1490 LINE",
"866 1490 LINE",
"551 300 LINE",
"542 300 LINE",
"312 1490 LINE",
"108 1490 LINE",
"426 0 LINE",
"642 0 LINE",
"960 1162 LINE",
"975 1162 LINE",
"1269 0 LINE",
"1486 0 LINE",
"1807 1490 LINE"
);
}
);
width = 1915;
},
{
anchors = (
{
name = bot;
position = "{1025, 0}";
},
{
name = top;
position = "{1025, 1595}";
}
);
layerId = "24819F8C-2CC6-4723-AD58-E43FF506A0F9";
name = Bold;
paths = (
{
closed = 1;
nodes = (
"1512 1595 LINE",
"1405 626 LINE",
"1391 624 LINE",
"1272 1595 LINE",
"793 1595 LINE",
"677 624 LINE",
"664 624 LINE",
"589 1595 LINE",
"26 1595 LINE",
"235 0 LINE",
"857 0 LINE",
"1004 927 LINE",
"1015 927 LINE",
"1162 0 LINE",
"1804 0 LINE",
"2023 1595 LINE"
);
}
);
width = 2057;
}
);
leftKerningGroup = W_Right;
rightKerningGroup = W_Left;
unicode = 0057;
userData = {
com.typemytype.robofont.layerData = {
};
};
},
{
glyphname = X;
lastChange = "2014-01-01 23:44:37 -0800";
layers = (
{
layerId = "4D3A9D47-CC41-4843-AE67-D0D92AD22A81";
name = Regular;
paths = (
{
closed = 1;
nodes = (
"996 1490 LINE",
"617 890 LINE",
"543 796 LINE",
"44 0 LINE",
"265 0 LINE",
"658 620 LINE",
"735 722 LINE",
"1213 1490 LINE"
);
},
{
closed = 1;
nodes = (
"85 1490 LINE",
"1007 0 LINE",
"1219 0 LINE",
"292 1490 LINE"
);
}
);
width = 1268;
},
{
layerId = "24819F8C-2CC6-4723-AD58-E43FF506A0F9";
name = Bold;
paths = (
{
closed = 1;
nodes = (
"1052 1595 LINE",
"714 961 LINE",
"714 961 OFFCURVE",
"544 942 OFFCURVE",
"544 942 CURVE",
"7 0 LINE",
"555 0 LINE",
"928 654 LINE",
"928 654 OFFCURVE",
"1113 682 OFFCURVE",
"1113 682 CURVE",
"1603 1595 LINE"
);
},
{
closed = 1;
nodes = (
"70 1595 LINE",
"70 1595 OFFCURVE",
"1038 0 OFFCURVE",
"1038 0 CURVE",
"1593 0 LINE",
"1593 0 OFFCURVE",
"622 1595 OFFCURVE",
"622 1595 CURVE"
);
}
);
width = 1628;
}
);
rightKerningGroup = X_Left;
unicode = 0058;
userData = {
com.typemytype.robofont.layerData = {
};
};
},
{
glyphname = Y;
lastChange = "2014-01-01 23:44:39 -0800";
layers = (
{
anchors = (
{
name = bot;
position = "{622, 0}";
},
{
name = top;
position = "{622, 1490}";
}
);
layerId = "4D3A9D47-CC41-4843-AE67-D0D92AD22A81";
name = Regular;
paths = (
{
closed = 1;
nodes = (
"973 1490 LINE",
"612 728 LINE",
"610 728 LINE",
"261 1490 LINE",
"50 1490 LINE",
"503 518 LINE",
"503 0 LINE",
"705 0 LINE",
"705 518 LINE",
"1177 1490 LINE"
);
}
);
width = 1219;
},
{
anchors = (
{
name = bot;
position = "{780, 0}";
},
{
name = top;
position = "{780, 1595}";
}
);
layerId = "24819F8C-2CC6-4723-AD58-E43FF506A0F9";
name = Bold;
paths = (
{
closed = 1;
nodes = (
"970 1595 LINE",
"784 955 LINE",
"775 955 LINE",
"594 1595 LINE",
"34 1595 LINE",
"479 539 LINE",
"479 0 LINE",
"1084 0 LINE",
"1084 529 LINE",
"1526 1595 LINE"
);
}
);
width = 1560;
}
);
leftKerningGroup = Y_Right;
rightKerningGroup = Y_Left;
unicode = 0059;
userData = {
com.typemytype.robofont.layerData = {
};
};
},
{
glyphname = Z;
lastChange = "2014-01-01 23:44:41 -0800";
layers = (
{
anchors = (
{
name = bot;
position = "{562, 0}";
},
{
name = top;
position = "{562, 1490}";
}
);
layerId = "4D3A9D47-CC41-4843-AE67-D0D92AD22A81";
name = Regular;
paths = (
{
closed = 1;
nodes = (
"150 1490 LINE",
"167 1338 LINE",
"825 1338 LINE",
"111 176 LINE",
"121 0 LINE",
"1010 0 LINE",
"1010 151 LINE",
"325 151 LINE",
"1025 1311 LINE",
"1014 1490 LINE"
);
}
);
width = 1116;
},
{
anchors = (
{
name = bot;
position = "{643, 0}";
},
{
name = top;
position = "{643, 1595}";
}
);
layerId = "24819F8C-2CC6-4723-AD58-E43FF506A0F9";
name = Bold;
paths = (
{
closed = 1;
nodes = (
"153 1595 LINE",
"169 1304 LINE",
"525 1304 LINE",
"180 266 LINE",
"180 0 LINE",
"1157 0 LINE",
"1167 294 LINE",
"791 294 LINE",
"1110 1342 LINE",
"1117 1595 LINE"
);
}
);
width = 1282;
}
);
unicode = 005A;
userData = {
com.typemytype.robofont.layerData = {
};
};
},
{
glyphname = bracketleft;
lastChange = "2014-01-01 23:44:42 -0800";
layers = (
{
layerId = "4D3A9D47-CC41-4843-AE67-D0D92AD22A81";
name = Regular;
paths = (
{
closed = 1;
nodes = (
"201 1638 LINE",
"201 -272 LINE",
"647 -272 LINE",
"647 -120 LINE",
"392 -120 LINE",
"392 1487 LINE",
"647 1487 LINE",
"647 1638 LINE"
);
}
);
width = 723;
},
{
layerId = "24819F8C-2CC6-4723-AD58-E43FF506A0F9";
name = Bold;
paths = (
{
closed = 1;
nodes = (
"240 1819 LINE",
"240 -319 LINE",
"1215 -319 LINE",
"1215 -77 LINE",
"874 -77 LINE",
"874 1578 LINE",
"1215 1578 LINE",
"1215 1819 LINE"
);
}
);
width = 1315;
}
);
unicode = 005B;
},
{
glyphname = backslash;
lastChange = "2014-01-01 23:44:43 -0800";
layers = (
{
layerId = "4D3A9D47-CC41-4843-AE67-D0D92AD22A81";
name = Regular;
paths = (
{
closed = 1;
nodes = (
"117 1516 LINE",
"470 -26 LINE",
"659 -26 LINE",
"316 1516 LINE"
);
}
);
width = 776;
},
{
layerId = "24819F8C-2CC6-4723-AD58-E43FF506A0F9";
name = Bold;
paths = (
{
closed = 1;
nodes = (
"194 1595 LINE",
"545 0 LINE",
"1020 0 LINE",
"668 1595 LINE"
);
}
);
width = 1238;
}
);
unicode = 005C;
},
{
glyphname = bracketright;
lastChange = "2014-01-01 23:44:45 -0800";
layers = (
{
layerId = "4D3A9D47-CC41-4843-AE67-D0D92AD22A81";
name = Regular;
paths = (
{
closed = 1;
nodes = (
"101 1638 LINE",
"101 1487 LINE",
"355 1487 LINE",
"355 -120 LINE",
"101 -120 LINE",
"101 -272 LINE",
"546 -272 LINE",
"546 1638 LINE"
);
}
);
width = 721;
},
{
layerId = "24819F8C-2CC6-4723-AD58-E43FF506A0F9";
name = Bold;
paths = (
{
closed = 1;
nodes = (
"393 1819 LINE",
"393 1578 LINE",
"734 1578 LINE",
"734 -77 LINE",
"393 -77 LINE",
"393 -319 LINE",
"1368 -319 LINE",
"1368 1819 LINE"
);
}
);
width = 1621;
}
);
unicode = 005D;
},
{
glyphname = asciicircum;
lastChange = "2014-01-01 23:44:46 -0800";
layers = (
{
layerId = "4D3A9D47-CC41-4843-AE67-D0D92AD22A81";
name = Regular;
paths = (
{
closed = 1;
nodes = (
"450 1490 OFFCURVE",
"418 1477 OFFCURVE",
"392 1438 CURVE",
"0 702 LINE",
"135 702 LINE",
"486 1311 LINE",
"837 702 LINE",
"972 702 LINE",
"580 1438 LINE SMOOTH",
"558 1479 OFFCURVE",
"522 1490 OFFCURVE",
"486 1490 CURVE SMOOTH"
);
}
);
width = 972;
},
{
layerId = "24819F8C-2CC6-4723-AD58-E43FF506A0F9";
name = Bold;
paths = (
{
closed = 1;
nodes = (
"391 676 LINE",
"119 61 LINE",
"599 61 LINE",
"683 381 LINE",
"771 61 LINE",
"1252 61 LINE",
"969 676 LINE"
);
}
);
width = 1379;
}
);
unicode = 005E;
},
{
glyphname = underscore;
lastChange = "2014-01-01 23:44:48 -0800";
layers = (
{
layerId = "4D3A9D47-CC41-4843-AE67-D0D92AD22A81";
name = Regular;
paths = (
{
closed = 1;
nodes = (
"119 -100 LINE",
"119 -227 LINE",
"956 -227 LINE",
"956 -100 LINE"
);
}
);
width = 1078;
},
{
layerId = "24819F8C-2CC6-4723-AD58-E43FF506A0F9";
name = Bold;
paths = (
{
closed = 1;
nodes = (
"364 1 LINE",
"364 -435 LINE",
"1253 -435 LINE",
"1253 1 LINE"
);
}
);
width = 1348;
}
);
unicode = 005F;
},
{
glyphname = grave;
lastChange = "2014-01-01 23:46:25 -0800";
layers = (
{
anchors = (
{
name = _top;
position = "{360, 1097}";
}
);
layerId = "4D3A9D47-CC41-4843-AE67-D0D92AD22A81";
name = Regular;
paths = (
{
closed = 1;
nodes = (
"128 1640 OFFCURVE",
"91 1591 OFFCURVE",
"91 1540 CURVE SMOOTH",
"91 1501 OFFCURVE",
"113 1457 OFFCURVE",
"162 1436 CURVE SMOOTH",
"187 1425 OFFCURVE",
"557 1287 OFFCURVE",
"557 1287 CURVE SMOOTH",
"573 1291 LINE",
"574 1308 LINE",
"574 1308 OFFCURVE",
"316 1573 OFFCURVE",
"278 1605 CURVE SMOOTH",
"254 1624 OFFCURVE",
"226 1640 OFFCURVE",
"194 1640 CURVE SMOOTH"
);
}
);
width = 679;
},
{
anchors = (
{
name = _top;
position = "{916, 1300}";
}
);
layerId = "24819F8C-2CC6-4723-AD58-E43FF506A0F9";
name = Bold;
paths = (
{
closed = 1;
nodes = (
"435 2030 OFFCURVE",
"364 1946 OFFCURVE",
"364 1852 CURVE SMOOTH",
"364 1787 OFFCURVE",
"399 1717 OFFCURVE",
"480 1670 CURVE SMOOTH",
"584 1610 OFFCURVE",
"871 1538 OFFCURVE",
"1076 1476 CURVE SMOOTH",
"1106.25 1465 OFFCURVE",
"1134.75 1471.07 OFFCURVE",
"1152.62 1484.62 CURVE SMOOTH",
"1178.12 1503.96 OFFCURVE",
"1180.33 1542.08 OFFCURVE",
"1137 1580 CURVE SMOOTH",
"974 1729 OFFCURVE",
"764 1935 OFFCURVE",
"663 1993 CURVE SMOOTH",
"618 2019 OFFCURVE",
"576 2030 OFFCURVE",
"538 2030 CURVE SMOOTH"
);
}
);
width = 1287;
}
);
unicode = 0060;
userData = {
com.typemytype.robofont.layerData = {
};
};
},
{
glyphname = a;
lastChange = "2014-01-01 23:44:54 -0800";
layers = (
{
anchors = (
{
name = bot;
position = "{566, 0}";
},
{
name = ogonek;
position = "{903, 0}";
},
{
name = top;
position = "{541, 1097}";
}
);
layerId = "4D3A9D47-CC41-4843-AE67-D0D92AD22A81";
name = Regular;
paths = (
{
closed = 1;
nodes = (
"327 1117 OFFCURVE",
"156 1104 OFFCURVE",
"156 877 CURVE SMOOTH",
"156 862 OFFCURVE",
"156 846 OFFCURVE",
"158 830 CURVE",
"311 824 LINE",
"312 857 OFFCURVE",
"313 885 OFFCURVE",
"316 906 CURVE SMOOTH",
"327 975 OFFCURVE",
"366 991 OFFCURVE",
"549 991 CURVE SMOOTH",
"712 991 OFFCURVE",
"786 970 OFFCURVE",
"786 901 CURVE SMOOTH",
"786 604 LINE",
"703 604 OFFCURVE",
"625 603 OFFCURVE",
"555 599 CURVE SMOOTH",
"294 584 OFFCURVE",
"133 530 OFFCURVE",
"133 354 CURVE SMOOTH",
"133 86 OFFCURVE",
"200 -20 OFFCURVE",
"466 -20 CURVE SMOOTH",
"649 -20 OFFCURVE",
"752 10 OFFCURVE",
"795 157 CURVE",
"827 0 LINE",
"983 0 LINE",
"983 726 LINE SMOOTH",
"983 1037 OFFCURVE",
"874 1117 OFFCURVE",
"562 1117 CURVE SMOOTH"
);
},
{
closed = 1;
nodes = (
"786 314 LINE SMOOTH",
"786 203 OFFCURVE",
"719 122 OFFCURVE",
"493 122 CURVE SMOOTH",
"347 122 OFFCURVE",
"321 145 OFFCURVE",
"316 266 CURVE SMOOTH",
"315 291 OFFCURVE",
"315 320 OFFCURVE",
"315 354 CURVE SMOOTH",
"315 443 OFFCURVE",
"384 485 OFFCURVE",
"786 485 CURVE"
);
}
);
width = 1127;
},
{
anchors = (
{
name = bot;
position = "{790, 0}";
},
{
name = ogonek;
position = "{1169, 0}";
},
{
name = top;
position = "{790, 1300}";
}
);
layerId = "24819F8C-2CC6-4723-AD58-E43FF506A0F9";
name = Bold;
paths = (
{
closed = 1;
nodes = (
"552 1322 OFFCURVE",
"185 1304 OFFCURVE",
"185 1005 CURVE SMOOTH",
"185 966 OFFCURVE",
"190 930 OFFCURVE",
"196 895 CURVE",
"721 915 LINE",
"721 1106 LINE",
"790.5 1106 LINE",
"860 1106 LINE",
"860 783 LINE",
"787 807 OFFCURVE",
"701 824 OFFCURVE",
"594 824 CURVE SMOOTH",
"284 824 OFFCURVE",
"122 693 OFFCURVE",
"122 388 CURVE SMOOTH",
"122 107 OFFCURVE",
"259 -22 OFFCURVE",
"544 -22 CURVE SMOOTH",
"708 -22 OFFCURVE",
"822 38 OFFCURVE",
"883 139 CURVE",
"939 1 LINE",
"1430 1 LINE",
"1430 1 OFFCURVE",
"1430 952 OFFCURVE",
"1430 952 CURVE SMOOTH",
"1430 1303 OFFCURVE",
"1096 1322 OFFCURVE",
"789 1322 CURVE SMOOTH"
);
},
{
closed = 1;
nodes = (
"860 200 LINE",
"777 200 LINE",
"694 200 LINE",
"694 653 LINE",
"860 653 LINE"
);
}
);
width = 1593;
}
);
leftKerningGroup = a_Right;
unicode = 0061;
userData = {
com.typemytype.robofont.layerData = {
};
};
},
{
glyphname = b;
lastChange = "2014-01-01 23:44:56 -0800";
layers = (
{
anchors = (
{
name = top;
position = "{597, 1097}";
}
);
layerId = "4D3A9D47-CC41-4843-AE67-D0D92AD22A81";
name = Regular;
paths = (
{
closed = 1;
nodes = (
"160 1526 LINE",
"160 0 LINE",
"340 0 LINE",
"358 138 LINE",
"395 38 OFFCURVE",
"503 -20 OFFCURVE",
"677 -20 CURVE SMOOTH",
"1014 -20 OFFCURVE",
"1057 133 OFFCURVE",
"1061 506 CURVE SMOOTH",
"1062 611 LINE SMOOTH",
"1065 921 OFFCURVE",
"1028 1117 OFFCURVE",
"661 1117 CURVE SMOOTH",
"492 1117 OFFCURVE",
"401 1067 OFFCURVE",
"357 965 CURVE",
"357 1526 LINE"
);
},
{
closed = 1;
nodes = (
"862 979 OFFCURVE",
"866 939 OFFCURVE",
"866 750 CURVE SMOOTH",
"866 344 LINE SMOOTH",
"866 134 OFFCURVE",
"827 117 OFFCURVE",
"615 117 CURVE SMOOTH",
"427 117 OFFCURVE",
"357 158 OFFCURVE",
"357 269 CURVE SMOOTH",
"357 762 LINE SMOOTH",
"357 957 OFFCURVE",
"396 979 OFFCURVE",
"614 979 CURVE SMOOTH"
);
}
);
width = 1194;
},
{
anchors = (
{
name = top;
position = "{806, 1300}";
}
);
layerId = "24819F8C-2CC6-4723-AD58-E43FF506A0F9";
name = Bold;
paths = (
{
closed = 1;
nodes = (
"165 1638 LINE",
"165 0 LINE",
"685 0 LINE",
"722 114 LINE",
"782 25 OFFCURVE",
"912 -22 OFFCURVE",
"1057 -22 CURVE SMOOTH",
"1335 -22 OFFCURVE",
"1474 106 OFFCURVE",
"1474 377 CURVE SMOOTH",
"1474 940 LINE SMOOTH",
"1474 1205 OFFCURVE",
"1329 1322 OFFCURVE",
"1060 1322 CURVE SMOOTH",
"910 1322 OFFCURVE",
"803 1292 OFFCURVE",
"736 1215 CURVE",
"736 1638 LINE"
);
},
{
closed = 1;
nodes = (
"903 199 LINE",
"819.5 199 LINE",
"736 199 LINE",
"736 1105 LINE",
"819.5 1105 LINE",
"903 1105 LINE"
);
}
);
width = 1631;
}
);
rightKerningGroup = o_Left;
unicode = 0062;
userData = {
com.typemytype.robofont.layerData = {
};
};
},
{
glyphname = c;
lastChange = "2014-01-01 23:44:58 -0800";
layers = (
{
anchors = (
{
name = bot;
position = "{550, 0}";
},
{
name = bottom;
position = "{534, 0}";
},
{
name = top;
position = "{534, 1097}";
}
);
layerId = "4D3A9D47-CC41-4843-AE67-D0D92AD22A81";
name = Regular;
paths = (
{
closed = 1;
nodes = (
"190 1117 OFFCURVE",
"132 1013 OFFCURVE",
"132 619 CURVE SMOOTH",
"132 516 LINE SMOOTH",
"135 114 OFFCURVE",
"171 -20 OFFCURVE",
"576 -20 CURVE SMOOTH",
"894 -20 OFFCURVE",
"960 40 OFFCURVE",
"984.996 251.009 CURVE SMOOTH",
"988 277 OFFCURVE",
"991 306 OFFCURVE",
"993 337 CURVE",
"829 365 LINE",
"824 321 OFFCURVE",
"822 284 OFFCURVE",
"817 253 CURVE SMOOTH",
"802 163 OFFCURVE",
"764 118 OFFCURVE",
"567 118 CURVE SMOOTH",
"352 118 OFFCURVE",
"319 144 OFFCURVE",
"319 468 CURVE SMOOTH",
"319 669 LINE SMOOTH",
"319 874 OFFCURVE",
"289 978 OFFCURVE",
"585 978 CURVE SMOOTH",
"801 978 OFFCURVE",
"799 952 OFFCURVE",
"810 882 CURVE SMOOTH",
"831 743 LINE",
"993 770 LINE",
"991 811 OFFCURVE",
"987 848 OFFCURVE",
"981 880 CURVE SMOOTH",
"946 1070 OFFCURVE",
"835 1117 OFFCURVE",
"575 1117 CURVE SMOOTH"
);
}
);
width = 1094;
},
{
anchors = (
{
name = bot;
position = "{796, 0}";
},
{
name = bottom;
position = "{796, 0}";
},
{
name = top;
position = "{796, 1300}";
}
);
layerId = "24819F8C-2CC6-4723-AD58-E43FF506A0F9";
name = Bold;
paths = (
{
closed = 1;
nodes = (
"514 1322 OFFCURVE",
"146 1310 OFFCURVE",
"146 955 CURVE SMOOTH",
"146 355 LINE SMOOTH",
"146 -1 OFFCURVE",
"494 -22 OFFCURVE",
"803 -22 CURVE SMOOTH",
"1105 -22 OFFCURVE",
"1457 -10 OFFCURVE",
"1457 352 CURVE",
"1456 539 LINE",
"885 539 LINE",
"885 199 LINE",
"801.5 199 LINE",
"718 199 LINE",
"718 1105 LINE",
"801.5 1105 LINE",
"885 1105 LINE",
"885 787 LINE",
"1456 787 LINE",
"1456 978 LINE SMOOTH",
"1456 1326 OFFCURVE",
"1064 1322 OFFCURVE",
"809 1322 CURVE SMOOTH"
);
}
);
width = 1608;
}
);
leftKerningGroup = o_Right;
unicode = 0063;
userData = {
com.typemytype.robofont.layerData = {
};
};
},
{
glyphname = d;
lastChange = "2014-01-01 23:44:59 -0800";
layers = (
{
anchors = (
{
name = caron.alt;
position = "{943, 1097}";
},
{
name = mid;
position = "{908, 1319}";
},
{
name = top;
position = "{599, 1097}";
}
);
layerId = "4D3A9D47-CC41-4843-AE67-D0D92AD22A81";
name = Regular;
paths = (
{
closed = 1;
nodes = (
"836 1526 LINE",
"836 973 LINE",
"795 1072 OFFCURVE",
"706 1117 OFFCURVE",
"533 1117 CURVE SMOOTH",
"175 1117 OFFCURVE",
"132 957 OFFCURVE",
"132 566 CURVE SMOOTH",
"132 502 LINE SMOOTH",
"132 168 OFFCURVE",
"164 -20 OFFCURVE",
"515 -20 CURVE SMOOTH",
"689 -20 OFFCURVE",
"794 38 OFFCURVE",
"834 138 CURVE",
"853 0 LINE",
"1033 0 LINE",
"1033 1526 LINE"
);
},
{
closed = 1;
nodes = (
"778 979 OFFCURVE",
"836 943 OFFCURVE",
"836 827 CURVE SMOOTH",
"836 255 LINE SMOOTH",
"836 150 OFFCURVE",
"762 117 OFFCURVE",
"579 117 CURVE SMOOTH",
"330 117 OFFCURVE",
"331 193 OFFCURVE",
"330 395 CURVE SMOOTH",
"329 706 LINE SMOOTH",
"328 932 OFFCURVE",
"363 979 OFFCURVE",
"579 979 CURVE SMOOTH"
);
}
);
width = 1193;
},
{
anchors = (
{
name = caron.alt;
position = "{1266, 1300}";
},
{
name = mid;
position = "{1165, 1471}";
},
{
name = top;
position = "{570, 1442}";
}
);
layerId = "24819F8C-2CC6-4723-AD58-E43FF506A0F9";
name = Bold;
paths = (
{
closed = 1;
nodes = (
"891 1638 LINE",
"891 1215 LINE",
"824 1292 OFFCURVE",
"718 1322 OFFCURVE",
"568 1322 CURVE SMOOTH",
"296 1322 OFFCURVE",
"153 1203 OFFCURVE",
"153 940 CURVE SMOOTH",
"153 377 LINE SMOOTH",
"153 106 OFFCURVE",
"292 -22 OFFCURVE",
"570 -22 CURVE SMOOTH",
"716 -22 OFFCURVE",
"843 26 OFFCURVE",
"905 114 CURVE",
"942 0 LINE",
"1462 0 LINE",
"1462 1638 LINE"
);
},
{
closed = 1;
nodes = (
"890 199 LINE",
"806.5 199 LINE",
"723 199 LINE",
"723 1105 LINE",
"806.5 1105 LINE",
"890 1105 LINE"
);
}
);
width = 1631;
}
);
leftKerningGroup = o_Right;
unicode = 0064;
userData = {
com.typemytype.robofont.layerData = {
};
};
},
{
glyphname = e;
lastChange = "2014-01-01 23:45:01 -0800";
layers = (
{
anchors = (
{
name = bot;
position = "{572, 0}";
},
{
name = bottom;
position = "{551, 0}";
},
{
name = ogonek;
position = "{655, 0}";
},
{
name = top;
position = "{551, 1097}";
}
);
layerId = "4D3A9D47-CC41-4843-AE67-D0D92AD22A81";
name = Regular;
paths = (
{
closed = 1;
nodes = (
"176 1117 OFFCURVE",
"132 1020 OFFCURVE",
"132 594 CURVE SMOOTH",
"132 475 LINE SMOOTH",
"132 88 OFFCURVE",
"187 -20 OFFCURVE",
"565 -20 CURVE SMOOTH",
"884 -20 OFFCURVE",
"970 25 OFFCURVE",
"991 235 CURVE SMOOTH",
"993 257 OFFCURVE",
"994 281 OFFCURVE",
"995 306 CURVE",
"842 334 LINE",
"824 146 OFFCURVE",
"837 117 OFFCURVE",
"598 117 CURVE SMOOTH",
"398 117 OFFCURVE",
"341 137 OFFCURVE",
"336 227 CURVE SMOOTH",
"330 331 OFFCURVE",
"329 442 OFFCURVE",
"328 550 CURVE",
"1017 550 LINE",
"1022 629 LINE",
"1017 1028 OFFCURVE",
"965 1117 OFFCURVE",
"586 1117 CURVE SMOOTH"
);
},
{
closed = 1;
nodes = (
"755 980 OFFCURVE",
"809 960 OFFCURVE",
"815 878 CURVE SMOOTH",
"821 802 OFFCURVE",
"824 724 OFFCURVE",
"825 655 CURVE",
"329 655 LINE",
"330 720 OFFCURVE",
"328 817 OFFCURVE",
"346 885 CURVE SMOOTH",
"366 961 OFFCURVE",
"387 980 OFFCURVE",
"585 980 CURVE SMOOTH"
);
}
);
width = 1136;
},
{
anchors = (
{
name = bot;
position = "{795, 0}";
},
{
name = bottom;
position = "{795, 0}";
},
{
name = ogonek;
position = "{915, 0}";
},
{
name = top;
position = "{795, 1300}";
}
);
layerId = "24819F8C-2CC6-4723-AD58-E43FF506A0F9";
name = Bold;
paths = (
{
closed = 1;
nodes = (
"513 1322 OFFCURVE",
"144 1306 OFFCURVE",
"144 953 CURVE SMOOTH",
"144 353 LINE SMOOTH",
"144 -11 OFFCURVE",
"497 -22 OFFCURVE",
"801 -22 CURVE SMOOTH",
"1243 -22 OFFCURVE",
"1462 74 OFFCURVE",
"1462 380 CURVE SMOOTH",
"1462 412 OFFCURVE",
"1459 445 OFFCURVE",
"1454 483 CURVE",
"883 483 LINE",
"883 199 LINE",
"716 199 LINE",
"716 604 LINE",
"1454 604 LINE",
"1454 954 LINE SMOOTH",
"1454 1309 OFFCURVE",
"1092 1322 OFFCURVE",
"799 1322 CURVE SMOOTH"
);
},
{
closed = 1;
nodes = (
"884 777 LINE",
"716 777 LINE",
"716 1105 LINE",
"800 1105 LINE",
"884 1105 LINE"
);
}
);
width = 1608;
}
);
leftKerningGroup = o_Right;
unicode = 0065;
userData = {
com.typemytype.robofont.layerData = {
};
};
},
{
glyphname = f;
lastChange = "2014-01-01 23:45:02 -0800";
layers = (
{
anchors = (
{
name = top;
position = "{354, 1367}";
}
);
layerId = "4D3A9D47-CC41-4843-AE67-D0D92AD22A81";
name = Regular;
paths = (
{
closed = 1;
nodes = (
"253 1522 OFFCURVE",
"244 1416 OFFCURVE",
"244 1097 CURVE",
"115 1097 LINE",
"115 984 LINE",
"244 984 LINE",
"244 0 LINE",
"441 0 LINE",
"441 984 LINE",
"639 984 LINE",
"639 1097 LINE",
"441 1097 LINE",
"441 1155 OFFCURVE",
"440 1200 OFFCURVE",
"440 1235 CURVE SMOOTH",
"440 1359 OFFCURVE",
"449 1365 OFFCURVE",
"518 1365 CURVE SMOOTH",
"574 1365 OFFCURVE",
"609 1364 OFFCURVE",
"645 1362 CURVE",
"645 1505 LINE",
"582 1517 OFFCURVE",
"526 1522 OFFCURVE",
"475 1522 CURVE SMOOTH"
);
}
);
width = 715;
},
{
anchors = (
{
name = top;
position = "{623, 1300}";
}
);
layerId = "24819F8C-2CC6-4723-AD58-E43FF506A0F9";
name = Bold;
paths = (
{
closed = 1;
nodes = (
"471 1731 OFFCURVE",
"289 1624 OFFCURVE",
"289 1300 CURVE",
"82 1300 LINE",
"82 1098 LINE",
"289 1098 LINE",
"289 0 LINE",
"860 0 LINE",
"860 1098 LINE",
"1174 1098 LINE",
"1174 1300 LINE",
"860 1300 LINE",
"860 1477 LINE",
"948.701 1477 LINE",
"1165 1477 LINE",
"1165 1683 LINE",
"1047 1719 OFFCURVE",
"921 1731 OFFCURVE",
"799 1731 CURVE SMOOTH"
);
}
);
width = 1237;
}
);
unicode = 0066;
userData = {
com.typemytype.robofont.layerData = {
};
};
},
{
glyphname = g;
lastChange = "2014-01-01 23:45:03 -0800";
layers = (
{
anchors = (
{
name = bot;
position = "{591, 0}";
},
{
name = top;
position = "{571, 1097}";
}
);
layerId = "4D3A9D47-CC41-4843-AE67-D0D92AD22A81";
name = Regular;
paths = (
{
closed = 1;
nodes = (
"168 1117 OFFCURVE",
"132 995 OFFCURVE",
"132 612 CURVE SMOOTH",
"132 505 LINE SMOOTH",
"132 155 OFFCURVE",
"145 17 OFFCURVE",
"548 17 CURVE SMOOTH",
"709 17 OFFCURVE",
"791 58 OFFCURVE",
"827 151 CURVE",
"827 -97 LINE SMOOTH",
"827 -197 OFFCURVE",
"805 -260 OFFCURVE",
"557 -260 CURVE SMOOTH",
"451 -260 OFFCURVE",
"363 -249 OFFCURVE",
"291 -229 CURVE",
"278 -365 LINE",
"357 -393 OFFCURVE",
"461 -406 OFFCURVE",
"590 -406 CURVE SMOOTH",
"961 -406 OFFCURVE",
"1025 -284 OFFCURVE",
"1025 90 CURVE SMOOTH",
"1026 1097 LINE",
"847 1097 LINE",
"828 975 LINE",
"779 1082 OFFCURVE",
"674 1117 OFFCURVE",
"503 1117 CURVE SMOOTH"
);
},
{
closed = 1;
nodes = (
"771 982 OFFCURVE",
"829 942 OFFCURVE",
"829 833 CURVE SMOOTH",
"828 243 LINE SMOOTH",
"828 171 OFFCURVE",
"700 154 OFFCURVE",
"595 154 CURVE SMOOTH",
"381 154 OFFCURVE",
"338 172 OFFCURVE",
"334 262 CURVE SMOOTH",
"326 423 OFFCURVE",
"327 559 OFFCURVE",
"327 738 CURVE SMOOTH",
"327 955 OFFCURVE",
"355 982 OFFCURVE",
"575 982 CURVE SMOOTH"
);
}
);
width = 1169;
},
{
anchors = (
{
name = bot;
position = "{800, 0}";
},
{
name = top;
position = "{800, 1300}";
}
);
layerId = "24819F8C-2CC6-4723-AD58-E43FF506A0F9";
name = Bold;
paths = (
{
closed = 1;
nodes = (
"288 1322 OFFCURVE",
"142 1196 OFFCURVE",
"142 927 CURVE SMOOTH",
"142 482 LINE SMOOTH",
"142 214 OFFCURVE",
"291 91 OFFCURVE",
"562 91 CURVE SMOOTH",
"701 91 OFFCURVE",
"831 125 OFFCURVE",
"893 205 CURVE",
"893 -60 LINE",
"848 -87 OFFCURVE",
"758 -97 OFFCURVE",
"658 -97 CURVE SMOOTH",
"534 -97 OFFCURVE",
"395 -81 OFFCURVE",
"312 -58 CURVE",
"255 -349 LINE",
"378 -383 OFFCURVE",
"532 -410 OFFCURVE",
"732 -410 CURVE SMOOTH",
"1224 -410 OFFCURVE",
"1451 -222 OFFCURVE",
"1451 198 CURVE SMOOTH",
"1451 1299 LINE",
"940 1299 LINE",
"904 1187 LINE",
"838 1276 OFFCURVE",
"721 1321 OFFCURVE",
"565 1322 CURVE"
);
},
{
closed = 1;
nodes = (
"880 316 LINE",
"796.5 316 LINE",
"713 316 LINE",
"713 1104 LINE",
"796.5 1104 LINE",
"880 1104 LINE"
);
}
);
width = 1616;
}
);
leftKerningGroup = g_Right;
unicode = 0067;
userData = {
com.typemytype.robofont.layerData = {
};
};
},
{
glyphname = h;
lastChange = "2014-01-01 23:45:05 -0800";
layers = (
{
anchors = (
{
name = bot;
position = "{592, 0}";
},
{
name = center;
position = "{590, 549}";
},
{
name = mid;
position = "{592, 1097}";
},
{
name = top;
position = "{674, 1299}";
}
);
layerId = "4D3A9D47-CC41-4843-AE67-D0D92AD22A81";
name = Regular;
paths = (
{
closed = 1;
nodes = (
"160 1526 LINE",
"160 0 LINE",
"358 0 LINE",
"358 874 LINE SMOOTH",
"358 947 OFFCURVE",
"489 979 OFFCURVE",
"589 979 CURVE SMOOTH",
"833 979 OFFCURVE",
"838 949 OFFCURVE",
"838 655 CURVE SMOOTH",
"838 0 LINE",
"1035 0 LINE",
"1036 725 LINE SMOOTH",
"1036 959 OFFCURVE",
"1010 1117 OFFCURVE",
"656 1117 CURVE SMOOTH",
"507 1117 OFFCURVE",
"406 1079 OFFCURVE",
"358 1003 CURVE",
"358 1526 LINE"
);
}
);
width = 1182;
},
{
anchors = (
{
name = bot;
position = "{811, 0}";
},
{
name = center;
position = "{811, 650}";
},
{
name = mid;
position = "{811, 1300}";
},
{
name = top;
position = "{1084, 1554}";
}
);
layerId = "24819F8C-2CC6-4723-AD58-E43FF506A0F9";
name = Bold;
paths = (
{
closed = 1;
nodes = (
"167 1638 LINE",
"167 0 LINE",
"738 0 LINE",
"738 1105 LINE",
"821.5 1105 LINE",
"905 1105 LINE",
"905 0 LINE",
"1476 0 LINE",
"1476 945 LINE SMOOTH",
"1476 1206 OFFCURVE",
"1328 1322 OFFCURVE",
"1059 1322 CURVE SMOOTH",
"926 1322 OFFCURVE",
"795 1288 OFFCURVE",
"738 1210 CURVE",
"738 1638 LINE"
);
}
);
width = 1639;
}
);
rightKerningGroup = n_Left;
unicode = 0068;
userData = {
com.typemytype.robofont.layerData = {
};
};
},
{
glyphname = k;
lastChange = "2014-01-01 23:45:08 -0800";
layers = (
{
anchors = (
{
name = bot;
position = "{543, 0}";
},
{
name = bottom;
position = "{537, 0}";
},
{
name = top;
position = "{653, 1297}";
}
);
layerId = "4D3A9D47-CC41-4843-AE67-D0D92AD22A81";
name = Regular;
paths = (
{
closed = 1;
nodes = (
"160 1526 LINE",
"160 0 LINE",
"358 0 LINE",
"358 469 LINE",
"450 572 LINE",
"832 0 LINE",
"1049 0 LINE",
"600 658 LINE",
"1013 1097 LINE",
"789 1097 LINE",
"528 812 LINE SMOOTH",
"471 750 OFFCURVE",
"413 685 OFFCURVE",
"357 625 CURVE",
"357 674 OFFCURVE",
"358 732 OFFCURVE",
"358 782 CURVE SMOOTH",
"358 1526 LINE"
);
}
);
width = 1068;
},
{
anchors = (
{
name = bot;
position = "{801, 0}";
},
{
name = bottom;
position = "{801, 0}";
},
{
name = top;
position = "{1096, 1500}";
}
);
layerId = "24819F8C-2CC6-4723-AD58-E43FF506A0F9";
name = Bold;
paths = (
{
closed = 1;
nodes = (
"142 1638 LINE",
"142 0 LINE",
"713 0 LINE",
"713 478 LINE",
"756 575 LINE",
"995 0 LINE",
"1575 0 LINE",
"1237 690 LINE",
"1568 1300 LINE",
"982 1300 LINE",
"789.134 940.079 LINE",
"713 798 LINE",
"713 979.246 LINE",
"713 1638 LINE"
);
}
);
width = 1647;
}
);
rightKerningGroup = k_Left;
unicode = 006B;
userData = {
com.typemytype.robofont.layerData = {
};
};
},
{
glyphname = l;
lastChange = "2014-01-01 23:45:10 -0800";
layers = (
{
anchors = (
{
name = bot;
position = "{269, 0}";
},
{
name = bottom;
position = "{268, 0}";
},
{
name = caron.alt;
position = "{287, 1097}";
},
{
name = mid;
position = "{269, 1097}";
},
{
name = top;
position = "{268, 1490}";
}
);
layerId = "4D3A9D47-CC41-4843-AE67-D0D92AD22A81";
name = Regular;
paths = (
{
closed = 1;
nodes = (
"170 1526 LINE",
"170 0 LINE",
"367 0 LINE",
"367 1526 LINE"
);
}
);
width = 509;
},
{
anchors = (
{
name = bot;
position = "{480, 0}";
},
{
name = bottom;
position = "{480, 0}";
},
{
name = caron.alt;
position = "{593, 1300}";
},
{
name = mid;
position = "{490, 990}";
},
{
name = top;
position = "{503, 1595}";
}
);
layerId = "24819F8C-2CC6-4723-AD58-E43FF506A0F9";
name = Bold;
paths = (
{
closed = 1;
nodes = (
"205 1638 LINE",
"205 0 LINE",
"776 0 LINE",
"776 1638 LINE"
);
}
);
width = 966;
}
);
unicode = 006C;
userData = {
com.typemytype.robofont.layerData = {
};
};
},
{
glyphname = m;
lastChange = "2014-01-01 23:45:11 -0800";
layers = (
{
anchors = (
{
name = bot;
position = "{885, 0}";
},
{
name = top;
position = "{885, 1097}";
}
);
layerId = "4D3A9D47-CC41-4843-AE67-D0D92AD22A81";
name = Regular;
paths = (
{
closed = 1;
nodes = (
"1097 1117 OFFCURVE",
"995 1075 OFFCURVE",
"942 972 CURVE",
"900 1084 OFFCURVE",
"811 1117 OFFCURVE",
"664 1117 CURVE SMOOTH",
"518 1117 OFFCURVE",
"415 1090 OFFCURVE",
"359 977 CURVE",
"340 1097 LINE",
"160 1097 LINE",
"160 0 LINE",
"357 0 LINE",
"358 897 LINE SMOOTH",
"358 970 OFFCURVE",
"482 990 OFFCURVE",
"570 990 CURVE SMOOTH",
"788 990 OFFCURVE",
"793 936 OFFCURVE",
"793 730 CURVE SMOOTH",
"793 0 LINE",
"990 0 LINE",
"989 784 LINE SMOOTH",
"989 826 OFFCURVE",
"989 862 OFFCURVE",
"999 891 CURVE SMOOTH",
"1021 958 OFFCURVE",
"1082 990 OFFCURVE",
"1239 990 CURVE SMOOTH",
"1418 990 OFFCURVE",
"1419 898 OFFCURVE",
"1419 666 CURVE SMOOTH",
"1419 0 LINE",
"1616 0 LINE",
"1616 673 LINE SMOOTH",
"1616 1026 OFFCURVE",
"1560 1117 OFFCURVE",
"1258 1117 CURVE SMOOTH"
);
}
);
width = 1762;
},
{
anchors = (
{
name = bot;
position = "{1177, 0}";
},
{
name = top;
position = "{1177, 1300}";
}
);
layerId = "24819F8C-2CC6-4723-AD58-E43FF506A0F9";
name = Bold;
paths = (
{
closed = 1;
nodes = (
"1610 1322 OFFCURVE",
"1483 1281 OFFCURVE",
"1421 1191 CURVE",
"1353 1274 OFFCURVE",
"1238 1322 OFFCURVE",
"1082 1322 CURVE SMOOTH",
"933 1322 OFFCURVE",
"789 1276 OFFCURVE",
"724 1188 CURVE",
"687 1300 LINE",
"175 1300 LINE",
"175 0 LINE",
"738 0 LINE",
"738 1105 LINE",
"821.5 1105 LINE",
"905 1105 LINE",
"905 0 LINE",
"1462 0 LINE",
"1462 1001 LINE SMOOTH",
"1462 1037 OFFCURVE",
"1461 1072 OFFCURVE",
"1455 1105 CURVE",
"1541.5 1105 LINE",
"1628 1105 LINE",
"1628 0 LINE",
"2191 0 LINE",
"2191 944 LINE SMOOTH",
"2191 1202 OFFCURVE",
"2035 1322 OFFCURVE",
"1768 1322 CURVE SMOOTH"
);
}
);
width = 2346;
}
);
leftKerningGroup = n_Right;
rightKerningGroup = n_Left;
unicode = 006D;
userData = {
com.typemytype.robofont.layerData = {
};
};
},
{
glyphname = n;
lastChange = "2014-01-01 23:45:13 -0800";
layers = (
{
anchors = (
{
name = bot;
position = "{591, 0}";
},
{
name = bottom;
position = "{590, 0}";
},
{
name = top;
position = "{590, 1097}";
}
);
layerId = "4D3A9D47-CC41-4843-AE67-D0D92AD22A81";
name = Regular;
paths = (
{
closed = 1;
nodes = (
"540 1117 OFFCURVE",
"396 1091 OFFCURVE",
"359 974 CURVE",
"340 1097 LINE",
"160 1097 LINE",
"160 0 LINE",
"357 0 LINE",
"357 780 LINE SMOOTH",
"357 924 OFFCURVE",
"406 979 OFFCURVE",
"642 979 CURVE SMOOTH",
"809 979 OFFCURVE",
"831 904 OFFCURVE",
"831 723 CURVE SMOOTH",
"831 0 LINE",
"1028 0 LINE",
"1028 725 LINE SMOOTH",
"1028 968 OFFCURVE",
"973 1117 OFFCURVE",
"686 1117 CURVE SMOOTH"
);
}
);
width = 1174;
},
{
anchors = (
{
name = bot;
position = "{814, 0}";
},
{
name = bottom;
position = "{814, 0}";
},
{
name = top;
position = "{814, 1300}";
}
);
layerId = "24819F8C-2CC6-4723-AD58-E43FF506A0F9";
name = Bold;
paths = (
{
closed = 1;
nodes = (
"913 1322 OFFCURVE",
"781 1271 OFFCURVE",
"722 1188 CURVE",
"685 1300 LINE",
"175 1300 LINE",
"175 0 LINE",
"746 0 LINE",
"746 1105 LINE",
"829.5 1105 LINE",
"913 1105 LINE",
"913 0 LINE",
"1484 0 LINE",
"1484 944 LINE SMOOTH",
"1484 1195 OFFCURVE",
"1336 1321 OFFCURVE",
"1063 1322 CURVE SMOOTH"
);
}
);
width = 1639;
}
);
leftKerningGroup = n_Right;
rightKerningGroup = n_Left;
unicode = 006E;
userData = {
com.typemytype.robofont.layerData = {
};
};
},
{
glyphname = o;
lastChange = "2014-01-01 23:45:24 -0800";
layers = (
{
anchors = (
{
name = bot;
position = "{594, 0}";
},
{
name = ogonek;
position = "{672, 0}";
},
{
name = top;
position = "{595, 1097}";
}
);
layerId = "4D3A9D47-CC41-4843-AE67-D0D92AD22A81";
name = Regular;
paths = (
{
closed = 1;
nodes = (
"186 1117 OFFCURVE",
"132 1032 OFFCURVE",
"132 585 CURVE SMOOTH",
"132 557 LINE SMOOTH",
"132 101 OFFCURVE",
"158 -20 OFFCURVE",
"593 -20 CURVE SMOOTH",
"1029 -20 OFFCURVE",
"1056 100 OFFCURVE",
"1056 557 CURVE SMOOTH",
"1056 586 LINE SMOOTH",
"1056 1033 OFFCURVE",
"1002 1117 OFFCURVE",
"594 1117 CURVE SMOOTH"
);
},
{
closed = 1;
nodes = (
"713 978 OFFCURVE",
"849 978 OFFCURVE",
"849 884 CURVE SMOOTH",
"848 210 LINE SMOOTH",
"848 135 OFFCURVE",
"772 118 OFFCURVE",
"595 118 CURVE SMOOTH",
"418 118 OFFCURVE",
"340 137 OFFCURVE",
"340 210 CURVE",
"339 884 LINE",
"339 978 OFFCURVE",
"475 978 OFFCURVE",
"594 978 CURVE SMOOTH"
);
}
);
width = 1188;
},
{
anchors = (
{
name = bot;
position = "{797, 0}";
},
{
name = ogonek;
position = "{928, 0}";
},
{
name = top;
position = "{797, 1300}";
}
);
layerId = "24819F8C-2CC6-4723-AD58-E43FF506A0F9";
name = Bold;
paths = (
{
closed = 1;
nodes = (
"508 1322 OFFCURVE",
"146 1300 OFFCURVE",
"146 953 CURVE SMOOTH",
"146 348 LINE SMOOTH",
"146 -12 OFFCURVE",
"486 -22 OFFCURVE",
"804 -22 CURVE SMOOTH",
"1109 -22 OFFCURVE",
"1455 -22 OFFCURVE",
"1455 347 CURVE SMOOTH",
"1455 952 LINE SMOOTH",
"1455 1296 OFFCURVE",
"1124 1322 OFFCURVE",
"805 1322 CURVE SMOOTH"
);
},
{
closed = 1;
nodes = (
"883 228 LINE",
"800 228 LINE",
"717 228 LINE",
"717 1105 LINE",
"800 1105 LINE",
"883 1105 LINE"
);
}
);
width = 1601;
}
);
leftKerningGroup = o_Right;
rightKerningGroup = o_Left;
unicode = 006F;
userData = {
com.typemytype.robofont.layerData = {
};
};
},
{
glyphname = p;
lastChange = "2014-01-01 23:45:24 -0800";
layers = (
{
anchors = (
{
name = bot;
position = "{596, 0}";
},
{
name = top;
position = "{596, 1097}";
}
);
layerId = "4D3A9D47-CC41-4843-AE67-D0D92AD22A81";
name = Regular;
paths = (
{
closed = 1;
nodes = (
"503 1117 OFFCURVE",
"398 1076 OFFCURVE",
"358 976 CURVE",
"339 1097 LINE",
"160 1097 LINE",
"160 -387 LINE",
"357 -372 LINE",
"357 98 LINE",
"382 21 OFFCURVE",
"486 -20 OFFCURVE",
"659 -20 CURVE SMOOTH",
"1018 -20 OFFCURVE",
"1060 140 OFFCURVE",
"1060 541 CURVE SMOOTH",
"1060 592 LINE SMOOTH",
"1060 964 OFFCURVE",
"1017 1117 OFFCURVE",
"678 1117 CURVE SMOOTH"
);
},
{
closed = 1;
nodes = (
"896 979 OFFCURVE",
"865 869 OFFCURVE",
"865 730 CURVE SMOOTH",
"865 415 LINE SMOOTH",
"865 151 OFFCURVE",
"859 117 OFFCURVE",
"613 117 CURVE SMOOTH",
"395 117 OFFCURVE",
"353 176 OFFCURVE",
"353 449 CURVE SMOOTH",
"353 693 LINE SMOOTH",
"353 946 OFFCURVE",
"359 979 OFFCURVE",
"613 979 CURVE SMOOTH"
);
}
);
width = 1192;
},
{
anchors = (
{
name = bot;
position = "{809, 0}";
},
{
name = top;
position = "{809, 1300}";
}
);
layerId = "24819F8C-2CC6-4723-AD58-E43FF506A0F9";
name = Bold;
paths = (
{
closed = 1;
nodes = (
"900 1322 OFFCURVE",
"759 1277 OFFCURVE",
"692 1188 CURVE",
"655 1300 LINE",
"165 1300 LINE",
"165 -410 LINE",
"736 -410 LINE",
"736 87 LINE",
"797 8 OFFCURVE",
"916 -22 OFFCURVE",
"1055 -22 CURVE SMOOTH",
"1329 -22 OFFCURVE",
"1475 99 OFFCURVE",
"1475 365 CURVE SMOOTH",
"1475 926 LINE SMOOTH",
"1475 1198 OFFCURVE",
"1328 1322 OFFCURVE",
"1052 1322 CURVE SMOOTH"
);
},
{
closed = 1;
nodes = (
"903 199 LINE",
"819.5 199 LINE",
"736 199 LINE",
"736 1105 LINE",
"819.5 1105 LINE",
"903 1105 LINE"
);
}
);
width = 1631;
}
);
rightKerningGroup = o_Left;
unicode = 0070;
userData = {
com.typemytype.robofont.layerData = {
};
};
},
{
glyphname = q;
lastChange = "2014-01-01 23:45:24 -0800";
layers = (
{
layerId = "4D3A9D47-CC41-4843-AE67-D0D92AD22A81";
name = Regular;
paths = (
{
closed = 1;
nodes = (
"203 1117 OFFCURVE",
"160 964 OFFCURVE",
"160 592 CURVE SMOOTH",
"160 541 LINE SMOOTH",
"160 140 OFFCURVE",
"202 -20 OFFCURVE",
"561 -20 CURVE SMOOTH",
"734 -20 OFFCURVE",
"838 26 OFFCURVE",
"863 103 CURVE",
"863 -372 LINE",
"1060 -387 LINE",
"1060 1097 LINE",
"881 1097 LINE",
"862 976 LINE",
"822 1076 OFFCURVE",
"717 1117 OFFCURVE",
"542 1117 CURVE SMOOTH"
);
},
{
closed = 1;
nodes = (
"861 979 OFFCURVE",
"867 946 OFFCURVE",
"867 693 CURVE SMOOTH",
"867 449 LINE SMOOTH",
"867 181 OFFCURVE",
"825 117 OFFCURVE",
"607 117 CURVE SMOOTH",
"361 117 OFFCURVE",
"355 151 OFFCURVE",
"355 415 CURVE SMOOTH",
"355 741 LINE SMOOTH",
"355 869 OFFCURVE",
"324 979 OFFCURVE",
"607 979 CURVE SMOOTH"
);
}
);
width = 1192;
},
{
layerId = "24819F8C-2CC6-4723-AD58-E43FF506A0F9";
name = Bold;
paths = (
{
closed = 1;
nodes = (
"281 1322 OFFCURVE",
"134 1198 OFFCURVE",
"134 926 CURVE SMOOTH",
"134 365 LINE SMOOTH",
"134 99 OFFCURVE",
"280 -22 OFFCURVE",
"554 -22 CURVE SMOOTH",
"693 -22 OFFCURVE",
"812 8 OFFCURVE",
"873 87 CURVE",
"873 -410 LINE",
"1444 -410 LINE",
"1444 1300 LINE",
"954 1300 LINE",
"917 1188 LINE",
"850 1277 OFFCURVE",
"709 1322 OFFCURVE",
"557 1322 CURVE SMOOTH"
);
},
{
closed = 1;
nodes = (
"873 199 LINE",
"789 199 LINE",
"706 199 LINE",
"706 1105 LINE",
"789 1105 LINE",
"873 1105 LINE"
);
}
);
width = 1616;
}
);
leftKerningGroup = o_Right;
unicode = 0071;
userData = {
com.typemytype.robofont.layerData = {
};
};
},
{
glyphname = r;
lastChange = "2014-01-01 23:45:24 -0800";
layers = (
{
anchors = (
{
name = bot;
position = "{374, 0}";
},
{
name = bottom;
position = "{367, 0}";
},
{
name = top;
position = "{367, 1097}";
}
);
layerId = "4D3A9D47-CC41-4843-AE67-D0D92AD22A81";
name = Regular;
paths = (
{
closed = 1;
nodes = (
"553 1122 OFFCURVE",
"411 1086 OFFCURVE",
"363 974 CURVE",
"343 1097 LINE",
"164 1097 LINE",
"164 0 LINE",
"361 0 LINE",
"361 471 LINE SMOOTH",
"361 541 OFFCURVE",
"354 624 OFFCURVE",
"354 704 CURVE SMOOTH",
"354 915 OFFCURVE",
"492 962 OFFCURVE",
"645 942 CURVE",
"653 1109 LINE"
);
}
);
width = 739;
},
{
anchors = (
{
name = bot;
position = "{477, 0}";
},
{
name = top;
position = "{567, 1300}";
}
);
layerId = "24819F8C-2CC6-4723-AD58-E43FF506A0F9";
name = Bold;
paths = (
{
closed = 1;
nodes = (
"878 1323 OFFCURVE",
"749 1260 OFFCURVE",
"704 1153 CURVE",
"663 1300 LINE",
"177 1300 LINE",
"176 0 LINE",
"747 0 LINE",
"747 745.397 LINE",
"747 893 LINE",
"1033 949 LINE",
"1033 1327 LINE"
);
}
);
width = 1195;
}
);
rightKerningGroup = r_Left;
unicode = 0072;
userData = {
com.typemytype.robofont.layerData = {
};
};
},
{
glyphname = s;
lastChange = "2014-01-01 23:45:24 -0800";
layers = (
{
anchors = (
{
name = bot;
position = "{508, 0}";
},
{
name = bottom;
position = "{493, 0}";
},
{
name = top;
position = "{493, 1097}";
}
);
layerId = "4D3A9D47-CC41-4843-AE67-D0D92AD22A81";
name = Regular;
paths = (
{
closed = 1;
nodes = (
"241 1117 OFFCURVE",
"124 1065 OFFCURVE",
"124 827 CURVE SMOOTH",
"124 556 OFFCURVE",
"207 533 OFFCURVE",
"498 505 CURVE SMOOTH",
"589 496 LINE SMOOTH",
"742 481 OFFCURVE",
"770 467 OFFCURVE",
"770 315 CURVE SMOOTH",
"770 191 OFFCURVE",
"766 117 OFFCURVE",
"552 117 CURVE SMOOTH",
"421 117 OFFCURVE",
"355 119 OFFCURVE",
"321 146 CURVE SMOOTH",
"286 172 OFFCURVE",
"283 224 OFFCURVE",
"275 322 CURVE",
"120 282 LINE",
"120 -10 OFFCURVE",
"288 -20 OFFCURVE",
"566 -20 CURVE SMOOTH",
"838 -20 OFFCURVE",
"950 44 OFFCURVE",
"950 299 CURVE SMOOTH",
"950 569 OFFCURVE",
"914 618 OFFCURVE",
"582 653 CURVE SMOOTH",
"496 662 LINE SMOOTH",
"310 681 OFFCURVE",
"304 692 OFFCURVE",
"304 823 CURVE SMOOTH",
"304 943 OFFCURVE",
"313 980 OFFCURVE",
"523 980 CURVE SMOOTH",
"631 980 OFFCURVE",
"690 978 OFFCURVE",
"723 957 CURVE SMOOTH",
"757 937 OFFCURVE",
"765 899 OFFCURVE",
"771 828 CURVE",
"905 869 LINE",
"905 1103 OFFCURVE",
"759 1117 OFFCURVE",
"530 1117 CURVE SMOOTH"
);
}
);
width = 1034;
},
{
anchors = (
{
name = bot;
position = "{752, 0}";
},
{
name = bottom;
position = "{752, 0}";
},
{
name = top;
position = "{752, 1300}";
}
);
layerId = "24819F8C-2CC6-4723-AD58-E43FF506A0F9";
name = Bold;
paths = (
{
closed = 1;
nodes = (
"357 1322 OFFCURVE",
"120 1266 OFFCURVE",
"120 900 CURVE SMOOTH",
"120 625 OFFCURVE",
"254 567 OFFCURVE",
"462 517 CURVE SMOOTH",
"589 486 OFFCURVE",
"800 480 OFFCURVE",
"828 446 CURVE",
"828 446 OFFCURVE",
"827 233 OFFCURVE",
"827 233 CURVE",
"754 233 LINE",
"680 233 LINE",
"680 400 LINE",
"150 397 LINE",
"150 8 OFFCURVE",
"388 -22 OFFCURVE",
"740 -22 CURVE SMOOTH",
"1147 -22 OFFCURVE",
"1388 6 OFFCURVE",
"1388 420 CURVE SMOOTH",
"1388 679 OFFCURVE",
"1247 736 OFFCURVE",
"1047 786 CURVE SMOOTH",
"919 818 OFFCURVE",
"714 827 OFFCURVE",
"680 861 CURVE",
"680 1063 LINE",
"754 1063 LINE",
"827 1063 LINE",
"827 924 LINE",
"1357 940 LINE",
"1357 1293 OFFCURVE",
"1122 1322 OFFCURVE",
"769 1322 CURVE SMOOTH"
);
}
);
width = 1469;
}
);
rightKerningGroup = s_left;
unicode = 0073;
userData = {
com.typemytype.robofont.layerData = {
};
};
},
{
glyphname = t;
lastChange = "2014-01-02 06:17:40 -0800";
layers = (
{
anchors = (
{
name = bot;
position = "{443, 0}";
},
{
name = caron.alt;
position = "{307, 1257}";
},
{
name = mid;
position = "{375, 671}";
},
{
name = top;
position = "{351, 1249}";
}
);
layerId = "4D3A9D47-CC41-4843-AE67-D0D92AD22A81";
name = Regular;
paths = (
{
closed = 1;
nodes = (
"248 1445 LINE",
"248 1097 LINE",
"79 1097 LINE",
"79 985 LINE",
"248 985 LINE",
"248 238 LINE SMOOTH",
"248 42 OFFCURVE",
"347 -12 OFFCURVE",
"501 -15 CURVE SMOOTH",
"562 -16 OFFCURVE",
"630 -10 OFFCURVE",
"705 -1 CURVE",
"709 139 LINE",
"507 115 OFFCURVE",
"444 129 OFFCURVE",
"444 235 CURVE SMOOTH",
"444 985 LINE",
"666 985 LINE",
"666 1097 LINE",
"444 1097 LINE",
"444 1445 LINE"
);
}
);
width = 793;
},
{
anchors = (
{
name = bot;
position = "{597, 0}";
},
{
name = bottom;
position = "{597, 0}";
},
{
name = caron.alt;
position = "{583, 1300}";
},
{
name = mid;
position = "{555, 753}";
},
{
name = top;
position = "{557, 1595}";
}
);
layerId = "24819F8C-2CC6-4723-AD58-E43FF506A0F9";
name = Bold;
paths = (
{
closed = 1;
nodes = (
"256 1595 LINE",
"256 1300 LINE",
"119 1300 LINE",
"119 1100 LINE",
"256 1100 LINE",
"256 359 LINE SMOOTH",
"256 37 OFFCURVE",
"411 -25 OFFCURVE",
"820 -25 CURVE SMOOTH",
"931 -25 OFFCURVE",
"1030 -7 OFFCURVE",
"1031 -7 CURVE",
"1031 223 LINE",
"922 223 OFFCURVE",
"827 241 OFFCURVE",
"827 328 CURVE SMOOTH",
"827 1100 LINE",
"986 1100 LINE",
"986 1300 LINE",
"827 1300 LINE",
"827 1595 LINE"
);
}
);
width = 1179;
}
);
rightKerningGroup = t_Left;
unicode = 0074;
userData = {
com.typemytype.robofont.layerData = {
};
};
},
{
glyphname = u;
lastChange = "2014-01-01 23:45:24 -0800";
layers = (
{
anchors = (
{
name = bot;
position = "{584, 0}";
},
{
name = ogonek;
position = "{910, 0}";
},
{
name = top;
position = "{580, 1097}";
}
);
layerId = "4D3A9D47-CC41-4843-AE67-D0D92AD22A81";
name = Regular;
paths = (
{
closed = 1;
nodes = (
"817 1097 LINE",
"817 383 LINE SMOOTH",
"817 235 OFFCURVE",
"848 117 OFFCURVE",
"577 117 CURVE SMOOTH",
"319 117 OFFCURVE",
"343 175 OFFCURVE",
"343 455 CURVE SMOOTH",
"343 1097 LINE",
"146 1097 LINE",
"146 449 LINE SMOOTH",
"146 108 OFFCURVE",
"205 -20 OFFCURVE",
"489 -20 CURVE SMOOTH",
"647 -20 OFFCURVE",
"779 29 OFFCURVE",
"816 140 CURVE",
"834 -1 LINE",
"1016 -1 LINE",
"1016 1097 LINE"
);
}
);
width = 1176;
},
{
anchors = (
{
name = ogonek;
position = "{1134, 0}";
},
{
name = top;
position = "{808, 1300}";
}
);
layerId = "24819F8C-2CC6-4723-AD58-E43FF506A0F9";
name = Bold;
paths = (
{
closed = 1;
nodes = (
"885 1300 LINE",
"885 195 LINE",
"801 195 LINE",
"718 195 LINE",
"718 1300 LINE",
"147 1300 LINE",
"147 356 LINE SMOOTH",
"147 105 OFFCURVE",
"295 -21 OFFCURVE",
"568 -22 CURVE SMOOTH",
"718 -22 OFFCURVE",
"850 29 OFFCURVE",
"909 112 CURVE",
"946 0 LINE",
"1456 0 LINE",
"1456 1300 LINE"
);
}
);
width = 1631;
}
);
leftKerningGroup = u_Left;
unicode = 0075;
userData = {
com.typemytype.robofont.layerData = {
b = {
anchors = (
);
components = (
);
contours = (
{
points = (
{
smooth = 0;
x = 636;
y = "-20";
},
{
smooth = 0;
x = 780;
y = 17;
},
{
segmentType = curve;
smooth = 0;
x = 817;
y = 134;
},
{
segmentType = line;
smooth = 0;
x = 836;
y = 0;
},
{
segmentType = line;
smooth = 0;
x = 1016;
y = 0;
},
{
segmentType = line;
smooth = 0;
x = 1016;
y = 1097;
},
{
segmentType = line;
smooth = 0;
x = 819;
y = 1097;
},
{
smooth = 0;
x = 819;
y = 1097;
},
{
smooth = 0;
x = 819;
y = 328;
},
{
segmentType = curve;
smooth = 0;
x = 819;
y = 328;
},
{
smooth = 0;
x = 819;
y = 184;
},
{
smooth = 0;
x = 770;
y = 118;
},
{
segmentType = curve;
smooth = 1;
x = 534;
y = 118;
},
{
smooth = 0;
x = 367;
y = 118;
},
{
smooth = 0;
x = 345;
y = 193;
},
{
segmentType = curve;
smooth = 1;
x = 345;
y = 374;
},
{
segmentType = line;
smooth = 0;
x = 345;
y = 1097;
},
{
segmentType = line;
smooth = 0;
x = 148;
y = 1097;
},
{
segmentType = line;
smooth = 1;
x = 148;
y = 372;
},
{
smooth = 0;
x = 148;
y = 129;
},
{
smooth = 0;
x = 203;
y = "-20";
},
{
segmentType = curve;
smooth = 1;
x = 490;
y = "-20";
}
);
}
);
lib = {
};
name = u;
unicodes = (
);
width = 1176;
};
};
};
},
{
glyphname = v;
lastChange = "2014-01-01 23:45:24 -0800";
layers = (
{
layerId = "4D3A9D47-CC41-4843-AE67-D0D92AD22A81";
name = Regular;
paths = (
{
closed = 1;
nodes = (
"790 1097 LINE",
"515 171 LINE",
"226 1097 LINE",
"41 1097 LINE",
"407 0 LINE",
"621 0 LINE",
"993 1097 LINE"
);
}
);
width = 1037;
},
{
layerId = "24819F8C-2CC6-4723-AD58-E43FF506A0F9";
name = Bold;
paths = (
{
closed = 1;
nodes = (
"883 1300 LINE",
"779 356 LINE",
"766 356 LINE",
"632 1300 LINE",
"81 1300 LINE",
"361 0 LINE",
"1155 0 LINE",
"1434 1300 LINE"
);
}
);
width = 1524;
}
);
leftKerningGroup = v_Left;
rightKerningGroup = v_Left;
unicode = 0076;
userData = {
com.typemytype.robofont.layerData = {
};
};
},
{
glyphname = w;
lastChange = "2014-01-01 23:45:24 -0800";
layers = (
{
anchors = (
{
name = bot;
position = "{794, 0}";
},
{
name = top;
position = "{729, 1097}";
}
);
layerId = "4D3A9D47-CC41-4843-AE67-D0D92AD22A81";
name = Regular;
paths = (
{
closed = 1;
nodes = (
"1326 1097 LINE",
"1123 205 LINE",
"888 1097 LINE",
"711 1097 LINE",
"481 213 LINE",
"265 1097 LINE",
"85 1097 LINE",
"373 0 LINE",
"575 0 LINE",
"803 859 LINE",
"1041 0 LINE",
"1223 0 LINE",
"1509 1097 LINE"
);
}
);
width = 1594;
},
{
anchors = (
{
name = bot;
position = "{1006, 0}";
},
{
name = top;
position = "{1006, 1300}";
}
);
layerId = "24819F8C-2CC6-4723-AD58-E43FF506A0F9";
name = Bold;
paths = (
{
closed = 1;
nodes = (
"1488 1300 LINE",
"1395 385 LINE",
"1381 385 LINE",
"1284 1300 LINE",
"739 1300 LINE",
"637 385 LINE",
"623 385 LINE",
"528 1300 LINE",
"28 1300 LINE",
"226 0 LINE",
"916 0 LINE",
"999 801 LINE",
"1009 801 LINE",
"1095 0 LINE",
"1789 0 LINE",
"1983 1300 LINE"
);
}
);
width = 2021;
}
);
leftKerningGroup = w_Left;
rightKerningGroup = w_Left;
unicode = 0077;
userData = {
com.typemytype.robofont.layerData = {
};
};
},
{
glyphname = x;
lastChange = "2014-01-01 23:45:24 -0800";
layers = (
{
layerId = "4D3A9D47-CC41-4843-AE67-D0D92AD22A81";
name = Regular;
paths = (
{
closed = 1;
nodes = (
"71 1097 LINE",
"761 0 LINE",
"968 0 LINE",
"277 1097 LINE"
);
},
{
closed = 1;
nodes = (
"776 1097 LINE",
"502 666 LINE",
"432 597 LINE",
"63 0 LINE",
"248 0 LINE",
"539 462 LINE",
"612 541 LINE",
"959 1097 LINE"
);
}
);
width = 1033;
},
{
layerId = "24819F8C-2CC6-4723-AD58-E43FF506A0F9";
name = Bold;
paths = (
{
closed = 1;
nodes = (
"826 1300 LINE",
"739 1049 LINE",
"653 1300 LINE",
"81 1300 LINE",
"454 652 LINE",
"81 0 LINE",
"648 0 LINE",
"739 258 LINE",
"830 0 LINE",
"1397 0 LINE",
"1024 652 LINE",
"1397 1300 LINE"
);
}
);
width = 1486;
}
);
unicode = 0078;
userData = {
com.typemytype.robofont.layerData = {
};
};
},
{
glyphname = y;
lastChange = "2014-01-01 23:45:24 -0800";
layers = (
{
anchors = (
{
name = bot;
position = "{518, 0}";
},
{
name = top;
position = "{526, 1097}";
}
);
layerId = "4D3A9D47-CC41-4843-AE67-D0D92AD22A81";
name = Regular;
paths = (
{
closed = 1;
nodes = (
"805 1097 LINE",
"544 217 LINE",
"543 217 LINE",
"237 1097 LINE",
"42 1097 LINE",
"462 8 LINE",
"441 -81 OFFCURVE",
"429 -139 OFFCURVE",
"404 -175 CURVE SMOOTH",
"379 -212 OFFCURVE",
"342 -226 OFFCURVE",
"272 -226 CURVE SMOOTH",
"240 -226 OFFCURVE",
"200 -223 OFFCURVE",
"152 -218 CURVE",
"138 -349 LINE",
"205 -355 OFFCURVE",
"261 -359 OFFCURVE",
"309 -359 CURVE SMOOTH",
"484 -359 OFFCURVE",
"550 -301 OFFCURVE",
"632 -41 CURVE SMOOTH",
"994 1097 LINE"
);
}
);
width = 1026;
},
{
anchors = (
{
name = bot;
position = "{747, 0}";
},
{
name = top;
position = "{747, 1300}";
}
);
layerId = "24819F8C-2CC6-4723-AD58-E43FF506A0F9";
name = Bold;
paths = (
{
closed = 1;
nodes = (
"882 1300 LINE",
"778 376 LINE",
"770 376 LINE",
"600 1300 LINE",
"73 1300 LINE",
"444 41 LINE SMOOTH",
"450 21 OFFCURVE",
"453 4 OFFCURVE",
"453 -10 CURVE SMOOTH",
"453 -59 OFFCURVE",
"420 -77 OFFCURVE",
"365 -77 CURVE SMOOTH",
"309 -77 OFFCURVE",
"231 -58 OFFCURVE",
"143 -33 CURVE",
"100 -344 LINE",
"228 -381 OFFCURVE",
"448 -411 OFFCURVE",
"566 -411 CURVE SMOOTH",
"820 -411 OFFCURVE",
"1022 -324 OFFCURVE",
"1106 -3 CURVE",
"1416 1300 LINE"
);
}
);
width = 1501;
}
);
leftKerningGroup = y_Left;
rightKerningGroup = y_Left;
unicode = 0079;
userData = {
com.typemytype.robofont.layerData = {
};
};
},
{
glyphname = z;
lastChange = "2014-01-01 23:45:24 -0800";
layers = (
{
anchors = (
{
name = bot;
position = "{445, 0}";
},
{
name = top;
position = "{395, 1097}";
}
);
layerId = "4D3A9D47-CC41-4843-AE67-D0D92AD22A81";
name = Regular;
paths = (
{
closed = 1;
nodes = (
"145 1097 LINE",
"154 960 LINE",
"621 960 LINE",
"119 141 LINE",
"136 0 LINE",
"815 0 LINE",
"824 135 LINE",
"318 135 LINE",
"818 960 LINE",
"809 1097 LINE"
);
}
);
width = 913;
},
{
anchors = (
{
name = bot;
position = "{656, 0}";
},
{
name = top;
position = "{656, 1300}";
}
);
layerId = "24819F8C-2CC6-4723-AD58-E43FF506A0F9";
name = Bold;
paths = (
{
closed = 1;
nodes = (
"193 1300 LINE",
"204 1051 LINE",
"538 1051 LINE",
"173 233 LINE",
"197 0 LINE",
"1154 0 LINE",
"1169 246 LINE",
"798 246 LINE",
"1154 1079 LINE",
"1131 1300 LINE"
);
}
);
width = 1288;
}
);
unicode = 007A;
userData = {
com.typemytype.robofont.layerData = {
};
};
},
{
glyphname = braceleft;
lastChange = "2014-01-01 23:45:24 -0800";
layers = (
{
layerId = "4D3A9D47-CC41-4843-AE67-D0D92AD22A81";
name = Regular;
paths = (
{
closed = 1;
nodes = (
"413 1638 OFFCURVE",
"346.99 1543.99 OFFCURVE",
"343 1141 CURVE SMOOTH",
"340 831 OFFCURVE",
"272 802 OFFCURVE",
"84 802 CURVE",
"84 625 LINE",
"272 625 OFFCURVE",
"340 596 OFFCURVE",
"343 286 CURVE SMOOTH",
"346.99 -117 OFFCURVE",
"413 -211 OFFCURVE",
"786 -211 CURVE",
"786 -87 LINE",
"537 -87 OFFCURVE",
"532 -39 OFFCURVE",
"532 287 CURVE SMOOTH",
"532 539 OFFCURVE",
"503 682 OFFCURVE",
"338 713 CURVE",
"503 745 OFFCURVE",
"532 888 OFFCURVE",
"532 1140 CURVE SMOOTH",
"532 1466 OFFCURVE",
"537 1514 OFFCURVE",
"786 1514 CURVE",
"786 1638 LINE"
);
}
);
width = 851;
},
{
layerId = "24819F8C-2CC6-4723-AD58-E43FF506A0F9";
name = Bold;
paths = (
{
closed = 1;
nodes = (
"640 1922 OFFCURVE",
"352 1814 OFFCURVE",
"352 1226 CURVE SMOOTH",
"352 1026 OFFCURVE",
"354 934 OFFCURVE",
"164 934 CURVE",
"164 658 LINE",
"354 658 OFFCURVE",
"352 566 OFFCURVE",
"352 366 CURVE SMOOTH",
"352 -222 OFFCURVE",
"640 -330 OFFCURVE",
"1180 -330 CURVE",
"1180 -51 LINE",
"848 -51 OFFCURVE",
"827 14 OFFCURVE",
"828 304 CURVE SMOOTH",
"828 633 OFFCURVE",
"769 754 OFFCURVE",
"608 796 CURVE",
"769 838 OFFCURVE",
"828 959 OFFCURVE",
"828 1288 CURVE SMOOTH",
"827 1578 OFFCURVE",
"848 1643 OFFCURVE",
"1180 1643 CURVE",
"1180 1922 LINE"
);
}
);
width = 1292;
}
);
unicode = 007B;
},
{
glyphname = bar;
lastChange = "2014-01-01 23:45:24 -0800";
layers = (
{
layerId = "4D3A9D47-CC41-4843-AE67-D0D92AD22A81";
name = Regular;
paths = (
{
closed = 1;
nodes = (
"161 1638 LINE",
"161 -176 LINE",
"336 -176 LINE",
"336 1638 LINE"
);
}
);
width = 497;
},
{
layerId = "24819F8C-2CC6-4723-AD58-E43FF506A0F9";
name = Bold;
paths = (
{
closed = 1;
nodes = (
"301 1795 LINE",
"301 -100 LINE",
"872 -100 LINE",
"872 1795 LINE"
);
}
);
width = 1185;
}
);
unicode = 007C;
},
{
glyphname = braceright;
lastChange = "2014-01-01 23:45:24 -0800";
layers = (
{
layerId = "4D3A9D47-CC41-4843-AE67-D0D92AD22A81";
name = Regular;
paths = (
{
closed = 1;
nodes = (
"94 1514 LINE",
"343 1514 OFFCURVE",
"348 1466 OFFCURVE",
"348 1140 CURVE SMOOTH",
"348 888 OFFCURVE",
"377 745 OFFCURVE",
"542 713 CURVE",
"377 682 OFFCURVE",
"348 539 OFFCURVE",
"348 287 CURVE SMOOTH",
"348 -39 OFFCURVE",
"343 -87 OFFCURVE",
"94 -87 CURVE",
"94 -211 LINE",
"467 -211 OFFCURVE",
"534 -117 OFFCURVE",
"536 185 CURVE SMOOTH",
"537 286 LINE SMOOTH",
"540 596 OFFCURVE",
"608 625 OFFCURVE",
"796 625 CURVE",
"796 802 LINE",
"608 802 OFFCURVE",
"540 831 OFFCURVE",
"537 1141 CURVE SMOOTH",
"536 1242 LINE SMOOTH",
"534 1544 OFFCURVE",
"467 1638 OFFCURVE",
"94 1638 CURVE"
);
}
);
width = 850;
},
{
layerId = "24819F8C-2CC6-4723-AD58-E43FF506A0F9";
name = Bold;
paths = (
{
closed = 1;
nodes = (
"104 1646 LINE",
"668 1646 OFFCURVE",
"314 1008 OFFCURVE",
"595 796 CURVE",
"314 612 OFFCURVE",
"668 -51 OFFCURVE",
"103 -51 CURVE",
"103 -330 LINE",
"643 -330 OFFCURVE",
"894 -166 OFFCURVE",
"931 366 CURVE",
"948 495 OFFCURVE",
"929 658 OFFCURVE",
"1119 658 CURVE",
"1119 937 LINE",
"931 937 OFFCURVE",
"948 1090 OFFCURVE",
"930 1228 CURVE SMOOTH",
"860 1752 OFFCURVE",
"643 1925 OFFCURVE",
"104 1925 CURVE"
);
}
);
width = 1292;
}
);
unicode = 007D;
},
{
glyphname = asciitilde;
lastChange = "2014-01-01 23:45:24 -0800";
layers = (
{
layerId = "4D3A9D47-CC41-4843-AE67-D0D92AD22A81";
name = Regular;
paths = (
{
closed = 1;
nodes = (
"250 932 OFFCURVE",
"172 887 OFFCURVE",
"134 745 CURVE",
"163 703 LINE",
"213 749 OFFCURVE",
"261 766 OFFCURVE",
"309 766 CURVE SMOOTH",
"444 766 OFFCURVE",
"576 632 OFFCURVE",
"734 632 CURVE SMOOTH",
"837 632 OFFCURVE",
"922 684 OFFCURVE",
"961 847 CURVE",
"927 897 LINE",
"850 835 OFFCURVE",
"793 814 OFFCURVE",
"742 814 CURVE SMOOTH",
"623 814 OFFCURVE",
"542 932 OFFCURVE",
"343 932 CURVE SMOOTH"
);
}
);
width = 1094;
},
{
layerId = "24819F8C-2CC6-4723-AD58-E43FF506A0F9";
name = Bold;
paths = (
{
closed = 1;
nodes = (
"831 1201 OFFCURVE",
"747 1008 OFFCURVE",
"558 1008 CURVE SMOOTH",
"471 1008 OFFCURVE",
"446 1089 OFFCURVE",
"446 1176 CURVE",
"150 1176 LINE",
"150 885 OFFCURVE",
"212 616 OFFCURVE",
"557 616 CURVE SMOOTH",
"792 616 OFFCURVE",
"861 806 OFFCURVE",
"1027 806 CURVE SMOOTH",
"1105 806 OFFCURVE",
"1134 728 OFFCURVE",
"1134 642 CURVE",
"1431 642 LINE",
"1431 992 OFFCURVE",
"1389 1201 OFFCURVE",
"1085 1201 CURVE SMOOTH"
);
}
);
width = 1593;
}
);
unicode = 007E;
},
{
glyphname = exclamdown;
lastChange = "2014-01-01 23:45:24 -0800";
layers = (
{
components = (
{
name = exclam;
transform = "{1, 0, 0, -1, 30, 1196}";
}
);
layerId = "4D3A9D47-CC41-4843-AE67-D0D92AD22A81";
name = Regular;
width = 578;
},
{
layerId = "24819F8C-2CC6-4723-AD58-E43FF506A0F9";
name = Bold;
paths = (
{
closed = 1;
nodes = (
"514 1057 OFFCURVE",
"489 1035 OFFCURVE",
"478 989 CURVE",
"479 989 LINE",
"416 716 OFFCURVE",
"286 337 OFFCURVE",
"286 183 CURVE SMOOTH",
"286 36 OFFCURVE",
"411 -35 OFFCURVE",
"537 -35 CURVE SMOOTH",
"666 -35 OFFCURVE",
"797 40 OFFCURVE",
"797 185 CURVE SMOOTH",
"797 343 OFFCURVE",
"663 722 OFFCURVE",
"599 989 CURVE SMOOTH",
"589 1034 OFFCURVE",
"564 1057 OFFCURVE",
"539 1057 CURVE SMOOTH"
);
},
{
closed = 1;
nodes = (
"420 1627 OFFCURVE",
"320 1551 OFFCURVE",
"320 1391 CURVE",
"319 1392 LINE",
"319 1256 OFFCURVE",
"421 1187 OFFCURVE",
"523 1187 CURVE SMOOTH",
"626 1187 OFFCURVE",
"729 1257 OFFCURVE",
"729 1398 CURVE SMOOTH",
"729 1548 OFFCURVE",
"624 1627 OFFCURVE",
"521 1627 CURVE SMOOTH"
);
}
);
width = 1085;
}
);
unicode = 00A1;
userData = {
com.typemytype.robofont.layerData = {
};
};
},
{
glyphname = cent;
lastChange = "2014-01-01 23:45:24 -0800";
layers = (
{
components = (
{
name = C;
transform = "{0.960, 0, 0, 0.820, 27, 132}";
}
);
layerId = "4D3A9D47-CC41-4843-AE67-D0D92AD22A81";
name = Regular;
paths = (
{
closed = 1;
nodes = (
"672 1685 LINE",
"672 -171 LINE",
"745 -171 LINE",
"745 1685 LINE"
);
}
);
width = 1357;
},
{
layerId = "24819F8C-2CC6-4723-AD58-E43FF506A0F9";
name = Bold;
paths = (
{
closed = 1;
nodes = (
"791 1578 LINE",
"791 1343 LINE",
"510 1341 OFFCURVE",
"171 1310 OFFCURVE",
"171 969 CURVE SMOOTH",
"171 529 LINE SMOOTH",
"171 187 OFFCURVE",
"492 149 OFFCURVE",
"791 147 CURVE",
"791 -74 LINE",
"870 -74 LINE",
"870 147 LINE",
"1162 149 OFFCURVE",
"1481 180 OFFCURVE",
"1481 523 CURVE SMOOTH",
"1481 633 LINE",
"970 633 LINE",
"970 373 LINE",
"870 373 LINE",
"870 1119 LINE",
"970 1119 LINE",
"970 881 LINE",
"1481 881 LINE",
"1481 992 LINE SMOOTH",
"1481 1309 OFFCURVE",
"1111 1340 OFFCURVE",
"870 1343 CURVE",
"870 1578 LINE"
);
},
{
closed = 1;
nodes = (
"791 373 LINE",
"683 373 LINE",
"683 1119 LINE",
"791 1119 LINE"
);
}
);
width = 1651;
}
);
unicode = 00A2;
},
{
glyphname = sterling;
lastChange = "2014-01-01 23:45:24 -0800";
layers = (
{
layerId = "4D3A9D47-CC41-4843-AE67-D0D92AD22A81";
name = Regular;
paths = (
{
closed = 1;
nodes = (
"481 1542 OFFCURVE",
"304 1488 OFFCURVE",
"304 1112 CURVE SMOOTH",
"304 1023 OFFCURVE",
"313 931 OFFCURVE",
"320 841 CURVE",
"172 841 LINE",
"172 702 LINE",
"324 702 LINE",
"323 578 OFFCURVE",
"322 420 OFFCURVE",
"319 341 CURVE SMOOTH",
"315 245 OFFCURVE",
"297 229 OFFCURVE",
"170 220 CURVE",
"170 0 LINE",
"182 0 OFFCURVE",
"194 0 OFFCURVE",
"206 1 CURVE SMOOTH",
"319 9 OFFCURVE",
"383 55 OFFCURVE",
"398 139 CURVE",
"428 6 OFFCURVE",
"608 0 OFFCURVE",
"857 0 CURVE SMOOTH",
"1167 0 OFFCURVE",
"1265 23 OFFCURVE",
"1302 186 CURVE SMOOTH",
"1316 248 OFFCURVE",
"1322 329 OFFCURVE",
"1327 437 CURVE",
"1172 465 LINE",
"1157 238 LINE SMOOTH",
"1152 169 OFFCURVE",
"1033 161 OFFCURVE",
"877 161 CURVE SMOOTH",
"651 161 OFFCURVE",
"516 176 OFFCURVE",
"500 227 CURVE",
"515 379 OFFCURVE",
"522 546 OFFCURVE",
"524 701 CURVE",
"997 701 LINE",
"997 840 LINE",
"521 840 LINE",
"515 963 OFFCURVE",
"504 1107 OFFCURVE",
"504 1225 CURVE SMOOTH",
"504 1325 OFFCURVE",
"530 1371 OFFCURVE",
"874 1371 CURVE SMOOTH",
"1020 1371 OFFCURVE",
"1089 1362 OFFCURVE",
"1097 1289 CURVE SMOOTH",
"1105 1217 OFFCURVE",
"1106 1126 OFFCURVE",
"1109 1054 CURVE",
"1286 1077 LINE",
"1280 1188 OFFCURVE",
"1275 1275 OFFCURVE",
"1259 1343 CURVE SMOOTH",
"1223 1491 OFFCURVE",
"1132 1542 OFFCURVE",
"850 1542 CURVE SMOOTH"
);
}
);
width = 1497;
},
{
layerId = "24819F8C-2CC6-4723-AD58-E43FF506A0F9";
name = Bold;
paths = (
{
closed = 1;
nodes = (
"507.242 1632 OFFCURVE",
"278 1482.43 OFFCURVE",
"278 1065 CURVE SMOOTH",
"278 941 LINE",
"120 941 LINE",
"120 719 LINE",
"278 719 LINE",
"278 376 LINE SMOOTH",
"278 297 OFFCURVE",
"191 275 OFFCURVE",
"120 266 CURVE",
"120 266 OFFCURVE",
"118 0 OFFCURVE",
"118 0 CURVE",
"345 0 LINE",
"576.486 2.18383 OFFCURVE",
"721.696 21.1616 OFFCURVE",
"825 130 CURVE",
"881.515 73.4845 OFFCURVE",
"984.549 0 OFFCURVE",
"1141 0 CURVE SMOOTH",
"1439.83 0 OFFCURVE",
"1572 110.359 OFFCURVE",
"1572 385 CURVE SMOOTH",
"1572 562 LINE",
"991 562 LINE",
"991 268 LINE",
"927 268 LINE",
"863 268 LINE",
"863 718 LINE",
"1290 718 LINE",
"1290 940 LINE",
"863 940 LINE",
"863 1364 LINE",
"916.5 1364 LINE",
"970 1364 LINE",
"970 1070 LINE",
"1551 1070 LINE",
"1551 1274 OFFCURVE",
"1550 1302 OFFCURVE",
"1548 1331 CURVE SMOOTH",
"1527 1593 OFFCURVE",
"1233 1632 OFFCURVE",
"937 1632 CURVE SMOOTH"
);
}
);
width = 1713;
}
);
unicode = 00A3;
},
{
glyphname = currency;
lastChange = "2014-01-01 23:45:24 -0800";
layers = (
{
layerId = "4D3A9D47-CC41-4843-AE67-D0D92AD22A81";
name = Regular;
paths = (
{
closed = 1;
nodes = (
"150 1241 LINE",
"288 1070 LINE",
"210 996 OFFCURVE",
"171 894 OFFCURVE",
"171 764 CURVE SMOOTH",
"171 633 OFFCURVE",
"210 531 OFFCURVE",
"288 457 CURVE",
"149 287 LINE",
"212 218 LINE",
"362 398 LINE",
"421 365 OFFCURVE",
"497 349 OFFCURVE",
"590 349 CURVE SMOOTH",
"679 349 OFFCURVE",
"754 365 OFFCURVE",
"815 397 CURVE",
"965 218 LINE",
"1029 287 LINE",
"890 457 LINE",
"970 533 OFFCURVE",
"1010 636 OFFCURVE",
"1010 765 CURVE SMOOTH",
"1010 894 OFFCURVE",
"970 996 OFFCURVE",
"890 1071 CURVE",
"1028 1240 LINE",
"964 1310 LINE",
"812 1133 LINE",
"753 1170 OFFCURVE",
"678 1189 OFFCURVE",
"588 1189 CURVE SMOOTH",
"497 1189 OFFCURVE",
"422 1169 OFFCURVE",
"363 1130 CURVE",
"213 1311 LINE"
);
},
{
closed = 1;
nodes = (
"813 1098 OFFCURVE",
"903 989 OFFCURVE",
"903 772 CURVE SMOOTH",
"903 555 OFFCURVE",
"799 447 OFFCURVE",
"590 447 CURVE SMOOTH",
"370 447 OFFCURVE",
"276 552 OFFCURVE",
"276 773 CURVE SMOOTH",
"276 990 OFFCURVE",
"381 1098 OFFCURVE",
"590 1098 CURVE SMOOTH"
);
}
);
width = 1178;
},
{
layerId = "24819F8C-2CC6-4723-AD58-E43FF506A0F9";
name = Bold;
paths = (
{
closed = 1;
nodes = (
"1147 1287 LINE",
"1045 1326 OFFCURVE",
"928 1343 OFFCURVE",
"779 1343 CURVE SMOOTH",
"628 1343 OFFCURVE",
"509 1326 OFFCURVE",
"407 1286 CURVE",
"289 1414 LINE",
"209 1330 LINE",
"301 1229 LINE",
"183 1142 OFFCURVE",
"150 1004 OFFCURVE",
"150 804 CURVE SMOOTH",
"150 602 OFFCURVE",
"199 483 OFFCURVE",
"326 401 CURVE",
"208 273 LINE",
"288 189 LINE",
"436 349 LINE",
"531 315 OFFCURVE",
"642 300 OFFCURVE",
"780 299 CURVE SMOOTH",
"915 299 OFFCURVE",
"1021 314 OFFCURVE",
"1118 346 CURVE",
"1264 188 LINE",
"1345 272 LINE",
"1227 398 LINE",
"1353 479 OFFCURVE",
"1407 605 OFFCURVE",
"1407 804 CURVE SMOOTH",
"1407 1016 OFFCURVE",
"1375 1143 OFFCURVE",
"1253 1231 CURVE",
"1344 1330 LINE",
"1263 1414 LINE"
);
},
{
closed = 1;
nodes = (
"831 570 LINE",
"719 570 LINE",
"719 1070 LINE",
"831 1070 LINE"
);
}
);
width = 1563;
}
);
unicode = 00A4;
},
{
glyphname = yen;
lastChange = "2014-01-01 23:45:24 -0800";
layers = (
{
layerId = "4D3A9D47-CC41-4843-AE67-D0D92AD22A81";
name = Regular;
paths = (
{
closed = 1;
nodes = (
"992 1490 LINE",
"661 727 LINE",
"336 1490 LINE",
"115 1490 LINE",
"502 631 LINE",
"241 631 LINE",
"241 518 LINE",
"553 518 LINE",
"553 347 LINE",
"288 347 LINE",
"288 261 LINE",
"553 261 LINE",
"553 0 LINE",
"755 0 LINE",
"755 261 LINE",
"1032 261 LINE",
"1032 347 LINE",
"755 347 LINE",
"755 518 LINE",
"1079 518 LINE",
"1079 631 LINE",
"807 631 LINE",
"1206 1490 LINE"
);
}
);
width = 1319;
},
{
layerId = "24819F8C-2CC6-4723-AD58-E43FF506A0F9";
name = Bold;
paths = (
{
closed = 1;
nodes = (
"1008 1595 LINE",
"849 1021 LINE",
"832 815 LINE",
"803 815 LINE",
"786 1021 LINE",
"632 1595 LINE",
"72 1595 LINE",
"412 728 LINE",
"167 728 LINE",
"167 585 LINE",
"468 585 LINE",
"517 459 LINE",
"517 442 LINE",
"167 442 LINE",
"167 299 LINE",
"517 299 LINE",
"517 0 LINE",
"1122 0 LINE",
"1122 299 LINE",
"1465 299 LINE",
"1465 442 LINE",
"1122 442 LINE",
"1122 449 LINE",
"1174 585 LINE",
"1465 585 LINE",
"1465 728 LINE",
"1230 728 LINE",
"1564 1595 LINE"
);
}
);
width = 1644;
}
);
unicode = 00A5;
},
{
glyphname = brokenbar;
lastChange = "2014-01-01 23:45:24 -0800";
layers = (
{
layerId = "4D3A9D47-CC41-4843-AE67-D0D92AD22A81";
name = Regular;
paths = (
{
closed = 1;
nodes = (
"170 1638 LINE",
"170 826 LINE",
"357 826 LINE",
"357 1638 LINE"
);
},
{
closed = 1;
nodes = (
"170 570 LINE",
"170 -242 LINE",
"357 -242 LINE",
"357 570 LINE"
);
}
);
width = 509;
},
{
layerId = "24819F8C-2CC6-4723-AD58-E43FF506A0F9";
name = Bold;
paths = (
{
closed = 1;
nodes = (
"301 1708 LINE",
"301 797 LINE",
"872 797 LINE",
"872 1708 LINE"
);
},
{
closed = 1;
nodes = (
"301 656 LINE",
"301 -255 LINE",
"872 -255 LINE",
"872 656 LINE"
);
}
);
width = 1185;
}
);
unicode = 00A6;
},
{
glyphname = section;
lastChange = "2014-01-01 23:45:24 -0800";
layers = (
{
layerId = "4D3A9D47-CC41-4843-AE67-D0D92AD22A81";
name = Regular;
paths = (
{
closed = 1;
nodes = (
"278 1540 OFFCURVE",
"174 1475 OFFCURVE",
"174 1209 CURVE SMOOTH",
"174 1073 OFFCURVE",
"205 977 OFFCURVE",
"268 920 CURVE",
"204 870 OFFCURVE",
"172 793 OFFCURVE",
"172 689 CURVE SMOOTH",
"172 409 OFFCURVE",
"270 371 OFFCURVE",
"628 330 CURVE SMOOTH",
"737 317 OFFCURVE",
"770 258 OFFCURVE",
"770 125 CURVE SMOOTH",
"770 -55 OFFCURVE",
"742 -83 OFFCURVE",
"574 -83 CURVE SMOOTH",
"378 -83 OFFCURVE",
"329 -77 OFFCURVE",
"329 137 CURVE",
"157 137 LINE",
"157 -147 OFFCURVE",
"268 -213 OFFCURVE",
"550 -213 CURVE SMOOTH",
"829 -213 OFFCURVE",
"943 -153 OFFCURVE",
"943 122 CURVE SMOOTH",
"943 261 OFFCURVE",
"910 359 OFFCURVE",
"844 416 CURVE",
"913 466 OFFCURVE",
"946 547 OFFCURVE",
"946 660 CURVE SMOOTH",
"946 888 OFFCURVE",
"852 933 OFFCURVE",
"641 970 CURVE SMOOTH",
"367 1017 OFFCURVE",
"345 1023 OFFCURVE",
"345 1130 CURVE SMOOTH",
"345 1151 OFFCURVE",
"346 1175 OFFCURVE",
"346 1204 CURVE SMOOTH",
"346 1224 LINE SMOOTH",
"346 1405 OFFCURVE",
"400 1409 OFFCURVE",
"559 1409 CURVE SMOOTH",
"746 1409 OFFCURVE",
"780 1380 OFFCURVE",
"780 1190 CURVE",
"951 1190 LINE",
"951 1468 OFFCURVE",
"848 1540 OFFCURVE",
"561 1540 CURVE SMOOTH"
);
},
{
closed = 1;
nodes = (
"403 857 OFFCURVE",
"514 847 OFFCURVE",
"678 797 CURVE SMOOTH",
"745 776 OFFCURVE",
"769 741 OFFCURVE",
"769 612 CURVE SMOOTH",
"769 538 OFFCURVE",
"758 486 OFFCURVE",
"737 470 CURVE",
"385 527 OFFCURVE",
"348 496 OFFCURVE",
"348 702 CURVE SMOOTH",
"348 751 OFFCURVE",
"357 805 OFFCURVE",
"373 866 CURVE"
);
}
);
width = 1103;
},
{
layerId = "24819F8C-2CC6-4723-AD58-E43FF506A0F9";
name = Bold;
paths = (
{
closed = 1;
nodes = (
"470 1770 OFFCURVE",
"194 1727 OFFCURVE",
"194 1329 CURVE SMOOTH",
"194 1179 OFFCURVE",
"271 1093 OFFCURVE",
"371 1046 CURVE",
"370 1045 OFFCURVE",
"364 1043 OFFCURVE",
"354 1039 CURVE SMOOTH",
"256 1003 OFFCURVE",
"179 919 OFFCURVE",
"179 783 CURVE SMOOTH",
"179 555 OFFCURVE",
"337 487 OFFCURVE",
"561 487 CURVE SMOOTH",
"816 487 LINE",
"816 235 LINE",
"743 235 LINE",
"743 426 LINE",
"192 426 LINE",
"192 390 OFFCURVE",
"191 356 OFFCURVE",
"191 321 CURVE SMOOTH",
"191 -18 OFFCURVE",
"507 -40 OFFCURVE",
"770 -40 CURVE SMOOTH",
"1108 -40 OFFCURVE",
"1384 3 OFFCURVE",
"1384 401 CURVE SMOOTH",
"1384 532 OFFCURVE",
"1323 612 OFFCURVE",
"1243 660 CURVE SMOOTH",
"1224 672 OFFCURVE",
"1205 677 OFFCURVE",
"1189 685 CURVE",
"1206 685 OFFCURVE",
"1229 696 OFFCURVE",
"1248 705 CURVE SMOOTH",
"1334 745 OFFCURVE",
"1400 820 OFFCURVE",
"1400 949 CURVE SMOOTH",
"1400 1212 OFFCURVE",
"1071 1223 OFFCURVE",
"882 1231 CURVE SMOOTH",
"842 1233 OFFCURVE",
"781 1230 OFFCURVE",
"763 1248 CURVE",
"763 1497 LINE",
"836 1497 LINE",
"836 1306 LINE",
"1388 1306 LINE",
"1388 1342 OFFCURVE",
"1389 1376 OFFCURVE",
"1389 1411 CURVE SMOOTH",
"1389 1749 OFFCURVE",
"1070 1770 OFFCURVE",
"808 1770 CURVE SMOOTH"
);
},
{
closed = 1;
nodes = (
"823 748 LINE",
"754 748 LINE",
"754 971 LINE",
"823 971 LINE"
);
}
);
width = 1583;
}
);
unicode = 00A7;
},
{
glyphname = dieresis;
lastChange = "2014-01-01 23:46:25 -0800";
layers = (
{
anchors = (
{
name = _top;
position = "{491, 1097}";
}
);
layerId = "4D3A9D47-CC41-4843-AE67-D0D92AD22A81";
name = Regular;
paths = (
{
closed = 1;
nodes = (
"652 1490 OFFCURVE",
"600 1451 OFFCURVE",
"600 1373 CURVE SMOOTH",
"600 1293 OFFCURVE",
"651 1255 OFFCURVE",
"721 1255 CURVE SMOOTH",
"792 1255 OFFCURVE",
"841 1293 OFFCURVE",
"841 1373 CURVE SMOOTH",
"841 1452 OFFCURVE",
"792 1490 OFFCURVE",
"721 1490 CURVE SMOOTH"
);
},
{
closed = 1;
nodes = (
"197 1490 OFFCURVE",
"145 1451 OFFCURVE",
"145 1373 CURVE SMOOTH",
"145 1293 OFFCURVE",
"196 1255 OFFCURVE",
"266 1255 CURVE SMOOTH",
"337 1255 OFFCURVE",
"386 1293 OFFCURVE",
"386 1373 CURVE SMOOTH",
"386 1452 OFFCURVE",
"337 1490 OFFCURVE",
"266 1490 CURVE SMOOTH"
);
}
);
width = 982;
},
{
anchors = (
{
name = _top;
position = "{779, 1300}";
}
);
layerId = "24819F8C-2CC6-4723-AD58-E43FF506A0F9";
name = Bold;
paths = (
{
closed = 1;
nodes = (
"1009 1760 OFFCURVE",
"935 1704 OFFCURVE",
"935 1593 CURVE SMOOTH",
"935 1479 OFFCURVE",
"1008 1425 OFFCURVE",
"1108 1425 CURVE SMOOTH",
"1209 1425 OFFCURVE",
"1278 1479 OFFCURVE",
"1278 1593 CURVE SMOOTH",
"1278 1706 OFFCURVE",
"1209 1760 OFFCURVE",
"1108 1760 CURVE SMOOTH"
);
},
{
closed = 1;
nodes = (
"362 1760 OFFCURVE",
"288 1704 OFFCURVE",
"288 1593 CURVE SMOOTH",
"288 1479 OFFCURVE",
"360 1425 OFFCURVE",
"460 1425 CURVE SMOOTH",
"561 1425 OFFCURVE",
"631 1479 OFFCURVE",
"631 1593 CURVE SMOOTH",
"631 1706 OFFCURVE",
"561 1760 OFFCURVE",
"460 1760 CURVE SMOOTH"
);
}
);
width = 1463;
}
);
unicode = 00A8;
userData = {
com.typemytype.robofont.layerData = {
};
};
},
{
glyphname = copyright;
lastChange = "2014-01-01 23:19:49 -0800";
layers = (
{
layerId = "4D3A9D47-CC41-4843-AE67-D0D92AD22A81";
name = Regular;
paths = (
{
closed = 1;
nodes = (
"478 1628 OFFCURVE",
"42 1335 OFFCURVE",
"42 762 CURVE SMOOTH",
"42 200 OFFCURVE",
"466 -96 OFFCURVE",
"927 -96 CURVE SMOOTH",
"1366 -96 OFFCURVE",
"1790 206 OFFCURVE",
"1790 760 CURVE SMOOTH",
"1790 1330 OFFCURVE",
"1361 1628 OFFCURVE",
"917 1628 CURVE SMOOTH"
);
},
{
closed = 1;
nodes = (
"1288 1522 OFFCURVE",
"1663 1267 OFFCURVE",
"1663 759 CURVE SMOOTH",
"1663 268 OFFCURVE",
"1302 8 OFFCURVE",
"905 8 CURVE SMOOTH",
"532 8 OFFCURVE",
"169 270 OFFCURVE",
"169 759 CURVE SMOOTH",
"169 1268 OFFCURVE",
"541 1522 OFFCURVE",
"915 1522 CURVE SMOOTH"
);
},
{
closed = 1;
nodes = (
"559 1327 OFFCURVE",
"513 1214 OFFCURVE",
"513 865 CURVE SMOOTH",
"513 332 OFFCURVE",
"531 226 OFFCURVE",
"887 226 CURVE SMOOTH",
"1273 226 OFFCURVE",
"1300 283 OFFCURVE",
"1300 644 CURVE",
"1174 644 LINE",
"1162 395 OFFCURVE",
"1209 341 OFFCURVE",
"924 341 CURVE SMOOTH",
"687 341 OFFCURVE",
"651 370 OFFCURVE",
"651 515 CURVE SMOOTH",
"651 580 OFFCURVE",
"658 667 OFFCURVE",
"658 785 CURVE SMOOTH",
"658 1064 LINE SMOOTH",
"658 1187 OFFCURVE",
"669 1212 OFFCURVE",
"924 1212 CURVE SMOOTH",
"1158 1212 OFFCURVE",
"1172 1175 OFFCURVE",
"1172 1048 CURVE SMOOTH",
"1172 992 LINE SMOOTH",
"1172 967 OFFCURVE",
"1172 939 OFFCURVE",
"1174 909 CURVE",
"1300 909 LINE",
"1300 1285 OFFCURVE",
"1238 1327 OFFCURVE",
"897 1327 CURVE SMOOTH"
);
}
);
width = 1826;
},
{
layerId = "24819F8C-2CC6-4723-AD58-E43FF506A0F9";
name = Bold;
paths = (
{
closed = 1;
nodes = (
"1057 272 CURVE SMOOTH",
"1302 272 OFFCURVE",
"1452 312 OFFCURVE",
"1452 542 CURVE SMOOTH",
"1452 749 LINE",
"1175 749 LINE",
"1175 432 LINE",
"976 432 LINE",
"976 1222 LINE",
"1175 1222 LINE",
"1175 913 LINE",
"1452 913 LINE",
"1452 1111 LINE SMOOTH",
"1452 1366 OFFCURVE",
"1254 1381 OFFCURVE",
"1057 1381 CURVE SMOOTH",
"828 1381 OFFCURVE",
"696 1334 OFFCURVE",
"696 1107 CURVE SMOOTH",
"696 547 LINE SMOOTH",
"696 315 OFFCURVE",
"842 272 OFFCURVE"
);
},
{
closed = 1;
nodes = (
"1073 68 CURVE SMOOTH",
"664 68 OFFCURVE",
"464 169 OFFCURVE",
"464 535 CURVE SMOOTH",
"464 1114 LINE SMOOTH",
"464 1471 OFFCURVE",
"661 1573 OFFCURVE",
"1073 1573 CURVE SMOOTH",
"1416 1573 OFFCURVE",
"1682 1500 OFFCURVE",
"1682 1165 CURVE SMOOTH",
"1682 482 LINE SMOOTH",
"1682 156 OFFCURVE",
"1441 68 OFFCURVE"
);
},
{
closed = 1;
nodes = (
"1073 -101 CURVE SMOOTH",
"1518 -101 OFFCURVE",
"1921 14 OFFCURVE",
"1921 539 CURVE SMOOTH",
"1921 1116 LINE SMOOTH",
"1921 1610 OFFCURVE",
"1582 1749 OFFCURVE",
"1073 1749 CURVE SMOOTH",
"631 1749 OFFCURVE",
"225 1638 OFFCURVE",
"225 1116 CURVE SMOOTH",
"225 539 LINE SMOOTH",
"225 42 OFFCURVE",
"562 -101 OFFCURVE"
);
}
);
width = 2156;
}
);
unicode = 00A9;
},
{
glyphname = ordfeminine;
lastChange = "2014-01-01 23:19:49 -0800";
layers = (
{
layerId = "4D3A9D47-CC41-4843-AE67-D0D92AD22A81";
name = Regular;
paths = (
{
closed = 1;
nodes = (
"312 1490 OFFCURVE",
"191 1469 OFFCURVE",
"191 1274 CURVE SMOOTH",
"191 1265 OFFCURVE",
"191 1256 OFFCURVE",
"192 1246 CURVE",
"315 1242 LINE",
"314 1256 OFFCURVE",
"314 1269 OFFCURVE",
"314 1280 CURVE SMOOTH",
"314 1350 OFFCURVE",
"336 1378 OFFCURVE",
"498 1378 CURVE SMOOTH",
"668 1378 OFFCURVE",
"674 1355 OFFCURVE",
"674 1268 CURVE SMOOTH",
"674 1066 LINE",
"652 1066 OFFCURVE",
"627 1067 OFFCURVE",
"603 1067 CURVE SMOOTH",
"326 1067 OFFCURVE",
"139 1022 OFFCURVE",
"139 864 CURVE SMOOTH",
"139 646 OFFCURVE",
"193 564 OFFCURVE",
"409 564 CURVE SMOOTH",
"557 564 OFFCURVE",
"647 583 OFFCURVE",
"682 704 CURVE",
"707 576 LINE",
"835 576 LINE",
"835 1171 LINE SMOOTH",
"835 1424 OFFCURVE",
"754 1490 OFFCURVE",
"508 1490 CURVE SMOOTH"
);
},
{
closed = 1;
nodes = (
"674 871 LINE SMOOTH",
"670 760 OFFCURVE",
"648 675 OFFCURVE",
"432 675 CURVE SMOOTH",
"287 675 OFFCURVE",
"287 704 OFFCURVE",
"287 859 CURVE SMOOTH",
"287 938 OFFCURVE",
"347 964 OFFCURVE",
"674 968 CURVE"
);
}
);
width = 984;
},
{
layerId = "24819F8C-2CC6-4723-AD58-E43FF506A0F9";
name = Bold;
paths = (
{
closed = 1;
nodes = (
"548 263 CURVE SMOOTH",
"712 263 OFFCURVE",
"827 327 OFFCURVE",
"888 428 CURVE",
"944 290 LINE",
"1464 290 LINE",
"1448 364 OFFCURVE",
"1436 451 OFFCURVE",
"1436 547 CURVE",
"1435 546 LINE",
"1435 1241 LINE SMOOTH",
"1435 1420 OFFCURVE",
"1374 1499 OFFCURVE",
"1241 1553 CURVE SMOOTH",
"1123 1601 OFFCURVE",
"976 1616 OFFCURVE",
"794 1616 CURVE SMOOTH",
"501 1616 OFFCURVE",
"190 1580 OFFCURVE",
"190 1294 CURVE SMOOTH",
"190 1255 OFFCURVE",
"195 1219 OFFCURVE",
"201 1184 CURVE",
"726 1204 LINE",
"726 1395 LINE",
"865 1395 LINE",
"865 1072 LINE",
"792 1096 OFFCURVE",
"706 1113 OFFCURVE",
"599 1113 CURVE SMOOTH",
"289 1113 OFFCURVE",
"127 982 OFFCURVE",
"127 677 CURVE SMOOTH",
"127 396 OFFCURVE",
"263 263 OFFCURVE"
);
},
{
closed = 1;
nodes = (
"699 489 LINE",
"699 942 LINE",
"865 942 LINE",
"865 489 LINE"
);
}
);
width = 1616;
}
);
unicode = 00AA;
},
{
glyphname = guillemotleft;
lastChange = "2014-01-01 23:19:49 -0800";
layers = (
{
layerId = "4D3A9D47-CC41-4843-AE67-D0D92AD22A81";
name = Regular;
paths = (
{
closed = 1;
nodes = (
"123 775 LINE",
"123 677 LINE",
"598 253 LINE",
"693 366 LINE",
"272 726 LINE",
"693 1086 LINE",
"598 1199 LINE"
);
},
{
closed = 1;
nodes = (
"523 775 LINE",
"523 677 LINE",
"997 253 LINE",
"1092 366 LINE",
"671 726 LINE",
"1092 1086 LINE",
"997 1199 LINE"
);
}
);
width = 1231;
},
{
layerId = "24819F8C-2CC6-4723-AD58-E43FF506A0F9";
name = Bold;
paths = (
{
closed = 1;
nodes = (
"753 190 CURVE SMOOTH",
"799 190 OFFCURVE",
"834 230 OFFCURVE",
"834 277 CURVE SMOOTH",
"834 300 OFFCURVE",
"828 323 OFFCURVE",
"811 345 CURVE SMOOTH",
"477 777 LINE",
"811 1209 LINE SMOOTH",
"829 1233 OFFCURVE",
"836 1256 OFFCURVE",
"836 1278 CURVE SMOOTH",
"836 1326 OFFCURVE",
"801 1364 OFFCURVE",
"755 1364 CURVE SMOOTH",
"736 1364 OFFCURVE",
"714 1358 OFFCURVE",
"690 1341 CURVE SMOOTH",
"163 961 LINE SMOOTH",
"105 919 OFFCURVE",
"74 846 OFFCURVE",
"73 775 CURVE SMOOTH",
"73 706 OFFCURVE",
"103 636 OFFCURVE",
"163 593 CURVE SMOOTH",
"690 213 LINE SMOOTH",
"711 197 OFFCURVE",
"734 190 OFFCURVE"
);
},
{
closed = 1;
nodes = (
"1489 190 CURVE SMOOTH",
"1535 190 OFFCURVE",
"1569 230 OFFCURVE",
"1569 277 CURVE SMOOTH",
"1569 300 OFFCURVE",
"1564 323 OFFCURVE",
"1547 345 CURVE SMOOTH",
"1213 777 LINE",
"1547 1209 LINE SMOOTH",
"1565 1233 OFFCURVE",
"1571 1256 OFFCURVE",
"1571 1278 CURVE SMOOTH",
"1571 1326 OFFCURVE",
"1537 1364 OFFCURVE",
"1491 1364 CURVE SMOOTH",
"1473 1364 OFFCURVE",
"1449 1358 OFFCURVE",
"1425 1341 CURVE SMOOTH",
"899 961 LINE SMOOTH",
"841 919 OFFCURVE",
"810 846 OFFCURVE",
"809 775 CURVE SMOOTH",
"809 706 OFFCURVE",
"839 636 OFFCURVE",
"899 593 CURVE SMOOTH",
"1425 213 LINE SMOOTH",
"1448 196 OFFCURVE",
"1470 190 OFFCURVE"
);
}
);
width = 1662;
}
);
unicode = 00AB;
},
{
glyphname = logicalnot;
lastChange = "2014-01-01 23:19:49 -0800";
layers = (
{
layerId = "4D3A9D47-CC41-4843-AE67-D0D92AD22A81";
name = Regular;
paths = (
{
closed = 1;
nodes = (
"127 797 LINE",
"127 647 LINE",
"902 647 LINE",
"902 262 LINE",
"1051 262 LINE",
"1051 797 LINE"
);
}
);
width = 1193;
},
{
layerId = "24819F8C-2CC6-4723-AD58-E43FF506A0F9";
name = Bold;
paths = (
{
closed = 1;
nodes = (
"1063 300 LINE",
"1292 300 LINE",
"1292 1105 LINE",
"196 1105 LINE",
"196 791 LINE",
"1063 791 LINE"
);
}
);
width = 1524;
}
);
unicode = 00AC;
},
{
glyphname = registered;
lastChange = "2014-01-01 23:19:49 -0800";
layers = (
{
layerId = "4D3A9D47-CC41-4843-AE67-D0D92AD22A81";
name = Regular;
paths = (
{
closed = 1;
nodes = (
"478 1628 OFFCURVE",
"42 1335 OFFCURVE",
"42 762 CURVE SMOOTH",
"42 200 OFFCURVE",
"466 -96 OFFCURVE",
"927 -96 CURVE SMOOTH",
"1366 -96 OFFCURVE",
"1790 206 OFFCURVE",
"1790 760 CURVE SMOOTH",
"1790 1330 OFFCURVE",
"1361 1628 OFFCURVE",
"917 1628 CURVE SMOOTH"
);
},
{
closed = 1;
nodes = (
"1288 1522 OFFCURVE",
"1663 1267 OFFCURVE",
"1663 759 CURVE SMOOTH",
"1663 268 OFFCURVE",
"1302 8 OFFCURVE",
"905 8 CURVE SMOOTH",
"532 8 OFFCURVE",
"169 270 OFFCURVE",
"169 759 CURVE SMOOTH",
"169 1268 OFFCURVE",
"541 1522 OFFCURVE",
"915 1522 CURVE SMOOTH"
);
},
{
closed = 1;
nodes = (
"587 1288 LINE",
"587 267 LINE",
"715 267 LINE",
"714 734 LINE",
"948 734 LINE SMOOTH",
"1103 734 OFFCURVE",
"1139 694 OFFCURVE",
"1137 518 CURVE SMOOTH",
"1137 268 LINE",
"1265 268 LINE",
"1265 609 LINE SMOOTH",
"1265 718 OFFCURVE",
"1217 779 OFFCURVE",
"1103 788 CURVE",
"1216 806 OFFCURVE",
"1273 874 OFFCURVE",
"1273 1021 CURVE SMOOTH",
"1273 1248 OFFCURVE",
"1185 1288 OFFCURVE",
"911 1288 CURVE SMOOTH"
);
},
{
closed = 1;
nodes = (
"1078 1183 OFFCURVE",
"1136 1176 OFFCURVE",
"1136 1007 CURVE SMOOTH",
"1136 854 OFFCURVE",
"1102 832 OFFCURVE",
"911 832 CURVE SMOOTH",
"714 832 LINE",
"714 1183 LINE",
"945 1183 LINE SMOOTH"
);
}
);
width = 1826;
},
{
layerId = "24819F8C-2CC6-4723-AD58-E43FF506A0F9";
name = Bold;
paths = (
{
closed = 1;
nodes = (
"624 279 LINE",
"1013 279 LINE",
"1013 756 LINE",
"1096 756 LINE",
"1096 279 LINE",
"1475 279 LINE",
"1475 643 LINE SMOOTH",
"1475 751 OFFCURVE",
"1429 822 OFFCURVE",
"1345 828 CURVE SMOOTH",
"1234 835 LINE",
"1234 854 LINE",
"1344 864 LINE SMOOTH",
"1426 871 OFFCURVE",
"1479 945 OFFCURVE",
"1479 1071 CURVE SMOOTH",
"1479 1164 LINE SMOOTH",
"1479 1423 OFFCURVE",
"1289 1434 OFFCURVE",
"1134 1434 CURVE SMOOTH",
"624 1434 LINE"
);
},
{
closed = 1;
nodes = (
"1050 68 CURVE SMOOTH",
"641 68 OFFCURVE",
"441 169 OFFCURVE",
"441 535 CURVE SMOOTH",
"441 1114 LINE SMOOTH",
"441 1471 OFFCURVE",
"638 1573 OFFCURVE",
"1050 1573 CURVE SMOOTH",
"1393 1573 OFFCURVE",
"1659 1500 OFFCURVE",
"1659 1165 CURVE SMOOTH",
"1659 482 LINE SMOOTH",
"1659 156 OFFCURVE",
"1418 68 OFFCURVE"
);
},
{
closed = 1;
nodes = (
"1050 -101 CURVE SMOOTH",
"1495 -101 OFFCURVE",
"1898 14 OFFCURVE",
"1898 539 CURVE SMOOTH",
"1898 1116 LINE SMOOTH",
"1898 1610 OFFCURVE",
"1559 1749 OFFCURVE",
"1050 1749 CURVE SMOOTH",
"608 1749 OFFCURVE",
"202 1638 OFFCURVE",
"202 1116 CURVE SMOOTH",
"202 539 LINE SMOOTH",
"202 42 OFFCURVE",
"539 -101 OFFCURVE"
);
},
{
closed = 1;
nodes = (
"1013 915 LINE",
"1013 1274 LINE",
"1096 1274 LINE",
"1096 915 LINE"
);
}
);
width = 2110;
}
);
unicode = 00AE;
},
{
glyphname = macron;
lastChange = "2014-01-01 23:46:25 -0800";
layers = (
{
anchors = (
{
name = _mid;
position = "{420, 1383}";
},
{
name = _top;
position = "{423, 1097}";
}
);
layerId = "4D3A9D47-CC41-4843-AE67-D0D92AD22A81";
name = Regular;
paths = (
{
closed = 1;
nodes = (
"129 1448 LINE",
"129 1321 LINE",
"726 1321 LINE",
"726 1448 LINE"
);
}
);
width = 846;
},
{
anchors = (
{
name = _mid;
position = "{783, 1624}";
},
{
name = _top;
position = "{777, 1300}";
}
);
layerId = "24819F8C-2CC6-4723-AD58-E43FF506A0F9";
name = Bold;
paths = (
{
closed = 1;
nodes = (
"364 1738 LINE",
"364 1507 LINE",
"1197 1507 LINE",
"1197 1738 LINE"
);
}
);
width = 1310;
}
);
unicode = 00AF;
userData = {
com.typemytype.robofont.layerData = {
};
};
},
{
glyphname = degree;
lastChange = "2014-01-01 23:19:49 -0800";
layers = (
{
layerId = "4D3A9D47-CC41-4843-AE67-D0D92AD22A81";
name = Regular;
paths = (
{
closed = 1;
nodes = (
"248 1597 OFFCURVE",
"130 1491 OFFCURVE",
"130 1322 CURVE SMOOTH",
"130 1152 OFFCURVE",
"248 1046 OFFCURVE",
"435 1046 CURVE SMOOTH",
"622 1046 OFFCURVE",
"740 1152 OFFCURVE",
"740 1322 CURVE SMOOTH",
"740 1491 OFFCURVE",
"622 1597 OFFCURVE",
"435 1597 CURVE SMOOTH"
);
},
{
closed = 1;
nodes = (
"533 1486 OFFCURVE",
"594 1422 OFFCURVE",
"594 1321 CURVE SMOOTH",
"594 1219 OFFCURVE",
"533 1155 OFFCURVE",
"435 1155 CURVE SMOOTH",
"339 1155 OFFCURVE",
"278 1219 OFFCURVE",
"278 1321 CURVE SMOOTH",
"278 1422 OFFCURVE",
"339 1486 OFFCURVE",
"435 1486 CURVE SMOOTH"
);
}
);
width = 866;
},
{
layerId = "24819F8C-2CC6-4723-AD58-E43FF506A0F9";
name = Bold;
paths = (
{
closed = 1;
nodes = (
"557 1222 CURVE SMOOTH",
"474 1222 OFFCURVE",
"416 1283 OFFCURVE",
"416 1371 CURVE SMOOTH",
"416 1459 OFFCURVE",
"474 1520 OFFCURVE",
"557 1520 CURVE SMOOTH",
"640 1520 OFFCURVE",
"698 1459 OFFCURVE",
"698 1371 CURVE SMOOTH",
"698 1283 OFFCURVE",
"640 1222 OFFCURVE"
);
},
{
closed = 1;
nodes = (
"557 1070 CURVE SMOOTH",
"765 1070 OFFCURVE",
"888 1218 OFFCURVE",
"888 1371 CURVE SMOOTH",
"888 1524 OFFCURVE",
"765 1672 OFFCURVE",
"557 1672 CURVE SMOOTH",
"349 1672 OFFCURVE",
"226 1524 OFFCURVE",
"226 1371 CURVE SMOOTH",
"226 1218 OFFCURVE",
"349 1070 OFFCURVE"
);
}
);
width = 1127;
}
);
unicode = 00B0;
},
{
glyphname = plusminus;
lastChange = "2014-01-01 23:19:49 -0800";
layers = (
{
layerId = "4D3A9D47-CC41-4843-AE67-D0D92AD22A81";
name = Regular;
paths = (
{
closed = 1;
nodes = (
"531 1186 LINE",
"531 797 LINE",
"144 797 LINE",
"144 647 LINE",
"531 647 LINE",
"531 262 LINE",
"681 262 LINE",
"681 647 LINE",
"1068 647 LINE",
"1068 797 LINE",
"681 797 LINE",
"681 1186 LINE"
);
},
{
closed = 1;
nodes = (
"144 150 LINE",
"144 0 LINE",
"1068 0 LINE",
"1068 150 LINE"
);
}
);
width = 1212;
},
{
layerId = "24819F8C-2CC6-4723-AD58-E43FF506A0F9";
name = Bold;
paths = (
{
closed = 1;
nodes = (
"552 503 LINE",
"944 503 LINE",
"944 881 LINE",
"1308 881 LINE",
"1308 1214 LINE",
"944 1214 LINE",
"944 1595 LINE",
"552 1595 LINE",
"552 1214 LINE",
"187 1214 LINE",
"187 881 LINE",
"552 881 LINE"
);
},
{
closed = 1;
nodes = (
"325 -1 LINE",
"1159 -1 LINE",
"1159 300 LINE",
"325 300 LINE"
);
}
);
width = 1498;
}
);
unicode = 00B1;
},
{
glyphname = acute;
lastChange = "2014-01-01 23:46:56 -0800";
layers = (
{
anchors = (
{
name = _top;
position = "{325, 1097}";
}
);
layerId = "4D3A9D47-CC41-4843-AE67-D0D92AD22A81";
name = Regular;
paths = (
{
closed = 1;
nodes = (
"457 1640 OFFCURVE",
"429 1624 OFFCURVE",
"405 1605 CURVE SMOOTH",
"367 1573 OFFCURVE",
"109 1308 OFFCURVE",
"109 1308 CURVE",
"118 1298 LINE",
"126 1287 LINE SMOOTH",
"126 1288 OFFCURVE",
"496 1425 OFFCURVE",
"521 1436 CURVE SMOOTH",
"570 1457 OFFCURVE",
"592 1501 OFFCURVE",
"592 1540 CURVE SMOOTH",
"592 1591 OFFCURVE",
"555 1640 OFFCURVE",
"489 1640 CURVE SMOOTH"
);
}
);
width = 670;
},
{
anchors = (
{
name = _top;
position = "{536, 1300}";
}
);
layerId = "24819F8C-2CC6-4723-AD58-E43FF506A0F9";
name = Bold;
paths = (
{
closed = 1;
nodes = (
"959 2030 OFFCURVE",
"917 2019 OFFCURVE",
"872 1993 CURVE SMOOTH",
"771 1935 OFFCURVE",
"561 1729 OFFCURVE",
"398 1580 CURVE SMOOTH",
"363.376 1549.7 OFFCURVE",
"357.548 1519.16 OFFCURVE",
"369.906 1498.36 CURVE SMOOTH",
"383.858 1474.88 OFFCURVE",
"420.078 1461.85 OFFCURVE",
"459 1476 CURVE SMOOTH",
"664 1538 OFFCURVE",
"951 1610 OFFCURVE",
"1055 1670 CURVE SMOOTH",
"1136 1717 OFFCURVE",
"1171 1787 OFFCURVE",
"1171 1852 CURVE SMOOTH",
"1171 1946 OFFCURVE",
"1100 2030 OFFCURVE",
"997 2030 CURVE SMOOTH"
);
}
);
width = 1287;
}
);
unicode = 00B4;
userData = {
com.typemytype.robofont.layerData = {
};
};
},
{
glyphname = mu;
lastChange = "2014-01-02 05:10:51 -0800";
layers = (
{
layerId = "4D3A9D47-CC41-4843-AE67-D0D92AD22A81";
name = Regular;
paths = (
{
closed = 1;
nodes = (
"821 1097 LINE",
"821 383 LINE",
"821 236 OFFCURVE",
"854 122 OFFCURVE",
"581 122 CURVE SMOOTH",
"388 122 OFFCURVE",
"353 151 OFFCURVE",
"347 287 CURVE",
"347 1097 LINE",
"150 1097 LINE",
"150 -340 LINE",
"347 -340 LINE",
"347 1 LINE",
"477 -35 OFFCURVE",
"763 -30 OFFCURVE",
"820 140 CURVE",
"838 -1 LINE",
"1020 -1 LINE",
"1020 1097 LINE"
);
}
);
width = 1176;
},
{
layerId = "24819F8C-2CC6-4723-AD58-E43FF506A0F9";
name = Bold;
paths = (
{
closed = 1;
nodes = (
"903 1300 LINE",
"903 233 LINE",
"818 233 LINE SMOOTH",
"737 233 LINE",
"737 1300 LINE",
"165 1300 LINE",
"165 -250 LINE",
"737 -250 LINE",
"737 -9 LINE",
"818 14 OFFCURVE",
"887 56 OFFCURVE",
"921 112 CURVE",
"958 0 LINE",
"1475 0 LINE",
"1475 1300 LINE"
);
}
);
width = 1647;
}
);
unicode = 03BC;
},
{
glyphname = paragraph;
lastChange = "2014-01-02 05:10:04 -0800";
layers = (
{
layerId = "4D3A9D47-CC41-4843-AE67-D0D92AD22A81";
name = Regular;
paths = (
{
closed = 1;
nodes = (
"452 1490 LINE SMOOTH",
"165 1490 OFFCURVE",
"34 1380 OFFCURVE",
"34 1139 CURVE SMOOTH",
"34 916 OFFCURVE",
"223 806 OFFCURVE",
"536 806 CURVE",
"536 -228 LINE",
"658 -228 LINE",
"658 1385 LINE",
"867 1385 LINE",
"867 -228 LINE",
"977 -228 LINE",
"977 1490 LINE"
);
}
);
width = 1130;
},
{
layerId = "24819F8C-2CC6-4723-AD58-E43FF506A0F9";
name = Bold;
paths = (
{
closed = 1;
nodes = (
"827 1595 LINE SMOOTH",
"480 1595 OFFCURVE",
"194 1516 OFFCURVE",
"194 1107 CURVE SMOOTH",
"194 782 OFFCURVE",
"396 659 OFFCURVE",
"729 659 CURVE",
"729 0 LINE",
"991 0 LINE",
"991 658 LINE",
"1100 658 LINE",
"1100 0 LINE",
"1361 0 LINE",
"1361 1595 LINE"
);
}
);
width = 1605;
}
);
unicode = 00B6;
},
{
glyphname = periodcentered;
lastChange = "2014-01-02 05:10:00 -0800";
layers = (
{
anchors = (
{
name = _mid;
position = "{0, 676}";
}
);
layerId = "4D3A9D47-CC41-4843-AE67-D0D92AD22A81";
name = Regular;
paths = (
{
closed = 1;
nodes = (
"303 836 OFFCURVE",
"251 771 OFFCURVE",
"251 682 CURVE SMOOTH",
"251 596 OFFCURVE",
"310 528 OFFCURVE",
"391 528 CURVE SMOOTH",
"479 528 OFFCURVE",
"531 594 OFFCURVE",
"531 682 CURVE SMOOTH",
"531 769 OFFCURVE",
"473 836 OFFCURVE",
"391 836 CURVE SMOOTH"
);
}
);
width = 531;
},
{
anchors = (
{
name = _mid;
position = "{364, 1113}";
}
);
layerId = "24819F8C-2CC6-4723-AD58-E43FF506A0F9";
name = Bold;
paths = (
{
closed = 1;
nodes = (
"795 1289 OFFCURVE",
"711 1231 OFFCURVE",
"711 1116 CURVE SMOOTH",
"711 1001 OFFCURVE",
"795 943 OFFCURVE",
"879 943 CURVE SMOOTH",
"963 943 OFFCURVE",
"1046 1001 OFFCURVE",
"1046 1116 CURVE SMOOTH",
"1046 1231 OFFCURVE",
"963 1289 OFFCURVE",
"879 1289 CURVE SMOOTH"
);
}
);
width = 1295;
}
);
unicode = 00B7;
},
{
glyphname = cedilla;
lastChange = "2014-01-01 23:46:25 -0800";
layers = (
{
anchors = (
{
name = _bot;
position = "{378, 0}";
}
);
layerId = "4D3A9D47-CC41-4843-AE67-D0D92AD22A81";
name = Regular;
paths = (
{
closed = 1;
nodes = (
"329 10 LINE",
"291 -134 LINE SMOOTH",
"270 -213 OFFCURVE",
"258 -261 OFFCURVE",
"254 -279 CURVE",
"346 -279 OFFCURVE",
"392 -308 OFFCURVE",
"392 -366 CURVE SMOOTH",
"392 -406 OFFCURVE",
"367 -420 OFFCURVE",
"333 -420 CURVE SMOOTH",
"275 -420 OFFCURVE",
"191 -379 OFFCURVE",
"171 -370 CURVE",
"124 -460 LINE",
"187 -514 OFFCURVE",
"278 -542 OFFCURVE",
"363 -542 CURVE SMOOTH",
"491 -542 OFFCURVE",
"608 -480 OFFCURVE",
"608 -354 CURVE SMOOTH",
"608 -204 OFFCURVE",
"521 -176 OFFCURVE",
"389 -158 CURVE",
"438 10 LINE"
);
}
);
width = 723;
},
{
anchors = (
{
name = _bot;
position = "{618, 0}";
}
);
layerId = "24819F8C-2CC6-4723-AD58-E43FF506A0F9";
name = Bold;
paths = (
{
closed = 1;
nodes = (
"566.131 20 LINE",
"526.165 -131 LINE",
"498.693 -235 OFFCURVE",
"486.423 -286 OFFCURVE",
"486.909 -288 CURVE",
"581.298 -287 OFFCURVE",
"627 -316 OFFCURVE",
"627 -366 CURVE",
"627 -399 OFFCURVE",
"606.834 -410 OFFCURVE",
"573 -410 CURVE",
"509.516 -410 OFFCURVE",
"414.935 -361 OFFCURVE",
"409.65 -359 CURVE",
"355.562 -463 LINE",
"421.438 -522 OFFCURVE",
"515.702 -552 OFFCURVE",
"603 -552 CURVE",
"731.145 -552 OFFCURVE",
"853 -487 OFFCURVE",
"853 -354 CURVE",
"853 -199 OFFCURVE",
"764.561 -167 OFFCURVE",
"637.201 -149 CURVE",
"686.533 20 LINE"
);
}
);
width = 1065;
}
);
unicode = 00B8;
},
{
glyphname = ordmasculine;
lastChange = "2014-01-01 23:19:49 -0800";
layers = (
{
layerId = "4D3A9D47-CC41-4843-AE67-D0D92AD22A81";
name = Regular;
paths = (
{
closed = 1;
nodes = (
"181 1490 OFFCURVE",
"144 1420 OFFCURVE",
"144 1066 CURVE SMOOTH",
"144 729 OFFCURVE",
"167 642 OFFCURVE",
"487 642 CURVE SMOOTH",
"809 642 OFFCURVE",
"832 729 OFFCURVE",
"832 1066 CURVE SMOOTH",
"832 1420 OFFCURVE",
"797 1490 OFFCURVE",
"488 1490 CURVE SMOOTH"
);
},
{
closed = 1;
nodes = (
"587 1387 OFFCURVE",
"676 1377 OFFCURVE",
"676 1314 CURVE SMOOTH",
"676 1234 OFFCURVE",
"684 1149 OFFCURVE",
"684 1063 CURVE SMOOTH",
"684 976 OFFCURVE",
"680 894 OFFCURVE",
"676 814 CURVE SMOOTH",
"674 759 OFFCURVE",
"620 746 OFFCURVE",
"488 746 CURVE SMOOTH",
"356 746 OFFCURVE",
"302 759 OFFCURVE",
"300 814 CURVE SMOOTH",
"296 894 OFFCURVE",
"292 976 OFFCURVE",
"292 1063 CURVE SMOOTH",
"292 1149 OFFCURVE",
"300 1234 OFFCURVE",
"300 1314 CURVE SMOOTH",
"300 1377 OFFCURVE",
"389 1387 OFFCURVE",
"488 1387 CURVE SMOOTH"
);
}
);
width = 975;
},
{
layerId = "24819F8C-2CC6-4723-AD58-E43FF506A0F9";
name = Bold;
paths = (
{
closed = 1;
nodes = (
"714 99 CURVE",
"960 102 OFFCURVE",
"1235 110 OFFCURVE",
"1235 412 CURVE SMOOTH",
"1235 892 LINE SMOOTH",
"1235 1180 OFFCURVE",
"966 1204 OFFCURVE",
"715 1204 CURVE SMOOTH",
"477 1204 OFFCURVE",
"188 1185 OFFCURVE",
"188 893 CURVE SMOOTH",
"188 413 LINE SMOOTH",
"188 115 OFFCURVE",
"460 99 OFFCURVE"
);
},
{
closed = 1;
nodes = (
"645 317 LINE",
"645 1014 LINE",
"778 1014 LINE",
"778 317 LINE"
);
}
);
width = 1433;
}
);
unicode = 00BA;
},
{
glyphname = guillemotright;
lastChange = "2014-01-01 23:19:49 -0800";
layers = (
{
layerId = "4D3A9D47-CC41-4843-AE67-D0D92AD22A81";
name = Regular;
paths = (
{
closed = 1;
nodes = (
"140 1086 LINE",
"562 726 LINE",
"140 366 LINE",
"236 253 LINE",
"710 677 LINE",
"710 775 LINE",
"236 1199 LINE"
);
},
{
closed = 1;
nodes = (
"540 1086 LINE",
"960 726 LINE",
"540 366 LINE",
"634 253 LINE",
"1109 677 LINE",
"1109 775 LINE",
"634 1199 LINE"
);
}
);
width = 1232;
},
{
layerId = "24819F8C-2CC6-4723-AD58-E43FF506A0F9";
name = Bold;
paths = (
{
closed = 1;
nodes = (
"171 190 CURVE SMOOTH",
"190 190 OFFCURVE",
"212 196 OFFCURVE",
"235 213 CURVE SMOOTH",
"761 593 LINE SMOOTH",
"821 636 OFFCURVE",
"851 706 OFFCURVE",
"851 775 CURVE SMOOTH",
"850 846 OFFCURVE",
"819 919 OFFCURVE",
"761 961 CURVE SMOOTH",
"235 1341 LINE SMOOTH",
"211 1358 OFFCURVE",
"187 1364 OFFCURVE",
"169 1364 CURVE SMOOTH",
"123 1364 OFFCURVE",
"89 1326 OFFCURVE",
"89 1278 CURVE SMOOTH",
"89 1256 OFFCURVE",
"95 1233 OFFCURVE",
"113 1209 CURVE SMOOTH",
"447 777 LINE",
"113 345 LINE SMOOTH",
"96 323 OFFCURVE",
"91 300 OFFCURVE",
"91 277 CURVE SMOOTH",
"91 230 OFFCURVE",
"125 190 OFFCURVE"
);
},
{
closed = 1;
nodes = (
"907 190 CURVE SMOOTH",
"926 190 OFFCURVE",
"949 197 OFFCURVE",
"970 213 CURVE SMOOTH",
"1497 593 LINE SMOOTH",
"1557 636 OFFCURVE",
"1587 706 OFFCURVE",
"1587 775 CURVE SMOOTH",
"1586 846 OFFCURVE",
"1555 919 OFFCURVE",
"1497 961 CURVE SMOOTH",
"970 1341 LINE SMOOTH",
"946 1358 OFFCURVE",
"924 1364 OFFCURVE",
"905 1364 CURVE SMOOTH",
"859 1364 OFFCURVE",
"824 1326 OFFCURVE",
"824 1278 CURVE SMOOTH",
"824 1256 OFFCURVE",
"831 1233 OFFCURVE",
"849 1209 CURVE SMOOTH",
"1183 777 LINE",
"849 345 LINE SMOOTH",
"832 323 OFFCURVE",
"826 300 OFFCURVE",
"826 277 CURVE SMOOTH",
"826 230 OFFCURVE",
"861 190 OFFCURVE"
);
}
);
width = 1670;
}
);
unicode = 00BB;
},
{
glyphname = onequarter;
lastChange = "2014-01-01 23:19:49 -0800";
layers = (
{
layerId = "4D3A9D47-CC41-4843-AE67-D0D92AD22A81";
name = Regular;
paths = (
{
closed = 1;
nodes = (
"407 616 LINE",
"176 220 LINE",
"214 152 LINE",
"428 152 LINE",
"428 0 LINE",
"519 0 LINE",
"519 152 LINE",
"621 152 LINE",
"621 220 LINE",
"519 220 LINE",
"519 616 LINE"
);
},
{
closed = 1;
nodes = (
"428 220 LINE",
"256 220 LINE",
"347 390 OFFCURVE",
"404 498 OFFCURVE",
"428 544 CURVE"
);
},
{
closed = 1;
nodes = (
"137 805 LINE",
"137 734 LINE",
"757 734 LINE",
"757 805 LINE"
);
},
{
closed = 1;
nodes = (
"412 1499 LINE",
"412 1458 OFFCURVE",
"382 1431 OFFCURVE",
"330 1431 CURVE",
"330 1378 LINE",
"399 1378 LINE",
"399 898 LINE",
"490 898 LINE",
"490 1499 LINE"
);
}
);
width = 885;
},
{
layerId = "24819F8C-2CC6-4723-AD58-E43FF506A0F9";
name = Bold;
paths = (
{
closed = 1;
nodes = (
"2158 130 LINE",
"2517 130 LINE",
"2517 760 LINE",
"2158 760 LINE",
"2158 535 LINE",
"2028 535 LINE",
"2028 571 LINE",
"2197 1172 LINE",
"1812 1172 LINE",
"1642 571 LINE",
"1642 291 LINE",
"2158 291 LINE"
);
},
{
closed = 1;
nodes = (
"193 430 LINE",
"588 430 LINE",
"588 1470 LINE",
"276 1470 LINE",
"219 1435 OFFCURVE",
"139 1415 OFFCURVE",
"49 1415 CURVE",
"49 1271 LINE",
"193 1271 LINE"
);
},
{
closed = 1;
nodes = (
"769 0 LINE",
"1204 0 LINE",
"1555 1595 LINE",
"1121 1595 LINE"
);
}
);
width = 2485;
}
);
unicode = 00BC;
},
{
glyphname = onehalf;
lastChange = "2014-01-01 23:19:49 -0800";
layers = (
{
layerId = "4D3A9D47-CC41-4843-AE67-D0D92AD22A81";
name = Regular;
paths = (
{
closed = 1;
nodes = (
"331 646 OFFCURVE",
"247 621 OFFCURVE",
"247 522 CURVE SMOOTH",
"247 512 OFFCURVE",
"249 495 OFFCURVE",
"253 470 CURVE",
"336 463 LINE",
"333 498 LINE",
"333 572 OFFCURVE",
"365 573 OFFCURVE",
"428 573 CURVE SMOOTH",
"541 573 OFFCURVE",
"550 572 OFFCURVE",
"550 494 CURVE SMOOTH",
"550 229 OFFCURVE",
"246 314 OFFCURVE",
"246 75 CURVE SMOOTH",
"246 0 LINE",
"632 0 LINE",
"632 72 LINE",
"337 72 LINE",
"337 99 OFFCURVE",
"346 120 OFFCURVE",
"360 138 CURVE SMOOTH",
"463 270 OFFCURVE",
"642 223 OFFCURVE",
"642 484 CURVE SMOOTH",
"642 624 OFFCURVE",
"581 646 OFFCURVE",
"442 646 CURVE SMOOTH"
);
},
{
closed = 1;
nodes = (
"134 805 LINE",
"134 734 LINE",
"754 734 LINE",
"754 805 LINE"
);
},
{
closed = 1;
nodes = (
"399 1499 LINE",
"399 1458 OFFCURVE",
"369 1431 OFFCURVE",
"317 1431 CURVE",
"317 1378 LINE",
"386 1378 LINE",
"386 898 LINE",
"477 898 LINE",
"477 1499 LINE"
);
}
);
width = 885;
},
{
layerId = "24819F8C-2CC6-4723-AD58-E43FF506A0F9";
name = Bold;
paths = (
{
closed = 1;
nodes = (
"1703 134 LINE",
"2500 134 LINE",
"2500 332 LINE",
"2067 332 LINE",
"2067 404 OFFCURVE",
"2147 443 OFFCURVE",
"2217 474 CURVE SMOOTH",
"2382 548 OFFCURVE",
"2540 634 OFFCURVE",
"2540 876 CURVE SMOOTH",
"2540 1142 OFFCURVE",
"2386 1209 OFFCURVE",
"2124 1209 CURVE SMOOTH",
"1881 1209 OFFCURVE",
"1702 1148 OFFCURVE",
"1702 878 CURVE SMOOTH",
"1702 864 OFFCURVE",
"1703 850 OFFCURVE",
"1703 836 CURVE",
"2067 836 LINE",
"2067 1030 LINE",
"2167 1030 LINE",
"2167 877 LINE SMOOTH",
"2167 823 OFFCURVE",
"2093 793 OFFCURVE",
"2031 768 CURVE SMOOTH",
"1837 690 OFFCURVE",
"1703 575 OFFCURVE",
"1703 313 CURVE SMOOTH"
);
},
{
closed = 1;
nodes = (
"193 430 LINE",
"588 430 LINE",
"588 1470 LINE",
"276 1470 LINE",
"219 1435 OFFCURVE",
"139 1415 OFFCURVE",
"49 1415 CURVE",
"49 1271 LINE",
"193 1271 LINE"
);
},
{
closed = 1;
nodes = (
"784 0 LINE",
"1219 0 LINE",
"1570 1595 LINE",
"1136 1595 LINE"
);
}
);
width = 2531;
}
);
unicode = 00BD;
},
{
glyphname = threequarters;
lastChange = "2014-01-01 23:19:52 -0800";
layers = (
{
layerId = "4D3A9D47-CC41-4843-AE67-D0D92AD22A81";
name = Regular;
paths = (
{
closed = 1;
nodes = (
"440 616 LINE",
"209 220 LINE",
"247 152 LINE",
"461 152 LINE",
"461 0 LINE",
"552 0 LINE",
"552 152 LINE",
"654 152 LINE",
"654 220 LINE",
"552 220 LINE",
"552 616 LINE"
);
},
{
closed = 1;
nodes = (
"461 220 LINE",
"289 220 LINE",
"380 390 OFFCURVE",
"437 498 OFFCURVE",
"461 544 CURVE"
);
},
{
closed = 1;
nodes = (
"139 804 LINE",
"139 733 LINE",
"759 733 LINE",
"759 804 LINE"
);
},
{
closed = 1;
nodes = (
"329 1481 OFFCURVE",
"287 1455 OFFCURVE",
"287 1383 CURVE SMOOTH",
"287 1357 OFFCURVE",
"295 1331 OFFCURVE",
"295 1331 CURVE",
"354 1331 LINE",
"352 1377 LINE SMOOTH",
"351 1408 OFFCURVE",
"376 1416 OFFCURVE",
"460 1416 CURVE SMOOTH",
"554 1416 OFFCURVE",
"556 1395 OFFCURVE",
"556 1306 CURVE SMOOTH",
"556 1264 OFFCURVE",
"547 1237 OFFCURVE",
"441 1237 CURVE SMOOTH",
"414 1238 LINE",
"417 1185 LINE",
"422 1185 LINE SMOOTH",
"538 1185 OFFCURVE",
"557 1184 OFFCURVE",
"557 1047 CURVE SMOOTH",
"557 989 OFFCURVE",
"534 979 OFFCURVE",
"440 979 CURVE SMOOTH",
"357 979 OFFCURVE",
"352 993 OFFCURVE",
"352 1040 CURVE SMOOTH",
"352 1063 LINE",
"285 1063 LINE",
"283 1038 OFFCURVE",
"282 1022 OFFCURVE",
"282 1014 CURVE SMOOTH",
"282 929 OFFCURVE",
"341 915 OFFCURVE",
"459 915 CURVE SMOOTH",
"571 915 OFFCURVE",
"636 947 OFFCURVE",
"636 1068 CURVE SMOOTH",
"636 1189 OFFCURVE",
"565 1207 OFFCURVE",
"544 1210 CURVE",
"564 1211 OFFCURVE",
"636 1222 OFFCURVE",
"636 1329 CURVE SMOOTH",
"636 1437 OFFCURVE",
"587 1481 OFFCURVE",
"465 1481 CURVE SMOOTH"
);
}
);
width = 892;
},
{
layerId = "24819F8C-2CC6-4723-AD58-E43FF506A0F9";
name = Bold;
paths = (
{
closed = 1;
nodes = (
"322 394 CURVE SMOOTH",
"618 394 OFFCURVE",
"753 487 OFFCURVE",
"753 733 CURVE SMOOTH",
"753 841 OFFCURVE",
"707 927 OFFCURVE",
"613 963 CURVE",
"696 999 OFFCURVE",
"751 1067 OFFCURVE",
"751 1175 CURVE SMOOTH",
"751 1422 OFFCURVE",
"591 1499 OFFCURVE",
"321 1499 CURVE SMOOTH",
"41 1499 OFFCURVE",
"-103 1416 OFFCURVE",
"-103 1153 CURVE SMOOTH",
"-103 1135 OFFCURVE",
"-102 1117 OFFCURVE",
"-100 1098 CURVE",
"264 1098 LINE",
"264 1321 LINE",
"377 1321 LINE",
"377 1037 LINE",
"206 1037 LINE",
"206 889 LINE",
"377 889 LINE",
"377 576 LINE",
"264 576 LINE",
"264 826 LINE",
"-100 826 LINE",
"-102 805 OFFCURVE",
"-103 785 OFFCURVE",
"-103 765 CURVE SMOOTH",
"-103 515 OFFCURVE",
"26 394 OFFCURVE"
);
},
{
closed = 1;
nodes = (
"2225 130 LINE",
"2584 130 LINE",
"2584 760 LINE",
"2225 760 LINE",
"2225 535 LINE",
"2095 535 LINE",
"2095 571 LINE",
"2264 1172 LINE",
"1879 1172 LINE",
"1709 571 LINE",
"1709 291 LINE",
"2225 291 LINE"
);
},
{
closed = 1;
nodes = (
"876 0 LINE",
"1311 0 LINE",
"1662 1595 LINE",
"1228 1595 LINE"
);
}
);
width = 2523;
}
);
unicode = 00BE;
},
{
glyphname = questiondown;
lastChange = "2014-01-01 23:18:29 -0800";
layers = (
{
components = (
{
name = question;
transform = "{-1, 0, 0, -1, 895, 1201}";
}
);
layerId = "4D3A9D47-CC41-4843-AE67-D0D92AD22A81";
name = Regular;
width = 921;
},
{
layerId = "24819F8C-2CC6-4723-AD58-E43FF506A0F9";
name = Bold;
paths = (
{
closed = 1;
nodes = (
"673 -34 CURVE SMOOTH",
"769 -34 OFFCURVE",
"891 -13 OFFCURVE",
"1044 36 CURVE",
"1008 383 LINE",
"925 348 OFFCURVE",
"862 334 OFFCURVE",
"814 334 CURVE SMOOTH",
"711 334 OFFCURVE",
"672 386 OFFCURVE",
"672 448 CURVE SMOOTH",
"672 457 OFFCURVE",
"673 466 OFFCURVE",
"674 475 CURVE SMOOTH",
"701 619 OFFCURVE",
"819 784 OFFCURVE",
"819 1016 CURVE SMOOTH",
"819 1062 OFFCURVE",
"799 1088 OFFCURVE",
"758 1088 CURVE SMOOTH",
"731 1088 OFFCURVE",
"701 1074 OFFCURVE",
"696 1031 CURVE SMOOTH",
"656 686 OFFCURVE",
"240 589 OFFCURVE",
"240 285 CURVE SMOOTH",
"240 125 OFFCURVE",
"338 -34 OFFCURVE"
);
},
{
closed = 1;
nodes = (
"756 1217 CURVE SMOOTH",
"858 1217 OFFCURVE",
"960 1287 OFFCURVE",
"960 1427 CURVE SMOOTH",
"960 1567 OFFCURVE",
"858 1637 OFFCURVE",
"756 1637 CURVE SMOOTH",
"654 1637 OFFCURVE",
"552 1567 OFFCURVE",
"552 1427 CURVE SMOOTH",
"552 1287 OFFCURVE",
"654 1217 OFFCURVE"
);
}
);
width = 1300;
}
);
unicode = 00BF;
},
{
glyphname = AE;
lastChange = "2014-01-01 23:19:49 -0800";
layers = (
{
anchors = (
{
name = top;
position = "{1039, 1490}";
}
);
layerId = "4D3A9D47-CC41-4843-AE67-D0D92AD22A81";
name = Regular;
paths = (
{
closed = 1;
nodes = (
"936 1490 LINE",
"100 0 LINE",
"337 0 LINE",
"552 381 LINE",
"1062 381 LINE",
"1062 0 LINE",
"1936 0 LINE",
"1936 167 LINE",
"1272 167 LINE",
"1272 697 LINE",
"1806 697 LINE",
"1806 864 LINE",
"1272 864 LINE",
"1272 1323 LINE",
"1917 1323 LINE",
"1917 1490 LINE"
);
},
{
closed = 1;
nodes = (
"1062 523 LINE",
"618 523 LINE",
"1062 1342 LINE"
);
}
);
width = 2077;
},
{
anchors = (
{
name = top;
position = "{955, 1595}";
}
);
layerId = "24819F8C-2CC6-4723-AD58-E43FF506A0F9";
name = Bold;
paths = (
{
closed = 1;
nodes = (
"-11 0 LINE",
"612 0 LINE",
"723 348 LINE",
"936 348 LINE",
"936 0 LINE",
"1895 0 LINE",
"1895 244 LINE",
"1554 244 LINE",
"1554 711 LINE",
"1872 711 LINE",
"1872 961 LINE",
"1554 961 LINE",
"1554 1354 LINE",
"1895 1354 LINE",
"1895 1595 LINE",
"622 1595 LINE"
);
},
{
closed = 1;
nodes = (
"796 578 LINE",
"936 1001 LINE",
"936 578 LINE"
);
}
);
width = 1896;
}
);
unicode = 00C6;
userData = {
com.typemytype.robofont.layerData = {
};
};
},
{
glyphname = multiply;
lastChange = "2014-01-01 23:19:49 -0800";
layers = (
{
layerId = "4D3A9D47-CC41-4843-AE67-D0D92AD22A81";
name = Regular;
paths = (
{
closed = 1;
nodes = (
"484 802 LINE",
"258 1052 LINE",
"192 979 OFFCURVE",
"166 949 OFFCURVE",
"139 920 CURVE",
"348 687 OFFCURVE",
"355 678 OFFCURVE",
"363 670 CURVE",
"139 420 LINE",
"205 347 OFFCURVE",
"231 317 OFFCURVE",
"258 288 CURVE",
"484 538 LINE",
"711 288 LINE",
"829 420 LINE",
"606 670 LINE",
"829 920 LINE",
"711 1052 LINE"
);
}
);
width = 969;
},
{
layerId = "24819F8C-2CC6-4723-AD58-E43FF506A0F9";
name = Bold;
paths = (
{
closed = 1;
nodes = (
"452 4 LINE",
"711 279 LINE",
"968 4 LINE",
"1317 375 LINE",
"1059 649 LINE",
"1317 924 LINE",
"968 1294 LINE",
"711 1020 LINE",
"452 1294 LINE",
"104 924 LINE",
"362 649 LINE",
"104 375 LINE"
);
}
);
width = 1433;
}
);
unicode = 00D7;
},
{
glyphname = Oslash;
lastChange = "2014-01-01 23:19:49 -0800";
layers = (
{
anchors = (
{
name = top;
position = "{728, 1490}";
}
);
components = (
{
name = O;
transform = "{1, 0, 0, 1, 0, 0}";
}
);
layerId = "4D3A9D47-CC41-4843-AE67-D0D92AD22A81";
name = Regular;
paths = (
{
closed = 1;
nodes = (
"961 1759 LINE",
"350 -300 LINE",
"463 -300 LINE",
"1074 1759 LINE"
);
}
);
width = 1444;
},
{
anchors = (
{
name = top;
position = "{852, 1595}";
}
);
layerId = "24819F8C-2CC6-4723-AD58-E43FF506A0F9";
name = Bold;
paths = (
{
closed = 1;
nodes = (
"323 -166 LINE",
"431 10 LINE",
"551 -31 OFFCURVE",
"702 -41 OFFCURVE",
"860 -41 CURVE",
"859 -39 LINE",
"1222 -39 OFFCURVE",
"1553 16 OFFCURVE",
"1553 370 CURVE SMOOTH",
"1553 1226 LINE SMOOTH",
"1553 1388 OFFCURVE",
"1484 1487 OFFCURVE",
"1373 1546 CURVE",
"1477 1716 LINE",
"1356 1817 LINE",
"1222 1599 LINE",
"1114 1623 OFFCURVE",
"989 1630 OFFCURVE",
"859 1630 CURVE SMOOTH",
"498 1630 OFFCURVE",
"171 1578 OFFCURVE",
"171 1226 CURVE SMOOTH",
"171 370 LINE SMOOTH",
"171 238 OFFCURVE",
"216 147 OFFCURVE",
"291 85 CURVE",
"195 -70 LINE"
);
},
{
closed = 1;
nodes = (
"776 235 LINE",
"776 1362 LINE",
"949 1362 LINE",
"949 235 LINE"
);
}
);
width = 1735;
}
);
leftKerningGroup = O_Right;
rightKerningGroup = O_Left;
unicode = 00D8;
userData = {
com.typemytype.robofont.layerData = {
};
};
},
{
glyphname = Thorn;
lastChange = "2014-01-01 23:19:52 -0800";
layers = (
{
layerId = "4D3A9D47-CC41-4843-AE67-D0D92AD22A81";
name = Regular;
paths = (
{
closed = 1;
nodes = (
"178 1490 LINE",
"178 0 LINE",
"378 0 LINE",
"378 383 LINE",
"596 383 LINE SMOOTH",
"827 383 OFFCURVE",
"1183 344 OFFCURVE",
"1183 832 CURVE SMOOTH",
"1183 862 LINE SMOOTH",
"1175 1217 OFFCURVE",
"1035 1284 OFFCURVE",
"623 1284 CURVE SMOOTH",
"378 1284 LINE",
"378 1490 LINE"
);
},
{
closed = 1;
nodes = (
"942 1120 OFFCURVE",
"984 1102 OFFCURVE",
"984 832 CURVE SMOOTH",
"984 630 OFFCURVE",
"980 551 OFFCURVE",
"701 551 CURVE SMOOTH",
"378 551 LINE",
"378 1120 LINE",
"610 1120 LINE SMOOTH"
);
}
);
width = 1302;
},
{
layerId = "24819F8C-2CC6-4723-AD58-E43FF506A0F9";
name = Bold;
paths = (
{
closed = 1;
nodes = (
"187 0 LINE",
"789 0 LINE",
"789 250 LINE",
"926 250 LINE SMOOTH",
"1272.51 250 OFFCURVE",
"1552 334.593 OFFCURVE",
"1552 641 CURVE SMOOTH",
"1552 1022 LINE SMOOTH",
"1552 1363.16 OFFCURVE",
"1314.27 1413 OFFCURVE",
"926 1413 CURVE SMOOTH",
"789 1413 LINE",
"789 1599 LINE",
"187 1599 LINE"
);
},
{
closed = 1;
nodes = (
"789 482 LINE",
"789 1182 LINE",
"952 1182 LINE",
"952 832 LINE",
"952 482 LINE"
);
}
);
width = 1694;
}
);
leftKerningGroup = H_Right;
unicode = 00DE;
},
{
glyphname = germandbls;
lastChange = "2014-01-02 06:15:54 -0800";
layers = (
{
layerId = "4D3A9D47-CC41-4843-AE67-D0D92AD22A81";
name = Regular;
paths = (
{
closed = 1;
nodes = (
"298 1497 OFFCURVE",
"165 1418 OFFCURVE",
"165 1132 CURVE SMOOTH",
"165 -185 LINE",
"363 -169 LINE",
"363 1082 LINE",
"362 1325 OFFCURVE",
"407 1337 OFFCURVE",
"616 1337 CURVE SMOOTH",
"811 1337 OFFCURVE",
"849 1303 OFFCURVE",
"849 1140 CURVE SMOOTH",
"849 995 OFFCURVE",
"842 885 OFFCURVE",
"752 885 CURVE SMOOTH",
"511 885 LINE",
"511 737 LINE",
"752 736 LINE SMOOTH",
"921 736 OFFCURVE",
"929 661 OFFCURVE",
"923 429 CURVE SMOOTH",
"917 179 OFFCURVE",
"882 160 OFFCURVE",
"713 160 CURVE SMOOTH",
"481 162 LINE",
"481 0 LINE",
"727 0 LINE SMOOTH",
"960 0 OFFCURVE",
"1122 95 OFFCURVE",
"1122 378 CURVE SMOOTH",
"1122 471 LINE SMOOTH",
"1122 740 OFFCURVE",
"1013 818 OFFCURVE",
"890 827 CURVE",
"990 841 OFFCURVE",
"1042 947 OFFCURVE",
"1042 1141 CURVE SMOOTH",
"1042 1410 OFFCURVE",
"915 1497 OFFCURVE",
"616 1497 CURVE SMOOTH"
);
}
);
width = 1264;
},
{
layerId = "24819F8C-2CC6-4723-AD58-E43FF506A0F9";
name = Bold;
paths = (
{
closed = 1;
nodes = (
"453 1595 OFFCURVE",
"173 1546 OFFCURVE",
"173 1217 CURVE SMOOTH",
"173 -205 LINE",
"669 -205 LINE",
"669 1358 LINE",
"787 1358 LINE",
"905 1358 LINE",
"905 981 LINE",
"793 981 LINE",
"793 750 LINE",
"905 750 LINE",
"905 194 LINE",
"766 194 LINE",
"766 -37 LINE",
"850 -37 LINE SMOOTH",
"1130 -37 OFFCURVE",
"1401 -16 OFFCURVE",
"1401 258 CURVE SMOOTH",
"1401 553 LINE SMOOTH",
"1401 759 OFFCURVE",
"1261 859 OFFCURVE",
"1060 870 CURVE",
"1257 896 OFFCURVE",
"1332 985 OFFCURVE",
"1332 1200 CURVE SMOOTH",
"1332 1505 OFFCURVE",
"1179 1595 OFFCURVE",
"789 1595 CURVE SMOOTH"
);
}
);
width = 1555;
}
);
unicode = 00DF;
},
{
glyphname = ae;
lastChange = "2014-01-01 23:19:49 -0800";
layers = (
{
anchors = (
{
name = top;
position = "{857, 1097}";
}
);
layerId = "4D3A9D47-CC41-4843-AE67-D0D92AD22A81";
name = Regular;
paths = (
{
closed = 1;
nodes = (
"1068 1128 OFFCURVE",
"960 1100 OFFCURVE",
"894 1013 CURVE",
"833 1096 OFFCURVE",
"737 1128 OFFCURVE",
"594 1128 CURVE SMOOTH",
"359 1128 OFFCURVE",
"200 1104 OFFCURVE",
"200 877 CURVE SMOOTH",
"200 862 OFFCURVE",
"200 846 OFFCURVE",
"202 830 CURVE",
"355 824 LINE",
"360 964 OFFCURVE",
"341 991 OFFCURVE",
"581 991 CURVE SMOOTH",
"738 991 OFFCURVE",
"792 970 OFFCURVE",
"792 901 CURVE SMOOTH",
"792 604 LINE",
"404 604 OFFCURVE",
"138 577 OFFCURVE",
"138 354 CURVE SMOOTH",
"138 86 OFFCURVE",
"205 -15 OFFCURVE",
"471 -15 CURVE SMOOTH",
"669 -15 OFFCURVE",
"804 8 OFFCURVE",
"865 139 CURVE",
"925 33 OFFCURVE",
"1043 -15 OFFCURVE",
"1275 -15 CURVE SMOOTH",
"1537 -15 OFFCURVE",
"1602 34 OFFCURVE",
"1611 306 CURVE",
"1458 334 LINE",
"1444 206 OFFCURVE",
"1481 122 OFFCURVE",
"1258 122 CURVE SMOOTH",
"996 122 OFFCURVE",
"989 197 OFFCURVE",
"989 399 CURVE SMOOTH",
"989 550 LINE",
"1489 550 LINE SMOOTH",
"1538 550 OFFCURVE",
"1589 559 OFFCURVE",
"1638 564 CURVE",
"1638 1030 OFFCURVE",
"1604 1128 OFFCURVE",
"1246 1128 CURVE SMOOTH"
);
},
{
closed = 1;
nodes = (
"792 314 LINE SMOOTH",
"792 203 OFFCURVE",
"718 122 OFFCURVE",
"498 122 CURVE SMOOTH",
"322 122 OFFCURVE",
"320 155 OFFCURVE",
"320 341 CURVE SMOOTH",
"320 354 LINE SMOOTH",
"320 443 OFFCURVE",
"397 485 OFFCURVE",
"792 485 CURVE"
);
},
{
closed = 1;
nodes = (
"1384 991 OFFCURVE",
"1425 971 OFFCURVE",
"1431 889 CURVE SMOOTH",
"1437 813 OFFCURVE",
"1440 735 OFFCURVE",
"1441 655 CURVE",
"989 655 LINE",
"995 909 OFFCURVE",
"972 991 OFFCURVE",
"1245 991 CURVE SMOOTH"
);
}
);
width = 1782;
},
{
anchors = (
{
name = top;
position = "{1066, 1300}";
}
);
layerId = "24819F8C-2CC6-4723-AD58-E43FF506A0F9";
name = Bold;
paths = (
{
closed = 1;
nodes = (
"571 -36 CURVE SMOOTH",
"782 -36 OFFCURVE",
"942 2 OFFCURVE",
"1073 77 CURVE",
"1157 11 OFFCURVE",
"1268 -36 OFFCURVE",
"1421 -36 CURVE SMOOTH",
"1775 -36 OFFCURVE",
"2061 14 OFFCURVE",
"2068 354 CURVE",
"2068 501 LINE",
"1497 501 LINE",
"1497 252 LINE",
"1353 252 LINE",
"1353 606 LINE",
"2069 606 LINE",
"2069 956 LINE SMOOTH",
"2069 1139 OFFCURVE",
"2005 1222 OFFCURVE",
"1871 1279 CURVE SMOOTH",
"1754 1328 OFFCURVE",
"1607 1345 OFFCURVE",
"1425 1345 CURVE SMOOTH",
"1276 1345 OFFCURVE",
"1153 1320 OFFCURVE",
"1066 1263 CURVE",
"1068 1261 LINE",
"987 1320 OFFCURVE",
"865 1343 OFFCURVE",
"719 1343 CURVE SMOOTH",
"418 1343 OFFCURVE",
"123 1299 OFFCURVE",
"123 1004 CURVE SMOOTH",
"123 965 OFFCURVE",
"128 929 OFFCURVE",
"134 894 CURVE",
"310 901 OFFCURVE",
"482 908 OFFCURVE",
"658 915 CURVE",
"658 1054 LINE",
"781 1054 LINE",
"781 783 LINE",
"712 808 OFFCURVE",
"635 824 OFFCURVE",
"532 824 CURVE SMOOTH",
"223 824 OFFCURVE",
"63 692 OFFCURVE",
"63 388 CURVE SMOOTH",
"63 92 OFFCURVE",
"266 -36 OFFCURVE"
);
},
{
closed = 1;
nodes = (
"631 252 LINE",
"631 604 LINE",
"781 604 LINE",
"781 252 LINE"
);
},
{
closed = 1;
nodes = (
"1353 801 LINE",
"1353 1055 LINE",
"1497 1055 LINE",
"1497 801 LINE"
);
}
);
width = 2189;
}
);
leftKerningGroup = a_Right;
unicode = 00E6;
},
{
glyphname = eth;
lastChange = "2014-01-01 23:19:49 -0800";
layers = (
{
layerId = "4D3A9D47-CC41-4843-AE67-D0D92AD22A81";
name = Regular;
paths = (
{
closed = 1;
nodes = (
"851 1411 LINE",
"738 1460 OFFCURVE",
"577 1483 OFFCURVE",
"348 1497 CURVE",
"330 1378 LINE",
"535 1359 OFFCURVE",
"666 1351 OFFCURVE",
"752 1312 CURVE",
"605 1165 LINE",
"665 1105 LINE",
"822 1262 LINE",
"887 1190 OFFCURVE",
"906 1061 OFFCURVE",
"919 816 CURVE",
"900 916 OFFCURVE",
"778 966 OFFCURVE",
"554 966 CURVE SMOOTH",
"247 966 OFFCURVE",
"144 853 OFFCURVE",
"143 599 CURVE SMOOTH",
"142 391 LINE",
"142 381 LINE SMOOTH",
"142 58 OFFCURVE",
"240 -24 OFFCURVE",
"649 -24 CURVE SMOOTH",
"1008 -24 OFFCURVE",
"1117 58 OFFCURVE",
"1117 452 CURVE SMOOTH",
"1117 979 OFFCURVE",
"1117 1238 OFFCURVE",
"929 1369 CURVE",
"1087 1527 LINE",
"1027 1587 LINE"
);
},
{
closed = 1;
nodes = (
"904 838 OFFCURVE",
"919 776 OFFCURVE",
"919 651 CURVE SMOOTH",
"919 204 LINE SMOOTH",
"919 120 OFFCURVE",
"915 104 OFFCURVE",
"647 104 CURVE SMOOTH",
"377 104 OFFCURVE",
"335 110 OFFCURVE",
"335 214 CURVE SMOOTH",
"336 714 LINE SMOOTH",
"336 824 OFFCURVE",
"361 838 OFFCURVE",
"649 838 CURVE SMOOTH"
);
}
);
width = 1270;
},
{
layerId = "24819F8C-2CC6-4723-AD58-E43FF506A0F9";
name = Bold;
paths = (
{
closed = 1;
nodes = (
"771 -37 CURVE SMOOTH",
"943 -37 OFFCURVE",
"1080 -17 OFFCURVE",
"1182 45 CURVE SMOOTH",
"1389 171 OFFCURVE",
"1400 471 OFFCURVE",
"1400 807 CURVE SMOOTH",
"1400 1163 OFFCURVE",
"1237 1402 OFFCURVE",
"1054 1578 CURVE",
"1222 1694 LINE",
"1151 1817 LINE",
"943 1674 LINE",
"830 1762 OFFCURVE",
"711 1832 OFFCURVE",
"574 1889 CURVE",
"573 1887 LINE",
"349 1546 LINE",
"416 1510 LINE SMOOTH",
"466 1483 OFFCURVE",
"519 1449 OFFCURVE",
"570 1416 CURVE",
"365 1275 LINE",
"435 1151 LINE",
"687 1324 LINE",
"744 1273 OFFCURVE",
"826 1199 OFFCURVE",
"826 1097 CURVE",
"686 1097 LINE SMOOTH",
"533 1097 OFFCURVE",
"412 1075 OFFCURVE",
"321 1021 CURVE SMOOTH",
"172 933 OFFCURVE",
"135 761 OFFCURVE",
"135 525 CURVE SMOOTH",
"135 408 OFFCURVE",
"143 306 OFFCURVE",
"175 221 CURVE SMOOTH",
"254 12 OFFCURVE",
"477 -37 OFFCURVE"
);
},
{
closed = 1;
nodes = (
"703 238 LINE",
"703 828 LINE",
"825 828 LINE",
"825 238 LINE"
);
}
);
width = 1555;
}
);
leftKerningGroup = o_Right;
unicode = 00F0;
},
{
glyphname = divide;
lastChange = "2014-01-01 23:19:49 -0800";
layers = (
{
layerId = "4D3A9D47-CC41-4843-AE67-D0D92AD22A81";
name = Regular;
paths = (
{
closed = 1;
nodes = (
"20 753 LINE",
"20 614 LINE",
"707 614 LINE",
"707 753 LINE"
);
},
{
closed = 1;
nodes = (
"277 442 OFFCURVE",
"224 383 OFFCURVE",
"224 288 CURVE SMOOTH",
"224 193 OFFCURVE",
"283 134 OFFCURVE",
"364 134 CURVE SMOOTH",
"450 134 OFFCURVE",
"504 203 OFFCURVE",
"504 288 CURVE SMOOTH",
"504 366 OFFCURVE",
"448 442 OFFCURVE",
"378 442 CURVE SMOOTH"
);
},
{
closed = 1;
nodes = (
"277 1233 OFFCURVE",
"224 1175 OFFCURVE",
"224 1079 CURVE SMOOTH",
"224 984 OFFCURVE",
"282 925 OFFCURVE",
"364 925 CURVE SMOOTH",
"452 925 OFFCURVE",
"504 991 OFFCURVE",
"504 1079 CURVE SMOOTH",
"504 1157 OFFCURVE",
"448 1233 OFFCURVE",
"378 1233 CURVE SMOOTH"
);
}
);
width = 723;
},
{
layerId = "24819F8C-2CC6-4723-AD58-E43FF506A0F9";
name = Bold;
paths = (
{
closed = 1;
nodes = (
"601 134 CURVE SMOOTH",
"687 134 OFFCURVE",
"741 203 OFFCURVE",
"741 288 CURVE SMOOTH",
"741 366 OFFCURVE",
"685 442 OFFCURVE",
"615 442 CURVE SMOOTH",
"514 442 OFFCURVE",
"461 383 OFFCURVE",
"461 288 CURVE SMOOTH",
"461 193 OFFCURVE",
"520 134 OFFCURVE"
);
},
{
closed = 1;
nodes = (
"257 614 LINE",
"944 614 LINE",
"944 753 LINE",
"257 753 LINE"
);
},
{
closed = 1;
nodes = (
"601 925 CURVE SMOOTH",
"689 925 OFFCURVE",
"741 991 OFFCURVE",
"741 1079 CURVE SMOOTH",
"741 1157 OFFCURVE",
"685 1233 OFFCURVE",
"615 1233 CURVE SMOOTH",
"514 1233 OFFCURVE",
"461 1175 OFFCURVE",
"461 1079 CURVE SMOOTH",
"461 984 OFFCURVE",
"519 925 OFFCURVE"
);
}
);
width = 1203;
}
);
unicode = 00F7;
},
{
glyphname = oslash;
lastChange = "2014-01-01 23:19:49 -0800";
layers = (
{
anchors = (
{
name = top;
position = "{588, 1097}";
}
);
layerId = "4D3A9D47-CC41-4843-AE67-D0D92AD22A81";
name = Regular;
paths = (
{
closed = 1;
nodes = (
"729 1299 LINE",
"692 1126 LINE",
"665 1127 OFFCURVE",
"637 1128 OFFCURVE",
"606 1128 CURVE SMOOTH",
"190 1128 OFFCURVE",
"144 1035 OFFCURVE",
"144 558 CURVE SMOOTH",
"144 163 OFFCURVE",
"163 23 OFFCURVE",
"449 -8 CURVE",
"408 -200 LINE",
"501 -200 LINE",
"541 -14 LINE",
"561 -15 OFFCURVE",
"583 -15 OFFCURVE",
"605 -15 CURVE SMOOTH",
"607 -15 LINE SMOOTH",
"1042 -15 OFFCURVE",
"1068 101 OFFCURVE",
"1068 558 CURVE SMOOTH",
"1068 956 OFFCURVE",
"1035 1087 OFFCURVE",
"783 1119 CURVE",
"822 1299 LINE"
);
},
{
closed = 1;
nodes = (
"479 130 LINE",
"392 140 OFFCURVE",
"352 161 OFFCURVE",
"352 215 CURVE SMOOTH",
"352 319 OFFCURVE",
"341 437 OFFCURVE",
"341 546 CURVE SMOOTH",
"341 667 OFFCURVE",
"351 782 OFFCURVE",
"351 895 CURVE SMOOTH",
"351 989 OFFCURVE",
"487 989 OFFCURVE",
"606 989 CURVE SMOOTH",
"663 989 LINE"
);
},
{
closed = 1;
nodes = (
"815 972 OFFCURVE",
"861 949 OFFCURVE",
"861 895 CURVE SMOOTH",
"861 782 OFFCURVE",
"871 667 OFFCURVE",
"871 546 CURVE SMOOTH",
"871 437 OFFCURVE",
"860 319 OFFCURVE",
"860 215 CURVE SMOOTH",
"860 140 OFFCURVE",
"784 127 OFFCURVE",
"607 123 CURVE SMOOTH",
"605 123 LINE SMOOTH",
"593 123 OFFCURVE",
"581 124 OFFCURVE",
"570 124 CURVE",
"754 982 LINE"
);
}
);
width = 1212;
},
{
anchors = (
{
name = top;
position = "{812, 1300}";
}
);
layerId = "24819F8C-2CC6-4723-AD58-E43FF506A0F9";
name = Bold;
paths = (
{
closed = 1;
nodes = (
"193 -39 LINE",
"294 65 LINE",
"422 -18 OFFCURVE",
"601 -39 OFFCURVE",
"823 -39 CURVE SMOOTH",
"1007 -39 OFFCURVE",
"1157 -22 OFFCURVE",
"1276 27 CURVE SMOOTH",
"1409 82 OFFCURVE",
"1474 172 OFFCURVE",
"1474 352 CURVE SMOOTH",
"1474 952 LINE SMOOTH",
"1474 1063 OFFCURVE",
"1455 1141 OFFCURVE",
"1399 1198 CURVE",
"1485 1286 LINE",
"1427 1344 LINE",
"1334 1249 LINE",
"1207 1324 OFFCURVE",
"1036 1344 OFFCURVE",
"823 1344 CURVE",
"824 1343 LINE",
"469 1343 OFFCURVE",
"165 1298 OFFCURVE",
"165 952 CURVE SMOOTH",
"165 352 LINE SMOOTH",
"165 249 OFFCURVE",
"182 175 OFFCURVE",
"232 118 CURVE",
"135 19 LINE"
);
},
{
closed = 1;
nodes = (
"736 234 LINE",
"736 519 LINE",
"902 689 LINE",
"902 234 LINE"
);
},
{
closed = 1;
nodes = (
"736 636 LINE",
"736 1106 LINE",
"902 1106 LINE",
"902 806 LINE"
);
}
);
width = 1631;
}
);
leftKerningGroup = o_Right;
rightKerningGroup = o_Left;
unicode = 00F8;
},
{
glyphname = thorn;
lastChange = "2014-01-01 23:19:49 -0800";
layers = (
{
layerId = "4D3A9D47-CC41-4843-AE67-D0D92AD22A81";
name = Regular;
paths = (
{
closed = 1;
nodes = (
"162 1564 LINE",
"162 -401 LINE",
"358 -385 LINE",
"358 104 LINE",
"400 20 OFFCURVE",
"526 -24 OFFCURVE",
"724 -24 CURVE SMOOTH",
"1020 -24 OFFCURVE",
"1069 124 OFFCURVE",
"1069 526 CURVE SMOOTH",
"1069 550 LINE SMOOTH",
"1069 921 OFFCURVE",
"1065 1168 OFFCURVE",
"705 1168 CURVE SMOOTH",
"504 1168 OFFCURVE",
"390 1124 OFFCURVE",
"357 1041 CURVE",
"357 1579 LINE"
);
},
{
closed = 1;
nodes = (
"850 1001 OFFCURVE",
"871 995 OFFCURVE",
"871 770 CURVE SMOOTH",
"871 715 OFFCURVE",
"870 647 OFFCURVE",
"870 562 CURVE SMOOTH",
"870 496 OFFCURVE",
"871 440 OFFCURVE",
"871 392 CURVE SMOOTH",
"871 189 OFFCURVE",
"849 144 OFFCURVE",
"620 144 CURVE SMOOTH",
"398 144 OFFCURVE",
"355 145 OFFCURVE",
"355 355 CURVE SMOOTH",
"355 420 OFFCURVE",
"358 506 OFFCURVE",
"358 621 CURVE SMOOTH",
"358 677 OFFCURVE",
"356 741 OFFCURVE",
"356 798 CURVE SMOOTH",
"356 981 OFFCURVE",
"365 1001 OFFCURVE",
"641 1001 CURVE SMOOTH"
);
}
);
width = 1213;
},
{
layerId = "24819F8C-2CC6-4723-AD58-E43FF506A0F9";
name = Bold;
paths = (
{
closed = 1;
nodes = (
"173 -409 LINE",
"744 -409 LINE",
"744 78 LINE",
"752 67 OFFCURVE",
"761 56 OFFCURVE",
"770 44 CURVE SMOOTH",
"815 -13 OFFCURVE",
"907 -24 OFFCURVE",
"1017 -24 CURVE SMOOTH",
"1142 -24 OFFCURVE",
"1239 -2 OFFCURVE",
"1308 48 CURVE SMOOTH",
"1403 116 OFFCURVE",
"1431 229 OFFCURVE",
"1431 390 CURVE SMOOTH",
"1431 908 LINE SMOOTH",
"1431 935 OFFCURVE",
"1430 964 OFFCURVE",
"1429 995 CURVE SMOOTH",
"1419 1231 OFFCURVE",
"1269 1323 OFFCURVE",
"1017 1323 CURVE SMOOTH",
"889 1323 OFFCURVE",
"783 1307 OFFCURVE",
"744 1227 CURVE",
"744 1602 LINE",
"173 1602 LINE"
);
},
{
closed = 1;
nodes = (
"746 201 LINE",
"746 1107 LINE",
"913 1107 LINE",
"913 201 LINE"
);
}
);
width = 1593;
}
);
rightKerningGroup = o_Left;
unicode = 00FE;
},
{
glyphname = dotlessi;
lastChange = "2014-01-01 23:47:10 -0800";
layers = (
{
anchors = (
{
name = ogonek;
position = "{258, 0}";
},
{
name = top;
position = "{251, 1097}";
}
);
layerId = "4D3A9D47-CC41-4843-AE67-D0D92AD22A81";
name = Regular;
paths = (
{
closed = 1;
nodes = (
"159 1097 LINE",
"159 0 LINE",
"356 0 LINE",
"356 1097 LINE"
);
}
);
width = 496;
},
{
anchors = (
{
name = ogonek;
position = "{536, 0}";
},
{
name = top;
position = "{488, 1300}";
}
);
layerId = "24819F8C-2CC6-4723-AD58-E43FF506A0F9";
name = Bold;
paths = (
{
closed = 1;
nodes = (
"216 1298 LINE",
"216 0 LINE",
"785 0 LINE",
"785 1298 LINE"
);
}
);
width = 992;
}
);
unicode = 0131;
},
{
glyphname = circumflex;
lastChange = "2014-01-01 23:46:25 -0800";
layers = (
{
anchors = (
{
name = _top;
position = "{401, 1097}";
}
);
layerId = "4D3A9D47-CC41-4843-AE67-D0D92AD22A81";
name = Regular;
paths = (
{
closed = 1;
nodes = (
"371 1713 OFFCURVE",
"339 1700 OFFCURVE",
"313 1661 CURVE SMOOTH",
"121 1352 LINE",
"149 1325 LINE",
"176 1298 LINE",
"407 1534 LINE",
"638 1298 LINE",
"666 1325 LINE",
"693 1352 LINE",
"501 1661 LINE SMOOTH",
"476 1701 OFFCURVE",
"443 1713 OFFCURVE",
"407 1713 CURVE SMOOTH"
);
}
);
width = 801;
},
{
anchors = (
{
name = _top;
position = "{787, 1300}";
}
);
layerId = "24819F8C-2CC6-4723-AD58-E43FF506A0F9";
name = Bold;
paths = (
{
closed = 1;
nodes = (
"733 2008 OFFCURVE",
"676 1984 OFFCURVE",
"645 1936 CURVE SMOOTH",
"382 1527 LINE SMOOTH",
"355.2 1484.57 OFFCURVE",
"361.77 1449.82 OFFCURVE",
"383.5 1430.12 CURVE SMOOTH",
"406.833 1408.98 OFFCURVE",
"446.941 1404.18 OFFCURVE",
"484 1433 CURVE SMOOTH",
"787 1668 LINE",
"1090 1433 LINE SMOOTH",
"1127.47 1403.42 OFFCURVE",
"1168.55 1406.06 OFFCURVE",
"1191.62 1428.62 CURVE SMOOTH",
"1212.84 1449.37 OFFCURVE",
"1217.88 1486.03 OFFCURVE",
"1192 1527 CURVE SMOOTH",
"929 1936 LINE SMOOTH",
"896 1987 OFFCURVE",
"841 2008 OFFCURVE",
"788 2008 CURVE SMOOTH"
);
}
);
width = 1318;
}
);
unicode = 02C6;
userData = {
com.typemytype.robofont.layerData = {
};
};
},
{
glyphname = caron;
lastChange = "2014-01-01 23:46:25 -0800";
layers = (
{
anchors = (
{
name = _top;
position = "{401, 1097}";
}
);
layerId = "4D3A9D47-CC41-4843-AE67-D0D92AD22A81";
name = Regular;
paths = (
{
closed = 1;
nodes = (
"407 1477 LINE",
"176 1713 LINE",
"149 1686 LINE",
"121 1659 LINE",
"313 1350 LINE SMOOTH",
"339 1311 OFFCURVE",
"371 1298 OFFCURVE",
"407 1298 CURVE SMOOTH",
"443 1298 OFFCURVE",
"476 1310 OFFCURVE",
"501 1350 CURVE SMOOTH",
"693 1659 LINE",
"666 1686 LINE",
"638 1713 LINE"
);
}
);
width = 801;
},
{
anchors = (
{
name = _top;
position = "{787, 1300}";
}
);
layerId = "24819F8C-2CC6-4723-AD58-E43FF506A0F9";
name = Bold;
paths = (
{
closed = 1;
nodes = (
"1129 2048 OFFCURVE",
"1109 2041 OFFCURVE",
"1090 2026 CURVE SMOOTH",
"787 1791 LINE",
"484 2026 LINE SMOOTH",
"466 2040 OFFCURVE",
"447 2046 OFFCURVE",
"430 2046 CURVE SMOOTH",
"394 2046 OFFCURVE",
"364 2021 OFFCURVE",
"364 1984 CURVE SMOOTH",
"364 1969 OFFCURVE",
"370 1951 OFFCURVE",
"382 1932 CURVE SMOOTH",
"645 1523 LINE SMOOTH",
"676 1475 OFFCURVE",
"733 1451 OFFCURVE",
"788 1451 CURVE SMOOTH",
"841 1451 OFFCURVE",
"896 1472 OFFCURVE",
"929 1523 CURVE SMOOTH",
"1192 1932 LINE SMOOTH",
"1204 1951 OFFCURVE",
"1210 1969 OFFCURVE",
"1210 1985 CURVE SMOOTH",
"1210 2022 OFFCURVE",
"1182 2048 OFFCURVE",
"1147 2048 CURVE SMOOTH"
);
}
);
width = 1318;
}
);
unicode = 02C7;
userData = {
com.typemytype.robofont.layerData = {
};
};
},
{
glyphname = breve;
lastChange = "2014-01-01 23:46:25 -0800";
layers = (
{
anchors = (
{
name = _top;
position = "{372, 1097}";
}
);
layerId = "4D3A9D47-CC41-4843-AE67-D0D92AD22A81";
name = Regular;
paths = (
{
closed = 1;
nodes = (
"513 1578 LINE",
"513 1459 OFFCURVE",
"467 1404 OFFCURVE",
"368 1404 CURVE SMOOTH",
"269 1404 OFFCURVE",
"223 1459 OFFCURVE",
"223 1578 CURVE",
"82 1578 LINE",
"82 1372 OFFCURVE",
"172 1278 OFFCURVE",
"368 1278 CURVE SMOOTH",
"564 1278 OFFCURVE",
"654 1372 OFFCURVE",
"654 1578 CURVE"
);
}
);
width = 743;
},
{
anchors = (
{
name = _top;
position = "{820, 1300}";
}
);
layerId = "24819F8C-2CC6-4723-AD58-E43FF506A0F9";
name = Bold;
paths = (
{
closed = 1;
nodes = (
"991 1879 LINE",
"991 1757 OFFCURVE",
"939 1701 OFFCURVE",
"826 1701 CURVE SMOOTH",
"713 1701 OFFCURVE",
"661 1757 OFFCURVE",
"661 1879 CURVE",
"364 1879 LINE",
"364 1577 OFFCURVE",
"509 1438 OFFCURVE",
"826 1438 CURVE SMOOTH",
"1143 1438 OFFCURVE",
"1288 1577 OFFCURVE",
"1288 1879 CURVE"
);
}
);
width = 1371;
}
);
unicode = 02D8;
userData = {
com.typemytype.robofont.layerData = {
};
};
},
{
glyphname = dotaccent;
lastChange = "2014-01-01 23:46:25 -0800";
layers = (
{
anchors = (
{
name = _top;
position = "{225, 1097}";
}
);
layerId = "4D3A9D47-CC41-4843-AE67-D0D92AD22A81";
name = Regular;
paths = (
{
closed = 1;
nodes = (
"123 1638 LINE",
"122 1410 LINE",
"331 1410 LINE",
"330 1638 LINE"
);
}
);
width = 447;
},
{
anchors = (
{
name = _top;
position = "{648, 1300}";
}
);
layerId = "24819F8C-2CC6-4723-AD58-E43FF506A0F9";
name = Bold;
paths = (
{
closed = 1;
nodes = (
"364 1771 LINE",
"364 1487 LINE",
"935 1487 LINE",
"935 1771 LINE"
);
}
);
width = 1127;
}
);
unicode = 02D9;
},
{
glyphname = ring;
lastChange = "2014-01-01 23:46:25 -0800";
layers = (
{
anchors = (
{
name = _top;
position = "{373, 1097}";
}
);
layerId = "4D3A9D47-CC41-4843-AE67-D0D92AD22A81";
name = Regular;
paths = (
{
closed = 1;
nodes = (
"215 1746 OFFCURVE",
"117 1648 OFFCURVE",
"117 1492 CURVE SMOOTH",
"117 1336 OFFCURVE",
"216 1238 OFFCURVE",
"374 1238 CURVE SMOOTH",
"531 1238 OFFCURVE",
"630 1336 OFFCURVE",
"630 1492 CURVE SMOOTH",
"630 1648 OFFCURVE",
"530 1746 OFFCURVE",
"372 1746 CURVE SMOOTH"
);
},
{
closed = 1;
nodes = (
"437 1628 OFFCURVE",
"487 1575 OFFCURVE",
"487 1490 CURVE SMOOTH",
"487 1407 OFFCURVE",
"448 1355 OFFCURVE",
"385 1355 CURVE SMOOTH",
"306 1355 OFFCURVE",
"257 1408 OFFCURVE",
"257 1492 CURVE SMOOTH",
"257 1576 OFFCURVE",
"296 1628 OFFCURVE",
"358 1628 CURVE SMOOTH"
);
}
);
width = 745;
},
{
anchors = (
{
name = _top;
position = "{695, 1300}";
}
);
layerId = "24819F8C-2CC6-4723-AD58-E43FF506A0F9";
name = Bold;
paths = (
{
closed = 1;
nodes = (
"492 2072 OFFCURVE",
"364 1948 OFFCURVE",
"364 1750 CURVE SMOOTH",
"364 1553 OFFCURVE",
"492 1430 OFFCURVE",
"696 1430 CURVE SMOOTH",
"901 1430 OFFCURVE",
"1030 1553 OFFCURVE",
"1030 1750 CURVE SMOOTH",
"1030 1948 OFFCURVE",
"901 2072 OFFCURVE",
"696 2072 CURVE SMOOTH"
);
},
{
closed = 1;
nodes = (
"786 1898 OFFCURVE",
"842 1841 OFFCURVE",
"842 1750 CURVE SMOOTH",
"842 1659 OFFCURVE",
"786 1603 OFFCURVE",
"696 1603 CURVE SMOOTH",
"605 1603 OFFCURVE",
"548 1659 OFFCURVE",
"548 1750 CURVE SMOOTH",
"548 1841 OFFCURVE",
"605 1898 OFFCURVE",
"696 1898 CURVE SMOOTH"
);
}
);
width = 1188;
}
);
unicode = 02DA;
userData = {
com.typemytype.robofont.layerData = {
};
};
},
